<?xml version="1.0" encoding="UTF-8" standalone="no"?>
<!-- Created with Inkscape (http://www.inkscape.org/) -->
<svg
   xmlns:dc="http://purl.org/dc/elements/1.1/"
   xmlns:cc="http://web.resource.org/cc/"
   xmlns:rdf="http://www.w3.org/1999/02/22-rdf-syntax-ns#"
   xmlns:svg="http://www.w3.org/2000/svg"
   xmlns="http://www.w3.org/2000/svg"
   xmlns:sodipodi="http://sodipodi.sourceforge.net/DTD/sodipodi-0.dtd"
   xmlns:inkscape="http://www.inkscape.org/namespaces/inkscape"
   width="260pt"
   height="315pt"
   id="svg2"
   sodipodi:version="0.32"
   inkscape:version="0.44"
   sodipodi:docbase="C:\Documents and Settings\HP_Owner\Desktop"
   sodipodi:docname="CarpathianRutheniaCoA.svg"
   version="1.0">
  <defs
     id="defs3" />
  <sodipodi:namedview
     id="base"
     pagecolor="#ffffff"
     bordercolor="#666666"
     borderopacity="1.0"
     inkscape:pageopacity="0.0"
     inkscape:pageshadow="2"
     inkscape:zoom="0.85588235"
     inkscape:cx="278.9988"
     inkscape:cy="211.17829"
     inkscape:document-units="px"
     inkscape:current-layer="g1567"
     inkscape:window-width="1024"
     inkscape:window-height="749"
     inkscape:window-x="-4"
     inkscape:window-y="-4"
     showguides="true"
     inkscape:guide-bbox="true" />
  <metadata
     id="metadata4">
    <rdf:RDF>
      <cc:Work
         rdf:about="">
        <dc:format>image/svg+xml</dc:format>
        <dc:type
           rdf:resource="http://purl.org/dc/dcmitype/StillImage" />
      </cc:Work>
    </rdf:RDF>
  </metadata>
  <g
     inkscape:label="Layer 1"
     inkscape:groupmode="layer"
     id="layer1">
    <g
       transform="translate(182.8562,94.86106)"
       inkscape:label="Layer 1"
       inkscape:groupmode="layer"
       id="g2127" />
    <g
       inkscape:label="Layer 1"
       inkscape:groupmode="layer"
       id="g1693"
       transform="translate(-126.6899,114.8194)" />
    <path
       style="fill:#0080ff;fill-opacity:1;fill-rule:nonzero;stroke:#000000;stroke-width:0.47057042;stroke-miterlimit:4;stroke-dashoffset:0;stroke-opacity:1"
       d="M 166.58157,380.15016 L 166.58157,308.21266 L 15.851398,308.21266 L 15.851398,315.46266 L 16.071998,315.46266 L 16.071998,320.93141 C 18.259508,342.23798 35.505558,358.49392 56.031408,358.49391 L 148.83934,358.40016 C 149.3409,358.11184 160.54799,365.5249 165.98281,380.15016 L 166.58157,380.15016 z "
       id="path9226" />
    <g
       inkscape:label="Layer 1"
       inkscape:groupmode="layer"
       id="g1567"
       transform="translate(-55.69388,92.36725)">
      <path
         style="fill:#c8c8c8;fill-opacity:1;fill-rule:nonzero;stroke:#000000;stroke-width:0.46090099;stroke-miterlimit:4;stroke-dashoffset:0;stroke-opacity:1"
         d="M 222.37118,-78.4203 L 222.37118,208.48595 L 222.33993,208.48595 L 222.33993,289.11095 C 228.05916,276.29055 237.71496,269.72304 238.77743,269.1422 C 238.79266,269.13422 238.82952,269.11565 238.83993,269.11095 L 330.80868,269.0172 C 350.80336,268.68699 368.44197,253.39646 370.68368,233.11095 L 370.68368,227.6422 L 370.90243,227.6422 L 370.90243,208.48595 L 370.90243,-78.4203 L 222.37118,-78.4203 z "
         id="path4827" />
      <g
         transform="matrix(0.160664,0,0,0.160664,316.2016,94.47225)"
         inkscape:label="Layer 1"
         inkscape:groupmode="layer"
         id="g5014">
        <g
           transform="translate(182.8562,94.86106)"
           inkscape:label="Layer 1"
           inkscape:groupmode="layer"
           id="g5016" />
        <g
           inkscape:label="Layer 1"
           inkscape:groupmode="layer"
           id="g5018"
           transform="translate(-126.6899,114.8194)" />
        <g
           id="g1319"
           inkscape:groupmode="layer"
           inkscape:label="Layer 1"
           transform="translate(315.254,234.9764)">
          <g
             id="g1324"
             inkscape:groupmode="layer"
             inkscape:label="Layer 1"
             transform="translate(182.8562,94.86106)" />
        </g>
      </g>
      <path
         style="fill:#800000;fill-opacity:1;fill-rule:evenodd;stroke:#000000;stroke-width:1.0103327px;stroke-linecap:butt;stroke-linejoin:miter;stroke-opacity:1"
         d="M 283.67058,-38.058847 L 287.036,-25.009717 L 282.83643,-17.493177 L 300.15994,-14.235267 L 300.22024,-31.661147 L 283.67058,-38.058847 z "
         id="path1572"
         sodipodi:nodetypes="cccccc" />
      <path
         style="fill:#ff0000;fill-opacity:1;fill-rule:evenodd;stroke:#000000;stroke-width:1.0103327px;stroke-linecap:butt;stroke-linejoin:miter;stroke-opacity:1"
         d="M 274.7644,-14.844897 C 278.28334,-15.413127 285.81243,-13.566467 287.14708,-14.569667 C 288.48172,-15.572877 293.98717,-18.582487 293.98717,-18.582487 C 293.98717,-18.582487 281.30013,-21.366957 275.56632,-19.760757 C 269.86583,-18.163877 267.77357,-24.000357 265.27109,-24.000357 C 262.76862,-24.000357 271.21043,-14.270997 274.7644,-14.844897 z "
         id="path1570"
         sodipodi:nodetypes="ccczcz" />
      <path
         style="fill:#c80000;fill-opacity:1;fill-rule:evenodd;stroke:#000000;stroke-width:1.0875591px;stroke-linecap:butt;stroke-linejoin:miter;stroke-opacity:1"
         d="M 275.9959,74.60957 C 275.81732,77.83106 274.79649,89.04512 260.81817,99.22774 C 258.52749,100.93553 253.48864,109.06131 260.91525,106.90946 C 258.58848,110.28072 258.80455,114.22671 263.73915,111.28748 C 263.68559,114.73438 266.02943,115.99483 269.77255,112.02664 C 272.28375,115.34694 275.01966,111.96294 275.34393,109.84991 C 276.11943,104.7966 277.75279,104.00612 280.76779,104.19899 L 292.31069,79.275 L 275.9959,74.60957 z "
         id="path3352"
         sodipodi:nodetypes="cccccsccc" />
      <path
         style="fill:#c80000;fill-opacity:1;fill-rule:evenodd;stroke:#000000;stroke-width:1.0103327px;stroke-linecap:butt;stroke-linejoin:miter;stroke-opacity:1"
         d="M 278.70278,100.80547 C 278.70278,100.80547 279.53672,106.84882 280.3065,107.94175 C 281.07629,109.03469 284.09128,108.84182 284.34789,107.68459 C 284.60448,106.52735 284.28373,94.56926 284.28373,94.56926 L 278.70278,100.80547 z "
         id="path7160" />
      <path
         style="fill:none;fill-opacity:0.75;fill-rule:evenodd;stroke:#000000;stroke-width:1.0103327px;stroke-linecap:butt;stroke-linejoin:miter;stroke-opacity:1"
         d="M 260.53303,107.0747 C 261.85068,106.28236 267.75758,102.58998 267.49405,97.90195"
         id="path7152"
         sodipodi:nodetypes="cc" />
      <path
         style="fill:none;fill-opacity:0.75;fill-rule:evenodd;stroke:#000000;stroke-width:1.0103327px;stroke-linecap:butt;stroke-linejoin:miter;stroke-opacity:1"
         d="M 263.75608,111.19973 C 268.49964,104.66292 272.58263,102.85235 271.46262,98.95667"
         id="path7154"
         sodipodi:nodetypes="cc" />
      <path
         style="fill:none;fill-opacity:0.75;fill-rule:evenodd;stroke:#000000;stroke-width:1.0103327px;stroke-linecap:butt;stroke-linejoin:miter;stroke-opacity:1"
         d="M 269.90572,111.83569 C 273.6801,107.01735 272.78201,104.31193 274.56951,102.06175"
         id="path7156"
         sodipodi:nodetypes="cc" />
      <path
         style="fill:#c80000;fill-opacity:1;fill-rule:evenodd;stroke:#000000;stroke-width:1.0103327px;stroke-linecap:butt;stroke-linejoin:miter;stroke-opacity:1"
         d="M 335.23287,-31.837117 C 332.10287,-33.878977 298.3649,-2.2206168 298.3649,-2.2206168 C 298.36488,-2.2206168 299.02027,20.279523 285.81276,29.545223 C 267.32226,55.3568 243.92868,63.40273 233.58577,55.30556 C 228.08302,54.92329 225.89273,56.49654 229.23351,58.94046 C 224.47432,58.81396 224.03505,61.8688 227.53047,62.98626 C 222.47695,64.92566 224.87279,67.10171 227.75123,67.98029 C 224.44363,69.68506 226.54366,72.28367 230.21119,72.24734 C 232.71649,71.76546 238.10607,69.92329 238.97877,74.20702 C 237.04681,77.66512 239.9676,81.37322 242.95256,78.06317 C 248.5386,72.88466 287.79965,77.87353 287.79965,77.87353 C 282.62095,84.31652 284.49585,118.25598 287.13735,124.87432 C 289.77883,131.49269 293.05881,134.78492 290.41731,140.74144 C 287.77584,146.69796 267.96223,190.38688 267.96223,197.66707 C 267.96225,204.94727 272.61254,230.0851 266.66917,226.11408 C 263.69748,224.12859 259.40966,226.31297 255.59932,225.73479 C 254.31508,221.9716 248.43184,221.82171 247.93557,222.89009 C 246.94306,225.02686 247.75229,225.21293 248.15634,226.24051 C 246.2928,226.45867 243.55436,229.96494 247.39943,232.59369 C 243.89252,231.13912 242.01784,234.49919 243.20487,237.1136 C 245.79865,242.82634 256.08509,241.6416 264.68227,243.43515 C 273.33599,245.24053 285.5372,250.71662 287.79965,240.02151 C 289.7808,236.05048 297.03837,229.43366 296.378,218.84429 C 295.71765,208.25493 304.9479,193.02652 312.8724,195.01202 C 329.3818,194.3502 339.1005,222.67656 335.13825,225.32389 C 334.32583,225.86671 333.4988,226.67713 332.70982,227.50483 C 331.1618,227.71276 329.58954,227.92448 328.07373,227.69447 C 326.78945,223.93126 320.90625,223.78139 320.40999,224.84977 C 319.41749,226.98655 320.19517,227.17262 320.59922,228.2002 C 318.7357,228.41836 316.02877,231.92462 319.87384,234.55337 C 316.36688,233.09881 314.49225,236.45887 315.67928,239.07328 C 318.27308,244.78602 328.55951,243.60128 337.15669,245.39484 C 345.65409,247.16757 357.51498,252.3899 360.08484,242.45532 C 359.00536,232.30441 355.80337,173.82709 358.44486,171.17974 C 368.49523,158.90709 363.61848,116.75722 357.75103,86.47085 C 361.61389,60.84696 364.26319,37.669043 359.76946,31.536503 C 350.87716,19.401333 334.10134,-23.671907 335.42209,-30.952097 C 335.50464,-31.407107 335.44153,-31.700987 335.23287,-31.837117 z "
         id="path1564"
         sodipodi:nodetypes="cccccccccccccccccccccccccccccccccccccc" />
      <path
         sodipodi:nodetypes="ccccc"
         id="path8950"
         d="M 279.76717,-34.295537 C 278.35021,-34.284317 277.21399,-33.147377 277.24271,-31.763017 C 277.25067,-31.378507 278.09133,-24.621257 280.70104,-23.431937 C 280.70221,-23.445757 279.3177,-29.413407 282.36844,-31.803587 C 282.33974,-33.187917 281.18415,-34.306727 279.76717,-34.295537 z "
         style="fill:#ffc800;fill-opacity:1;fill-rule:nonzero;stroke:#000000;stroke-width:0.89015722;stroke-miterlimit:4;stroke-dashoffset:0;stroke-opacity:1" />
      <path
         sodipodi:nodetypes="ccccc"
         id="path8952"
         d="M 286.00271,-15.519397 C 284.58576,-15.530617 283.44953,-16.667577 283.47825,-18.051927 C 283.48622,-18.436437 284.32687,-25.193677 286.93658,-26.383007 C 286.93775,-26.369187 285.55324,-20.401537 288.60399,-18.011357 C 288.57529,-16.627027 287.4197,-15.508207 286.00271,-15.519397 z "
         style="fill:#ffc800;fill-opacity:1;fill-rule:nonzero;stroke:#000000;stroke-width:0.89015722;stroke-miterlimit:4;stroke-dashoffset:0;stroke-opacity:1" />
      <path
         style="fill:#800000;fill-opacity:0.50196078;fill-rule:evenodd;stroke:none;stroke-width:1px;stroke-linecap:butt;stroke-linejoin:miter;stroke-opacity:1"
         d="M 335.88323,-24.069377 C 335.88323,-24.069377 327.7091,-8.5473068 329.28657,-4.3793468 C 330.86402,-0.21138683 333.58873,-1.0737368 333.58873,-1.0737368 C 333.58873,-1.0737368 328.99975,3.6691232 325.84483,2.9505032 C 322.68991,2.2319032 319.9652,0.79467317 319.39158,1.9444432 C 318.81796,3.0942232 315.80644,8.5556932 323.98056,10.280373 C 321.54266,12.292483 311.93449,13.154823 310.64383,9.4180332 C 309.35319,5.6812432 307.0587,5.1063532 306.19826,6.5435832 C 305.33783,7.9808032 305.3473,13.696643 302.75653,15.310663 C 300.10352,16.963473 297.73734,12.867373 297.73734,12.867373 C 304.76421,14.448323 300.46204,7.1184632 300.46204,7.1184632 L 298.31096,3.9565732 L 298.45437,-6.6789268 L 334.73598,-32.692737 L 335.1662,-28.812217 L 335.88323,-24.069377 z "
         id="path13544"
         sodipodi:nodetypes="cccccccczccccccc" />
      <path
         style="fill:#c80000;fill-opacity:1;fill-rule:evenodd;stroke:#000000;stroke-width:1.0103327px;stroke-linecap:butt;stroke-linejoin:miter;stroke-opacity:1"
         d="M 290.31684,-53.025747 C 290.31684,-53.025747 292.98615,-55.533755 300.49356,-57.707355 C 308.00099,-59.880955 326.85294,-58.041755 329.35542,-55.366545 C 331.85789,-52.691337 330.52324,-48.344127 333.35939,-48.176927 C 336.19552,-48.009727 340.69997,-46.504927 340.8668,-41.990517 C 341.03363,-37.476107 337.697,-31.791277 335.02769,-30.955277 C 332.35838,-30.119267 327.35344,-4.7047868 323.18265,-2.3639868 C 319.01186,-0.023176828 297.82426,-1.6951768 295.65544,-5.2063968 C 293.48664,-8.7176068 281.47476,-10.222407 282.47575,-13.900827 C 283.47674,-17.579237 291.31783,-21.424837 293.3198,-19.920037 C 295.32179,-18.415237 298.32475,-14.402417 299.15891,-18.415237 C 299.99307,-22.428047 299.49257,-31.791277 294.48763,-31.122477 C 289.48267,-30.453677 275.30199,-31.624067 274.8015,-33.797677 C 274.30101,-35.971297 270.79754,-47.508127 274.30101,-50.350537 C 277.80447,-53.192947 290.31684,-53.025747 290.31684,-53.025747 z "
         id="path1568"
         sodipodi:nodetypes="ccccccccccccccc" />
      <path
         style="fill:none;fill-opacity:0.75;fill-rule:evenodd;stroke:#000000;stroke-width:1.0103327px;stroke-linecap:butt;stroke-linejoin:miter;stroke-opacity:1"
         d="M 227.04044,63.15449 C 227.04044,63.15449 233.15709,59.89036 237.94914,63.0254"
         id="path7144"
         sodipodi:nodetypes="cc" />
      <path
         style="fill:none;fill-opacity:0.75;fill-rule:evenodd;stroke:#000000;stroke-width:1.0103327px;stroke-linecap:butt;stroke-linejoin:miter;stroke-opacity:1"
         d="M 227.74251,67.8347 C 227.74251,67.8347 231.65386,66.03804 233.60954,67.01802 C 235.56521,67.99803 235.72819,67.99803 235.72819,67.99803"
         id="path7148" />
      <path
         style="fill:none;fill-opacity:0.75;fill-rule:evenodd;stroke:#000000;stroke-width:1.0103327px;stroke-linecap:butt;stroke-linejoin:miter;stroke-opacity:1"
         d="M 229.0869,59.12413 C 229.0869,59.12413 235.67679,56.97596 239.85173,60.89852"
         id="path7150"
         sodipodi:nodetypes="cc" />
      <path
         sodipodi:nodetypes="cccc"
         id="path1831"
         d="M 315.20549,-43.154917 L 303.49561,-46.697777 C 303.49561,-46.697777 303.27467,-41.604897 306.80972,-40.940617 C 310.34479,-40.276327 314.98455,-40.940597 315.20549,-43.154917 z "
         style="fill:#ffffff;fill-opacity:1;fill-rule:evenodd;stroke:#000000;stroke-width:1.16331255px;stroke-linecap:butt;stroke-linejoin:miter;stroke-opacity:1" />
      <path
         style="fill:#800000;fill-opacity:0.50196078;fill-rule:evenodd;stroke:none;stroke-width:1px;stroke-linecap:butt;stroke-linejoin:miter;stroke-opacity:1"
         d="M 329.69286,-29.454977 C 329.69286,-29.454977 332.2486,-32.733557 333.88427,-32.836007 C 335.51994,-32.938467 339.60913,-36.012137 337.76899,-40.110367 C 335.92887,-44.208587 329.99955,-49.536287 328.36387,-47.794537 C 326.72821,-46.052797 325.19476,-44.413517 325.19476,-44.413517 L 326.52375,-42.979117 C 326.52375,-42.979117 328.15942,-45.642967 330.10178,-45.233147 C 332.04414,-44.823327 336.33778,-39.802997 335.7244,-38.778447 C 335.11103,-37.753887 329.48841,-33.860567 328.56833,-34.167937 C 327.64827,-34.475307 328.97726,-38.778447 328.97726,-38.778447 L 326.11482,-35.909677 L 324.37692,-37.241597 L 324.78585,-34.065477 L 322.23011,-33.040917 C 322.23011,-33.040917 323.86577,-33.758117 325.19476,-32.733557 C 326.52375,-31.709007 327.0349,-28.635327 327.0349,-28.635327 L 329.69286,-29.454977 z "
         id="path8954" />
      <path
         style="fill:none;fill-opacity:0.75;fill-rule:evenodd;stroke:#000000;stroke-width:1.0103327px;stroke-linecap:butt;stroke-linejoin:miter;stroke-opacity:1"
         d="M 299.25427,-48.974157 L 314.06251,-43.938017 C 316.41938,-42.600987 318.6224,-44.852087 318.0469,-47.158917"
         id="path10474"
         sodipodi:nodetypes="ccc" />
      <path
         style="fill:#800000;fill-opacity:0.50196078;fill-rule:evenodd;stroke:none;stroke-width:0.59935516px;stroke-linecap:butt;stroke-linejoin:miter;stroke-opacity:1"
         d="M 338.45331,-9.7468568 L 343.97087,6.7089332 L 341.55431,4.3455932 C 341.55431,4.3455932 340.19126,3.5946732 343.33319,16.247653 C 346.47512,28.900643 346.55479,17.506503 346.55479,17.506503 C 346.55479,17.506503 349.26587,41.016173 347.882,39.565773 C 346.49813,38.115373 343.41802,51.90082 344.45071,52.81374 C 345.48341,53.72667 345.83313,48.587303 345.83313,48.587303 C 345.83313,48.587303 347.09791,70.51825 345.63146,69.10835 C 344.165,67.69845 343.44328,71.60087 345.34496,79.18456 C 347.24662,86.76823 345.88397,79.94642 348.55193,96.38031 C 351.21989,112.81421 348.99006,113.90777 348.99006,113.90777 C 348.99006,113.90777 349.73188,107.86641 348.11963,101.56017 C 346.50737,95.25392 345.767,106.9721 346.86291,112.82189 C 347.95882,118.67165 351.43814,125.8904 352.43136,133.91962 C 353.42458,141.94883 350.96781,143.86338 350.96781,143.86338 C 350.96781,143.86338 351.99905,139.09948 350.82056,133.2902 C 349.64206,127.48094 349.52833,138.4104 348.75662,137.14117 C 347.67399,139.17585 342.55308,74.78393 342.886,72.58385 L 343.42777,31.968523 L 338.45331,-9.7468568 z "
         id="path10476"
         sodipodi:nodetypes="ccccccccccccccccccccc" />
      <path
         style="fill:#800000;fill-opacity:0.50196078;fill-rule:evenodd;stroke:none;stroke-width:0.59935516px;stroke-linecap:butt;stroke-linejoin:miter;stroke-opacity:1"
         d="M 337.17598,-4.1053468 L 333.56541,13.012813 L 335.69476,10.319613 C 335.69476,10.319613 336.96166,9.3778632 335.27699,22.381083 C 333.59234,35.384313 332.22425,24.095213 332.22425,24.095213 C 332.22425,24.095213 332.19515,47.803733 333.40357,46.165223 C 334.612,44.526703 339.22641,57.7538 338.30548,58.8085 C 337.38454,59.86318 336.45626,54.81656 336.45626,54.81656 C 336.45626,54.81656 337.68297,76.75026 338.97788,75.13998 C 340.27279,73.52971 341.43008,77.29578 340.40199,85.09207 C 339.3739,92.88835 339.95359,85.92558 339.16674,102.61018 C 338.3799,119.29477 340.71514,120.05706 340.71514,120.05706 C 340.71514,120.05706 339.29594,114.17253 340.18151,107.68502 C 341.06709,101.19752 343.12709,112.71249 342.70199,118.67265 C 342.27688,124.63278 339.6428,132.29515 339.5661,140.402 C 339.4894,148.50886 342.1426,150.0526 342.1426,150.0526 C 342.1426,150.0526 340.58087,145.47686 341.09247,139.54495 C 341.60407,133.61304 342.95335,144.43633 343.57513,143.06599 C 344.87906,144.9275 342.67308,80.32404 342.094,78.19014 L 336.96174,37.986553 L 337.17598,-4.1053468 z "
         id="path11237"
         sodipodi:nodetypes="ccccccccccccccccccccc" />
      <path
         style="fill:#800000;fill-opacity:0.50196078;fill-rule:evenodd;stroke:none;stroke-width:1px;stroke-linecap:butt;stroke-linejoin:miter;stroke-opacity:1"
         d="M 304.60956,61.7603 C 304.60956,61.7603 301.55631,59.62593 298.05162,59.72214 C 296.43125,59.76663 295.6503,60.96655 295.20667,62.23348 C 296.12532,61.87298 297.17326,61.73226 298.3946,62.09394 C 296.84081,64.12158 300.59819,69.83366 300.60166,69.96825 C 300.60433,70.07221 294.47909,69.04078 294.86976,74.45617 C 290.41721,72.85898 292.84217,77.99002 293.98303,79.68259 C 295.48825,81.91573 300.09154,79.13316 300.09155,79.13317 C 300.09155,79.13317 300.11684,79.13617 298.09959,78.55057 C 296.08236,77.96495 295.14515,73.71163 295.73537,72.66155 C 296.32561,71.61152 299.35878,76.06767 302.12267,76.79816 C 304.88658,77.5287 306.02315,73.48608 306.02317,73.4861 C 306.02317,73.4861 301.85332,74.04068 300.50456,73.00252 C 299.1558,71.96436 304.466,67.97387 304.46333,67.86989 C 304.45986,67.7353 298.61232,63.89204 300.16614,61.86443 C 301.71996,59.83677 304.60956,61.76032 304.60956,61.7603 z "
         id="path12759"
         sodipodi:nodetypes="cccccccccccccccc" />
      <path
         style="fill:none;fill-opacity:0.75;fill-rule:evenodd;stroke:#000000;stroke-width:1.0103327px;stroke-linecap:butt;stroke-linejoin:miter;stroke-opacity:1"
         d="M 254.5494,229.07255 C 250.98262,229.27727 251.19318,224.94434 247.81551,226.31428"
         id="path13525"
         sodipodi:nodetypes="cc" />
      <path
         style="fill:none;fill-opacity:0.75;fill-rule:evenodd;stroke:#000000;stroke-width:1.0103327px;stroke-linecap:butt;stroke-linejoin:miter;stroke-opacity:1"
         d="M 246.868,232.38577 C 252.55905,234.14075 248.41539,235.81579 253.05578,236.07902"
         id="path13529"
         sodipodi:nodetypes="cc" />
      <path
         style="fill:none;fill-opacity:0.75;fill-rule:evenodd;stroke:#000000;stroke-width:1.0103327px;stroke-linecap:butt;stroke-linejoin:miter;stroke-opacity:1"
         d="M 326.85237,231.00481 C 323.2856,231.20953 323.49615,226.8766 320.11848,228.24654"
         id="path13540"
         sodipodi:nodetypes="cc" />
      <path
         style="fill:none;fill-opacity:0.75;fill-rule:evenodd;stroke:#000000;stroke-width:1.0103327px;stroke-linecap:butt;stroke-linejoin:miter;stroke-opacity:1"
         d="M 319.17098,234.31803 C 324.86202,236.073 320.71836,237.74804 325.35875,238.01127"
         id="path13542"
         sodipodi:nodetypes="cc" />
      <path
         style="fill:#800000;fill-opacity:0.50196078;fill-rule:evenodd;stroke:none;stroke-width:1px;stroke-linecap:butt;stroke-linejoin:miter;stroke-opacity:1"
         d="M 344.4315,157.46065 C 344.4315,157.46065 345.24711,155.47963 339.28655,151.07605 C 341.01714,154.68522 340.93404,154.83846 339.08628,155.44776 C 333.20573,157.59662 338.66922,171.71717 328.63784,174.96773 C 318.60646,178.21833 316.51583,165.36254 310.96505,175.78528 C 305.41427,186.20803 306.15383,186.91208 300.9712,185.41911 C 299.82105,192.0096 311.98289,192.30563 311.9829,192.30568 C 311.9829,192.30568 312.01987,192.3451 309.63466,188.4861 C 307.24945,184.62715 312.63559,174.60865 315.32588,173.21417 C 318.01613,171.81982 321.15007,178.16888 324.77939,179.52365 C 326.56178,174.99354 336.35962,174.0224 336.52481,173.80407 C 336.7386,173.52142 334.39502,158.87361 340.27557,156.72488 C 341.26889,152.54209 344.43147,157.46071 344.4315,157.46065 z "
         id="path15062"
         sodipodi:nodetypes="ccczzcccccccc" />
      <path
         style="fill:#800000;fill-opacity:0.50196078;fill-rule:evenodd;stroke:none;stroke-width:1px;stroke-linecap:butt;stroke-linejoin:miter;stroke-opacity:1"
         d="M 280.342,186.62456 C 280.342,186.62456 278.71966,184.13323 276.37153,183.77268 C 275.28588,183.606 274.53775,184.68239 274.00107,185.86834 C 274.68055,185.63374 275.40402,185.63166 276.1469,186.14523 C 274.72705,187.93372 276.13472,194.02814 276.11134,194.16069 C 276.09328,194.26307 272.21832,192.45551 271.44455,197.82164 C 268.78948,195.67591 269.4223,201.02703 269.85769,202.83648 C 270.43212,205.22379 274.02322,203.09019 274.02322,203.0902 C 274.02322,203.0902 274.03946,203.09643 272.81023,202.25975 C 271.58102,201.42308 271.7697,197.12661 272.36244,196.17254 C 272.9552,195.2185 274.12112,199.98617 275.81903,201.06198 C 277.51695,202.13783 279.04398,198.31739 279.04399,198.31742 C 279.04399,198.31742 276.16621,198.32043 275.46774,197.12635 C 274.76926,195.93226 279.06079,192.70479 279.07886,192.60239 C 279.10224,192.46983 275.94849,187.9384 277.36834,186.14993 C 278.7882,184.36142 280.342,186.62459 280.342,186.62456 z "
         id="path15064"
         sodipodi:nodetypes="cccccccccccccccc" />
      <path
         style="fill:none;fill-opacity:1;fill-rule:evenodd;stroke:#800000;stroke-width:1.0103327px;stroke-linecap:butt;stroke-linejoin:miter;stroke-opacity:0.50196078"
         d="M 297.74189,18.703303 C 297.74189,18.703303 305.38967,28.133163 298.00341,31.094193 C 290.61716,34.055233 285.20058,32.574713 285.20058,32.574713 C 285.20058,32.574713 290.9426,35.029053 293.57166,36.029253 C 296.23603,37.042883 296.52617,41.457813 293.57166,42.444823 C 290.61716,43.431843 282.24607,41.951323 282.24607,41.951323 C 282.24607,41.951323 282.24607,42.444823 283.72332,44.912363 C 285.20058,47.379883 293.72489,47.373743 295.04891,47.379883 C 296.30551,47.386023 287.66265,58.23702 287.66265,58.23702"
         id="path15066"
         sodipodi:nodetypes="ccczccczc" />
      <path
         sodipodi:nodetypes="cccccccccccccc"
         id="path1586"
         d="M 293.55581,139.18364 C 301.34044,143.56166 305.14874,139.74493 301.22842,144.2352 C 297.30811,148.72546 304.30867,144.74034 304.30867,144.74034 C 304.30867,144.74034 305.82079,145.86291 303.91664,147.37837 C 302.01248,148.89385 299.54829,148.55708 299.54829,148.55708 C 299.54829,148.55708 301.73247,151.30736 303.4686,150.63383 C 305.20475,149.96028 305.37275,148.27643 305.37275,148.27643 C 305.37275,148.27643 306.54885,149.73577 305.59678,151.08285 C 304.6447,152.42993 303.80463,152.87896 303.97265,153.5525 C 304.14066,154.22604 305.59678,153.77702 306.21283,154.28216 C 306.82887,154.78733 306.71687,155.96601 306.71687,155.96601 C 306.71687,155.96601 305.79626,155.49131 305.0122,155.43518 C 304.22814,155.37905 303.2779,155.44912 303.61393,156.62783 C 303.94996,157.80652 305.8951,159.10372 305.8951,159.10372"
         style="fill:none;fill-opacity:1;fill-rule:evenodd;stroke:#800000;stroke-width:1.0103327px;stroke-linecap:butt;stroke-linejoin:miter;stroke-opacity:0.50196078" />
      <path
         style="fill:#c80000;fill-opacity:1;fill-rule:evenodd;stroke:none;stroke-width:1px;stroke-linecap:butt;stroke-linejoin:miter;stroke-opacity:1"
         d="M 279.40846,101.83407 L 277.80473,96.88368 L 284.17088,91.99758 L 283.89889,96.75509 L 279.40846,101.83407 z "
         id="path7920"
         sodipodi:nodetypes="ccccc" />
      <path
         style="fill:none;fill-opacity:0.75;fill-rule:evenodd;stroke:#000000;stroke-width:1.0103327px;stroke-linecap:butt;stroke-linejoin:miter;stroke-opacity:1"
         d="M 311.00399,194.59821 C 311.00399,194.59821 345.03762,190.0838 346.87277,151.29327"
         id="path1576"
         sodipodi:nodetypes="cc" />
      <path
         style="fill:#000000;fill-opacity:1;fill-rule:evenodd;stroke:none;stroke-width:1px;stroke-linecap:butt;stroke-linejoin:miter;stroke-opacity:1"
         d="M 272.75105,-44.003727 L 277.14692,-42.569347 L 281.13388,-45.950387 L 281.03164,-52.200177 C 281.03164,-52.200177 275.81794,-52.097717 274.28449,-50.663347 C 272.75106,-49.228967 272.75105,-44.003727 272.75105,-44.003727 z "
         id="path2592"
         sodipodi:nodetypes="cccccc" />
      <path
         style="fill:#0080ff;fill-opacity:1;fill-rule:nonzero;stroke:#000000;stroke-width:0.58285117;stroke-miterlimit:4;stroke-dashoffset:0;stroke-opacity:1"
         d="M 71.459118,-78.537153 L 71.459118,-29.355071 L 221.93835,-29.355071 L 221.93835,-78.537153 L 71.459118,-78.537153 z M 71.459118,19.528603 L 71.459118,68.71067 L 221.93835,68.71067 L 221.93835,19.528603 L 71.459118,19.528603 z M 71.459118,117.59435 L 71.459118,166.80354 L 221.93835,166.80354 L 221.93835,117.59435 L 71.459118,117.59435 z "
         id="rect1787" />
      <path
         style="fill:#ffd42a;fill-opacity:1;fill-rule:nonzero;stroke:#000000;stroke-width:0.58199507;stroke-miterlimit:4;stroke-dashoffset:0;stroke-opacity:1"
         d="M 71.730258,-29.200946 L 71.730258,19.632954 L 221.69774,19.632954 L 221.69774,-29.200946 L 71.730258,-29.200946 z M 71.730258,68.76495 L 71.730258,117.59885 L 221.69774,117.59885 L 221.69774,68.76495 L 71.730258,68.76495 z M 71.730258,166.75794 L 71.730258,215.70024 L 221.69774,215.70024 L 221.69774,166.75794 L 71.730258,166.75794 z "
         id="path1785" />
    </g>
  </g>
</svg>
