<?xml version="1.0" encoding="UTF-8" standalone="no"?>
<!-- Created with Inkscape (http://www.inkscape.org/) -->
<svg
   xmlns:dc="http://purl.org/dc/elements/1.1/"
   xmlns:cc="http://web.resource.org/cc/"
   xmlns:rdf="http://www.w3.org/1999/02/22-rdf-syntax-ns#"
   xmlns:svg="http://www.w3.org/2000/svg"
   xmlns="http://www.w3.org/2000/svg"
   xmlns:sodipodi="http://sodipodi.sourceforge.net/DTD/sodipodi-0.dtd"
   xmlns:inkscape="http://www.inkscape.org/namespaces/inkscape"
   id="svg2"
   sodipodi:version="0.32"
   inkscape:version="0.45.1"
   width="748.50403"
   height="887.37854"
   version="1.0"
   sodipodi:docbase="D:\"
   sodipodi:docname="Volhynia.svg"
   inkscape:output_extension="org.inkscape.output.svg.inkscape">
  <metadata
     id="metadata7">
    <rdf:RDF>
      <cc:Work
         rdf:about="">
        <dc:format>image/svg+xml</dc:format>
        <dc:type
           rdf:resource="http://purl.org/dc/dcmitype/StillImage" />
      </cc:Work>
    </rdf:RDF>
  </metadata>
  <defs
     id="defs5" />
  <sodipodi:namedview
     inkscape:window-height="582"
     inkscape:window-width="827"
     inkscape:pageshadow="2"
     inkscape:pageopacity="0.0"
     guidetolerance="10.0"
     gridtolerance="10.0"
     objecttolerance="10.0"
     borderopacity="1.0"
     bordercolor="#666666"
     pagecolor="#ffffff"
     id="base"
     inkscape:zoom="0.36204266"
     inkscape:cx="609.83943"
     inkscape:cy="-284.14357"
     inkscape:window-x="88"
     inkscape:window-y="88"
     inkscape:current-layer="svg2" />
  <g
     id="g2449"
     transform="matrix(3.375,0,0,3.375,-1463.4603,-1757.0866)">
    <path
       style="fill:#fefefe"
       d="M 523.89685,781.74357 C 489.99394,774.3431 458.87265,748.2243 442.37875,713.32881 C 433.42212,694.37962 433.89685,700.44901 433.89685,604.88912 L 433.89685,520.61902 L 544.42384,520.61902 L 654.95083,520.61902 L 654.67384,605.86902 L 654.39685,691.11902 L 652.05674,698.11902 C 638.8231,737.70492 605.16623,770.88096 568.22542,780.75269 C 556.89589,783.78029 535.42604,784.26021 523.89685,781.74357 z "
       id="path2511" />
    <path
       style="fill:#e2dfdb"
       d="M 523.89685,781.74357 C 489.99394,774.3431 458.87265,748.2243 442.37875,713.32881 C 433.42212,694.37962 433.89685,700.44901 433.89685,604.88912 L 433.89685,520.61902 L 544.42384,520.61902 L 654.95083,520.61902 L 654.67384,605.86902 L 654.39685,691.11902 L 652.05674,698.11902 C 638.8231,737.70492 605.16623,770.88096 568.22542,780.75269 C 556.89589,783.78029 535.42604,784.26021 523.89685,781.74357 z M 556.53325,781.53677 C 560.81286,780.94153 567.82042,779.34695 572.10561,777.99326 L 579.89685,775.53201 L 579.89685,722.07551 L 579.89685,668.61902 L 616.89685,668.61902 L 653.89685,668.61902 L 653.89685,632.11902 L 653.89685,595.61902 L 616.89685,595.61902 L 579.89685,595.61902 L 579.89685,558.61902 L 579.89685,521.61902 L 543.89685,521.61902 L 507.89685,521.61902 L 507.89685,558.61902 L 507.89685,595.61902 L 471.39685,595.61902 L 434.89685,595.61902 L 434.89685,632.11902 L 434.89685,668.61902 L 471.39685,668.61902 L 507.89685,668.61902 L 507.89685,722.08671 L 507.89685,775.55441 L 516.14685,778.10836 C 530.13156,782.4376 542.5047,783.48796 556.53325,781.53677 z "
       id="path2509" />
    <path
       style="fill:#d7d3d0"
       d="M 526.39685,782.21203 C 487.15166,774.59289 451.82229,742.05572 436.71605,699.61902 L 434.40224,693.11902 L 434.12284,606.86902 L 433.84345,520.61902 L 544.40226,520.61902 L 654.96106,520.61902 L 654.67591,605.86902 L 654.39076,691.11902 L 651.6519,698.87512 C 642.07302,726.00128 623.19945,750.52585 599.57506,766.54445 C 592.30188,771.47606 577.38183,778.2185 568.39685,780.63403 C 558.13532,783.39274 536.63869,784.2004 526.39685,782.21203 z M 559.97063,781.00534 C 565.15505,780.11781 571.75935,778.51048 574.64685,777.43349 L 579.89685,775.47532 L 579.89685,722.04717 L 579.89685,668.61902 L 616.89685,668.61902 L 653.89685,668.61902 L 653.89685,632.11902 L 653.89685,595.61902 L 616.89685,595.61902 L 579.89685,595.61902 L 579.89685,558.61902 L 579.89685,521.61902 L 543.89685,521.61902 L 507.89685,521.61902 L 507.89685,558.61902 L 507.89685,595.61902 L 471.39685,595.61902 L 434.89685,595.61902 L 434.89685,632.11902 L 434.89685,668.61902 L 471.39685,668.61902 L 507.89685,668.61902 L 507.89685,722.03631 L 507.89685,775.4536 L 512.14685,776.97483 C 528.06167,782.67132 542.92273,783.92378 559.97063,781.00534 z "
       id="path2507" />
    <path
       style="fill:#cccccc"
       d="M 530.89685,783.01924 C 517.01362,780.46946 505.81291,776.54037 494.68123,770.31518 C 470.05405,756.54288 448.62749,731.06513 438.12874,703.07015 L 434.39685,693.11902 L 434.12015,606.86902 L 433.84345,520.61902 L 544.37015,520.61902 L 654.89685,520.61902 L 654.88207,602.86902 C 654.86948,672.90427 654.64157,686.08432 653.34738,691.61902 C 645.69212,724.3573 618.61108,757.90122 587.56243,773.10352 C 572.96093,780.25283 562.8562,782.7476 546.89685,783.1435 C 539.47185,783.32768 532.27185,783.27177 530.89685,783.01924 z M 565.52874,780.18089 C 568.90129,779.36494 573.50987,777.95742 575.77003,777.05309 L 579.87943,775.40883 L 580.13814,722.26393 L 580.39685,669.11902 L 617.14685,668.8567 L 653.89685,668.59438 L 653.89685,632.1067 L 653.89685,595.61902 L 616.89685,595.61902 L 579.89685,595.61902 L 579.89685,558.61902 L 579.89685,521.61902 L 543.89685,521.61902 L 507.89685,521.61902 L 507.89685,558.61902 L 507.89685,595.61902 L 471.39685,595.61902 L 434.89685,595.61902 L 434.89685,632.11902 L 434.89685,668.61902 L 471.38816,668.61902 L 507.87948,668.61902 L 508.13816,722.32601 L 508.39685,776.03301 L 515.66024,778.30768 C 519.6551,779.55875 525.7301,781.01673 529.16024,781.54765 C 537.36771,782.818 557.80317,782.05002 565.52874,780.18089 z "
       id="path2505" />
    <path
       style="fill:#cbc8c4"
       d="M 530.89685,783.01924 C 517.01362,780.46946 505.81291,776.54037 494.68123,770.31518 C 470.05405,756.54288 448.62749,731.06513 438.12874,703.07015 L 434.39685,693.11902 L 434.12015,606.86902 L 433.84345,520.61902 L 544.37015,520.61902 L 654.89685,520.61902 L 654.88207,602.86902 C 654.86948,672.90427 654.64157,686.08432 653.34738,691.61902 C 645.69212,724.3573 618.61108,757.90122 587.56243,773.10352 C 572.96093,780.25283 562.8562,782.7476 546.89685,783.1435 C 539.47185,783.32768 532.27185,783.27177 530.89685,783.01924 z M 560.54465,781.12209 C 564.8477,780.29878 571.18729,778.68709 574.63262,777.54056 L 580.89685,775.45596 L 580.89685,722.03749 L 580.89685,668.61902 L 617.39685,668.61902 L 653.89685,668.61902 L 653.89685,632.11902 L 653.89685,595.61902 L 617.39685,595.61902 L 580.89685,595.61902 L 580.89685,558.61902 L 580.89685,521.61902 L 544.39685,521.61902 L 507.89685,521.61902 L 507.89685,558.61902 L 507.89685,595.61902 L 471.39685,595.61902 L 434.89685,595.61902 L 434.89685,632.11902 L 434.89685,668.61902 L 471.38816,668.61902 L 507.87948,668.61902 L 508.13816,722.26852 L 508.39685,775.91801 L 512.39685,777.35523 C 526.20487,782.3165 546.14751,783.87672 560.54465,781.12209 z "
       id="path2503" />
    <path
       style="fill:#c0bcb9"
       d="M 524.89685,781.72246 C 502.0224,776.66289 484.39884,766.31912 466.21028,747.27763 C 451.75606,732.14561 441.63873,715.11088 436.42966,697.13549 L 433.89685,688.39529 L 433.89685,604.50715 L 433.89685,520.61902 L 544.42399,520.61902 L 654.95112,520.61902 L 654.67399,605.36902 L 654.39685,690.11902 L 651.55096,698.61902 C 645.1157,717.8396 633.07008,736.43324 617.0626,751.85532 C 601.94196,766.423 585.70073,775.8214 567.07228,780.78351 C 555.86271,783.76943 536.13671,784.20859 524.89685,781.72246 z M 560.54465,781.12209 C 564.8477,780.29878 571.18729,778.68709 574.63262,777.54056 L 580.89685,775.45596 L 580.89685,722.03749 L 580.89685,668.61902 L 617.39685,668.61902 L 653.89685,668.61902 L 653.89685,632.11902 L 653.89685,595.61902 L 617.39685,595.61902 L 580.89685,595.61902 L 580.89685,558.61902 L 580.89685,521.61902 L 544.39685,521.61902 L 507.89685,521.61902 L 507.89685,558.61902 L 507.89685,595.61902 L 471.39685,595.61902 L 434.89685,595.61902 L 434.89685,632.11902 L 434.89685,668.61902 L 471.38816,668.61902 L 507.87948,668.61902 L 508.13816,722.26852 L 508.39685,775.91801 L 512.39685,777.35523 C 526.20487,782.3165 546.14751,783.87672 560.54465,781.12209 z "
       id="path2501" />
    <path
       style="fill:#a7a6a6"
       d="M 539.14685,782.88398 C 541.75935,782.67798 546.03435,782.67798 548.64685,782.88398 C 551.25935,783.08998 549.12185,783.25852 543.89685,783.25852 C 538.67185,783.25852 536.53435,783.08998 539.14685,782.88398 z M 520.2468,780.63451 C 502.34369,775.9412 485.46541,766.09293 470.48075,751.59663 C 458.95731,740.44876 450.32356,728.5584 443.26775,714.11902 C 433.42435,693.97498 433.89685,699.5295 433.89685,603.95906 L 433.89685,520.61902 L 544.39685,520.61902 L 654.89685,520.61902 L 654.89685,602.05364 C 654.89685,691.1326 654.97933,689.70438 648.93061,705.36154 C 637.95876,733.76221 611.25403,762.51632 584.64833,774.57697 C 576.70788,778.17647 564.32903,781.9565 562.66893,781.28866 C 561.86236,780.96418 562.01836,780.74802 563.09523,780.69797 C 564.02934,780.65455 568.41684,779.47444 572.84523,778.07551 L 580.89685,775.53201 L 580.89685,722.07551 L 580.89685,668.61902 L 617.39685,668.61902 L 653.89685,668.61902 L 653.89685,632.11902 L 653.89685,595.61902 L 617.39685,595.61902 L 580.89685,595.61902 L 580.89685,558.61902 L 580.89685,521.61902 L 544.39685,521.61902 L 507.89685,521.61902 L 507.89685,558.61902 L 507.89685,595.61902 L 471.39685,595.61902 L 434.89685,595.61902 L 434.89685,632.10655 L 434.89685,668.59407 L 471.14685,668.85655 L 507.39685,669.11902 L 507.89685,722.51864 L 508.39685,775.91825 L 512.39685,777.35535 C 514.59685,778.14575 520.22185,779.62176 524.89685,780.63537 C 529.57185,781.64898 532.04685,782.48518 530.39685,782.4936 C 528.74685,782.50201 524.17933,781.66542 520.2468,780.63451 z M 556.14685,781.92969 C 557.10935,781.67817 558.68435,781.67817 559.64685,781.92969 C 560.60935,782.18122 559.82185,782.38702 557.89685,782.38702 C 555.97185,782.38702 555.18435,782.18122 556.14685,781.92969 z "
       id="path2499" />
    <path
       style="fill:#9a9999"
       d="M 539.14685,782.88398 C 541.75935,782.67798 546.03435,782.67798 548.64685,782.88398 C 551.25935,783.08998 549.12185,783.25852 543.89685,783.25852 C 538.67185,783.25852 536.53435,783.08998 539.14685,782.88398 z M 529.16588,781.92603 C 530.13885,781.67249 531.48885,781.68916 532.16588,781.96308 C 532.84291,782.23701 532.04685,782.44445 530.39685,782.42407 C 528.74685,782.40369 528.19291,782.17957 529.16588,781.92603 z M 556.16588,781.92603 C 557.13885,781.67249 558.48885,781.68916 559.16588,781.96308 C 559.84291,782.23701 559.04685,782.44445 557.39685,782.42407 C 555.74685,782.40369 555.19291,782.17957 556.16588,781.92603 z M 523.70935,780.93591 C 524.43122,780.64704 525.29372,780.68256 525.62602,781.01485 C 525.95831,781.34714 525.36768,781.58349 524.31352,781.54007 C 523.14857,781.49209 522.91162,781.25513 523.70935,780.93591 z M 562.70935,780.93591 C 563.43123,780.64704 564.29372,780.68256 564.62602,781.01485 C 564.95831,781.34714 564.36768,781.58349 563.31352,781.54007 C 562.14857,781.49209 561.91162,781.25513 562.70935,780.93591 z M 515.70935,778.93591 C 516.43122,778.64704 517.29372,778.68256 517.62602,779.01485 C 517.95831,779.34714 517.36768,779.58349 516.31352,779.54007 C 515.14857,779.49209 514.91162,779.25513 515.70935,778.93591 z M 570.70935,778.93591 C 571.43123,778.64704 572.29372,778.68256 572.62602,779.01485 C 572.95831,779.34714 572.36768,779.58349 571.31352,779.54007 C 570.14857,779.49209 569.91162,779.25513 570.70935,778.93591 z M 499.48092,772.56516 C 476.27016,760.81484 456.30367,740.17902 443.89811,715.11902 C 433.33982,693.79064 433.89685,699.98336 433.89685,603.93068 L 433.89685,520.61902 L 544.4293,520.61902 L 654.96176,520.61902 L 654.63876,604.86902 C 654.34242,682.16788 654.16908,689.6052 652.53789,695.01163 C 642.88558,727.00327 616.85501,758.40241 588.22407,772.5896 C 583.55714,774.90215 579.47431,776.52982 579.15113,776.20663 C 578.82794,775.88345 579.08852,775.61902 579.73018,775.61902 C 580.60453,775.61902 580.89685,762.21426 580.89685,722.11902 L 580.89685,668.61902 L 617.39685,668.61902 L 653.89685,668.61902 L 653.89685,632.11902 L 653.89685,595.61902 L 617.39685,595.61902 L 580.89685,595.61902 L 580.89685,558.61902 L 580.89685,521.61902 L 544.39685,521.61902 L 507.89685,521.61902 L 507.89685,558.61902 L 507.89685,595.61902 L 471.39685,595.61902 L 434.89685,595.61902 L 434.89685,632.10655 L 434.89685,668.59407 L 471.14685,668.85655 L 507.39685,669.11902 L 507.89685,722.86932 C 508.17185,752.43198 508.17185,776.60903 507.89685,776.59608 C 507.62185,776.58314 503.83468,774.76923 499.48092,772.56516 z "
       id="path2497" />
    <path
       style="fill:#969493"
       d="M 539.64685,782.88681 C 541.98435,782.67628 545.80935,782.67628 548.14685,782.88681 C 550.48435,783.09735 548.57185,783.26961 543.89685,783.26961 C 539.22185,783.26961 537.30935,783.09735 539.64685,782.88681 z M 528.70935,781.93591 C 529.43123,781.64704 530.29372,781.68256 530.62602,782.01485 C 530.95831,782.34714 530.36768,782.58349 529.31352,782.54007 C 528.14857,782.49209 527.91162,782.25513 528.70935,781.93591 z M 557.70935,781.93591 C 558.43123,781.64704 559.29372,781.68256 559.62602,782.01485 C 559.95831,782.34714 559.36768,782.58349 558.31352,782.54007 C 557.14857,782.49209 556.91162,782.25513 557.70935,781.93591 z M 523.70935,780.93591 C 524.43122,780.64704 525.29372,780.68256 525.62602,781.01485 C 525.95831,781.34714 525.36768,781.58349 524.31352,781.54007 C 523.14857,781.49209 522.91162,781.25513 523.70935,780.93591 z M 562.70935,780.93591 C 563.43123,780.64704 564.29372,780.68256 564.62602,781.01485 C 564.95831,781.34714 564.36768,781.58349 563.31352,781.54007 C 562.14857,781.49209 561.91162,781.25513 562.70935,780.93591 z M 499.48092,772.56516 C 487.71041,766.60641 479.53285,760.45972 468.39685,749.20073 C 453.63733,734.27821 443.52672,718.17566 437.26505,699.61902 L 434.39685,691.11902 L 434.11986,605.86902 L 433.84287,520.61902 L 470.61986,520.61863 L 507.39685,520.61824 L 507.12323,558.11863 L 506.84961,595.61902 L 470.87323,595.61902 L 434.89685,595.61902 L 434.89685,632.11902 L 434.89685,668.61902 L 470.89685,668.61902 L 506.89685,668.61902 L 506.89685,722.03569 C 506.89685,763.83335 507.16875,775.56207 508.14685,775.95674 C 508.83435,776.23415 508.94685,776.4862 508.39685,776.51684 C 507.84685,776.54748 503.83468,774.76923 499.48092,772.56516 z M 579.64685,775.95674 C 580.62495,775.56207 580.89685,763.83335 580.89685,722.03569 L 580.89685,668.61902 L 617.39685,668.61902 L 653.89685,668.61902 L 653.89685,632.11902 L 653.89685,595.61902 L 617.42047,595.61902 L 580.94409,595.61902 L 580.67047,558.11863 L 580.39685,520.61824 L 617.64685,520.61863 L 654.89685,520.61902 L 654.89685,601.66118 C 654.89685,691.22723 654.97091,690.02443 648.46251,706.16498 C 637.27524,733.90896 613.80076,759.77374 588.16085,772.60693 C 583.75209,774.81358 579.75161,776.58349 579.27089,776.54007 C 578.79017,776.49665 578.95935,776.23415 579.64685,775.95674 z "
       id="path2495" />
    <path
       style="fill:#928f8d"
       d="M 536.70935,782.93591 C 537.43123,782.64704 538.29372,782.68256 538.62602,783.01485 C 538.95831,783.34714 538.36768,783.58349 537.31352,783.54007 C 536.14857,783.49209 535.91162,783.25513 536.70935,782.93591 z M 549.70935,782.93591 C 550.43123,782.64704 551.29372,782.68256 551.62602,783.01485 C 551.95831,783.34714 551.36768,783.58349 550.31352,783.54007 C 549.14857,783.49209 548.91162,783.25513 549.70935,782.93591 z M 528.70935,781.93591 C 529.43123,781.64704 530.29372,781.68256 530.62602,782.01485 C 530.95831,782.34714 530.36768,782.58349 529.31352,782.54007 C 528.14857,782.49209 527.91162,782.25513 528.70935,781.93591 z M 557.70935,781.93591 C 558.43123,781.64704 559.29372,781.68256 559.62602,782.01485 C 559.95831,782.34714 559.36768,782.58349 558.31352,782.54007 C 557.14857,782.49209 556.91162,782.25513 557.70935,781.93591 z M 562.70935,780.93591 C 563.43123,780.64704 564.29372,780.68256 564.62602,781.01485 C 564.95831,781.34714 564.36768,781.58349 563.31352,781.54007 C 562.14857,781.49209 561.91162,781.25513 562.70935,780.93591 z M 499.48092,772.56516 C 487.71041,766.60641 479.53285,760.45972 468.39685,749.20073 C 453.63733,734.27821 443.52672,718.17566 437.26505,699.61902 L 434.39685,691.11902 L 434.11986,605.86902 L 433.84287,520.61902 L 470.61986,520.61863 L 507.39685,520.61824 L 507.12323,558.11863 L 506.84961,595.61902 L 470.87323,595.61902 L 434.89685,595.61902 L 434.89685,632.11902 L 434.89685,668.61902 L 470.89685,668.61902 L 506.89685,668.61902 L 506.89685,722.03569 C 506.89685,763.83335 507.16875,775.56207 508.14685,775.95674 C 508.83435,776.23415 508.94685,776.4862 508.39685,776.51684 C 507.84685,776.54748 503.83468,774.76923 499.48092,772.56516 z M 579.64685,775.95674 C 580.62495,775.56207 580.89685,763.83335 580.89685,722.03569 L 580.89685,668.61902 L 617.89685,668.61902 L 654.89685,668.61902 L 654.89685,675.66118 C 654.89685,710.66026 624.91842,754.20918 588.16085,772.60693 C 583.75209,774.81358 579.75161,776.58349 579.27089,776.54007 C 578.79017,776.49665 578.95935,776.23415 579.64685,775.95674 z M 580.67047,558.11863 L 580.39685,520.61824 L 617.64685,520.61863 L 654.89685,520.61902 L 654.89685,558.11902 L 654.89685,595.61902 L 617.92047,595.61902 L 580.94409,595.61902 L 580.67047,558.11863 z "
       id="path2493" />
    <path
       style="fill:#8e8c8c"
       d="M 562.70935,780.93591 C 563.43123,780.64704 564.29372,780.68256 564.62602,781.01485 C 564.95831,781.34714 564.36768,781.58349 563.31352,781.54007 C 562.14857,781.49209 561.91162,781.25513 562.70935,780.93591 z M 497.9275,771.55436 C 492.71936,768.78991 485.96936,764.66202 482.9275,762.38127 C 460.42133,745.5064 442.28282,719.08792 435.80016,693.74098 C 434.00429,686.71916 433.89685,681.62307 433.89685,603.45906 L 433.89685,520.61902 L 470.64685,520.61863 L 507.39685,520.61824 L 507.12323,558.11863 L 506.84961,595.61902 L 470.87323,595.61902 L 434.89685,595.61902 L 434.89685,632.11902 L 434.89685,668.61902 L 470.89685,668.61902 L 506.89685,668.61902 L 506.89685,722.03569 C 506.89685,763.83335 507.16875,775.56207 508.14685,775.95674 C 508.83435,776.23415 508.94685,776.48802 508.39685,776.52088 C 507.84685,776.55375 503.13564,774.31881 497.9275,771.55436 z M 579.64685,775.95674 C 580.62495,775.56207 580.89685,763.83335 580.89685,722.03569 L 580.89685,668.61902 L 618.04882,668.61902 L 655.20078,668.61902 L 654.56213,678.86902 C 654.21086,684.50652 653.02043,692.26902 651.91672,696.11902 C 649.26868,705.35601 642.09551,720.08108 635.1104,730.61902 C 628.28511,740.91585 611.04252,758.37009 601.39685,764.74639 C 594.36947,769.39187 580.62063,776.68767 579.17181,776.54007 C 578.74558,776.49665 578.95935,776.23415 579.64685,775.95674 z M 580.67047,558.11863 L 580.39685,520.61824 L 617.64685,520.61863 L 654.89685,520.61902 L 654.89685,558.11902 L 654.89685,595.61902 L 617.92047,595.61902 L 580.94409,595.61902 L 580.67047,558.11863 z "
       id="path2491" />
    <path
       style="fill:#878482"
       d="M 497.9275,771.55436 C 482.11012,763.1586 469.86488,752.79714 458.41336,738.11902 C 442.5721,717.81429 433.89685,696.34955 433.89685,677.45906 L 433.89685,668.61902 L 470.39685,668.61902 L 506.89685,668.61902 L 506.89685,722.03569 C 506.89685,763.83335 507.16875,775.56207 508.14685,775.95674 C 508.83435,776.23415 508.94685,776.48802 508.39685,776.52088 C 507.84685,776.55375 503.13564,774.31881 497.9275,771.55436 z M 580.66385,722.50595 L 580.93086,668.61902 L 618.06582,668.61902 L 655.20078,668.61902 L 654.56213,678.86902 C 653.78856,691.28427 651.38954,700.05182 645.32731,712.61902 C 638.29967,727.18755 630.55839,738.04085 618.9365,749.61902 C 608.00216,760.51222 599.36612,766.88235 587.39685,772.88333 L 580.39685,776.39288 L 580.66385,722.50595 z M 433.89685,558.11902 L 433.89685,520.61902 L 470.64685,520.61863 L 507.39685,520.61824 L 507.12323,558.11863 L 506.84961,595.61902 L 470.37323,595.61902 L 433.89685,595.61902 L 433.89685,558.11902 z M 580.67047,558.11863 L 580.39685,520.61824 L 617.64685,520.61863 L 654.89685,520.61902 L 654.89685,558.11902 L 654.89685,595.61902 L 617.92047,595.61902 L 580.94409,595.61902 L 580.67047,558.11863 z "
       id="path2489" />
    <path
       style="fill:#867977"
       d="M 498.39685,771.82622 C 480.74286,762.39349 464.03761,747.24969 453.01873,730.68961 C 440.17894,711.39292 434.91006,697.21977 434.12616,679.86902 L 433.61788,668.61902 L 470.25737,668.61902 L 506.89685,668.61902 L 506.89685,722.11902 C 506.89685,751.54402 506.55935,775.60718 506.14685,775.59271 C 505.73435,775.57824 502.24685,773.88332 498.39685,771.82622 z M 580.89685,722.11902 L 580.89685,668.61902 L 617.89685,668.61902 L 654.89685,668.61902 L 654.8893,674.36902 C 654.87145,687.95074 651.41482,700.67626 643.54875,716.11902 C 634.15408,734.56274 619.10891,752.06488 602.68154,763.66008 C 596.4114,768.08584 583.01946,775.61902 581.42181,775.61902 C 581.13308,775.61902 580.89685,751.54402 580.89685,722.11902 z M 433.89685,558.11902 L 433.89685,520.61902 L 470.64685,520.61863 L 507.39685,520.61824 L 507.12323,558.11863 L 506.84961,595.61902 L 470.37323,595.61902 L 433.89685,595.61902 L 433.89685,558.11902 z M 580.67047,558.11863 L 580.39685,520.61824 L 617.64685,520.61863 L 654.89685,520.61902 L 654.89685,558.11902 L 654.89685,595.61902 L 617.92047,595.61902 L 580.94409,595.61902 L 580.67047,558.11863 z "
       id="path2487" />
    <path
       style="fill:#966667"
       d="M 498.39685,771.83237 C 474.64932,759.16463 454.86812,738.22987 442.91876,713.11902 C 436.96008,700.59724 434.84081,692.52117 434.19348,679.86902 L 433.61788,668.61902 L 470.25737,668.61902 L 506.89685,668.61902 L 506.89685,722.11902 C 506.89685,751.54402 506.55935,775.60718 506.14685,775.59271 C 505.73435,775.57824 502.24685,773.88609 498.39685,771.83237 z M 580.89685,722.11902 L 580.89685,668.61902 L 618.04791,668.61902 L 655.19897,668.61902 L 654.58013,678.36902 C 653.82726,690.23072 651.14834,700.19878 645.50383,712.14118 C 635.34787,733.62872 619.34815,752.42028 600.08177,765.4891 C 594.91418,768.99439 582.71351,775.61902 581.42537,775.61902 C 581.13468,775.61902 580.89685,751.54402 580.89685,722.11902 z M 433.89685,558.11902 L 433.89685,520.61902 L 470.64685,520.61863 L 507.39685,520.61824 L 507.12323,558.11863 L 506.84961,595.61902 L 470.37323,595.61902 L 433.89685,595.61902 L 433.89685,558.11902 z M 580.89685,558.11902 L 580.89685,520.61902 L 617.89685,520.61902 L 654.89685,520.61902 L 654.89685,558.11902 L 654.89685,595.61902 L 617.89685,595.61902 L 580.89685,595.61902 L 580.89685,558.11902 z "
       id="path2485" />
    <path
       style="fill:#866d6d"
       d="M 498.39685,771.83237 C 474.64932,759.16463 454.86812,738.22987 442.91876,713.11902 C 436.99995,700.68102 434.84012,692.50231 434.2041,680.11902 L 433.63914,669.11902 L 470.26799,669.39321 L 506.89685,669.6674 L 506.89685,722.64321 C 506.89685,751.77991 506.55935,775.60718 506.14685,775.59271 C 505.73435,775.57824 502.24685,773.88609 498.39685,771.83237 z M 580.89685,722.36902 L 580.89685,669.11902 L 618.03268,669.11902 L 655.16851,669.11902 L 654.5649,678.61902 C 653.82652,690.24021 651.1165,700.26614 645.50383,712.14118 C 635.34787,733.62872 619.34815,752.42028 600.08177,765.4891 C 594.91418,768.99439 582.71351,775.61902 581.42537,775.61902 C 581.13468,775.61902 580.89685,751.65652 580.89685,722.36902 z M 433.89685,558.11902 L 433.89685,520.61902 L 470.64685,520.61863 L 507.39685,520.61824 L 507.12323,558.11863 L 506.84961,595.61902 L 470.37323,595.61902 L 433.89685,595.61902 L 433.89685,558.11902 z M 580.89685,558.11902 L 580.89685,520.61902 L 617.89685,520.61902 L 654.89685,520.61902 L 654.89685,558.11902 L 654.89685,595.61902 L 617.89685,595.61902 L 580.89685,595.61902 L 580.89685,558.11902 z "
       id="path2483" />
    <path
       style="fill:#ed3237"
       d="M 497.89685,771.50828 C 482.79519,763.28773 470.58929,753.12506 459.97166,739.93166 C 443.38612,719.32256 433.92142,696.51691 433.90345,677.11902 L 433.89604,669.11902 L 470.39644,669.39321 L 506.89685,669.6674 L 506.89685,722.64321 C 506.89685,751.77991 506.55935,775.61269 506.14685,775.60495 C 505.73435,775.59722 502.02185,773.75371 497.89685,771.50828 z M 580.89685,722.64292 L 580.89685,669.66683 L 618.03118,669.39292 L 655.16552,669.11902 L 654.53975,678.61902 C 653.76743,690.34398 651.06158,700.38233 645.50383,712.14118 C 635.34787,733.62872 619.34815,752.42028 600.08177,765.4891 C 594.91418,768.99439 582.71351,775.61902 581.42537,775.61902 C 581.13468,775.61902 580.89685,751.77978 580.89685,722.64292 z M 433.89685,558.11902 L 433.89685,520.61902 L 470.64685,520.61863 L 507.39685,520.61824 L 507.12323,558.11863 L 506.84961,595.61902 L 470.37323,595.61902 L 433.89685,595.61902 L 433.89685,558.11902 z M 580.89685,558.11902 L 580.89685,520.61902 L 617.89685,520.61902 L 654.89685,520.61902 L 654.89685,558.11902 L 654.89685,595.61902 L 617.89685,595.61902 L 580.89685,595.61902 L 580.89685,558.11902 z "
       id="path2481" />
    <path
       style="fill:#926161"
       d="M 498.04881,771.58554 C 479.35833,761.39754 465.19207,748.48169 452.6462,730.19048 C 448.33189,723.90045 439.88395,707.96839 439.91581,706.18211 C 439.92624,705.59741 441.83982,708.94402 444.16821,713.61902 C 450.4768,726.28554 457.3207,735.91746 467.75695,746.81718 C 478.51234,758.0502 486.96335,764.61579 498.94921,771.05045 C 503.59541,773.54478 506.94685,775.58679 506.39685,775.58825 C 505.84685,775.5897 502.09023,773.78848 498.04881,771.58554 z M 581.13782,722.36902 L 581.37879,669.11902 L 581.6467,721.95109 L 581.91462,774.78317 L 589.65573,770.60892 C 600.87439,764.55947 609.20986,758.04936 619.97305,746.93072 C 633.44065,733.01836 642.6499,718.64323 649.00144,701.61902 C 650.54043,697.49402 651.82149,694.67125 651.84823,695.34619 C 651.92281,697.22862 647.54337,708.39531 643.89959,715.61358 C 631.77773,739.62686 610.72355,761.11341 588.17537,772.48216 C 584.75355,774.20743 581.71605,775.61902 581.42537,775.61902 C 581.13468,775.61902 581.00529,751.65652 581.13782,722.36902 z M 438.01247,701.52084 C 437.39888,699.76069 436.92856,697.82522 436.96731,697.2198 C 437.00607,696.61437 437.68286,697.87973 438.47129,700.03171 C 439.25972,702.18369 439.73004,704.11916 439.51645,704.33276 C 439.30285,704.54635 438.62606,703.28099 438.01247,701.52084 z M 435.9758,694.03569 C 436.02378,692.87074 436.26074,692.63379 436.57996,693.43152 C 436.86883,694.1534 436.83331,695.01589 436.50102,695.34819 C 436.16872,695.68048 435.93238,695.08985 435.9758,694.03569 z M 651.9758,692.03569 C 652.02378,690.87074 652.26074,690.63379 652.57996,691.43152 C 652.86883,692.1534 652.83331,693.01589 652.50102,693.34819 C 652.16872,693.68048 651.93238,693.08985 651.9758,692.03569 z M 435.05474,689.61902 C 435.05474,688.24402 435.28172,687.68152 435.55913,688.36902 C 435.83654,689.05652 435.83654,690.18152 435.55913,690.86902 C 435.28172,691.55652 435.05474,690.99402 435.05474,689.61902 z M 653.0918,687.11902 C 653.11218,685.46902 653.3363,684.91508 653.58984,685.88805 C 653.84338,686.86102 653.82671,688.21102 653.55279,688.88805 C 653.27886,689.56508 653.07142,688.76902 653.0918,687.11902 z M 434.25735,677.61902 C 434.25735,672.39402 434.42589,670.25652 434.63189,672.86902 C 434.83789,675.48152 434.83789,679.75652 434.63189,682.36902 C 434.42589,684.98152 434.25735,682.84402 434.25735,677.61902 z M 654.22499,675.11902 C 654.22943,671.26902 654.41017,669.81656 654.62665,671.89132 C 654.84312,673.96609 654.83949,677.11609 654.61858,678.89132 C 654.39767,680.66656 654.22055,678.96902 654.22499,675.11902 z M 433.89685,558.11902 L 433.89685,520.61902 L 471.14685,520.85631 L 508.39685,521.09361 L 471.64685,521.36864 L 434.89685,521.64366 L 434.89685,558.11887 L 434.89685,594.59407 L 471.14685,594.86942 L 507.39685,595.14476 L 470.64685,595.38189 L 433.89685,595.61902 L 433.89685,558.11902 z M 580.89685,558.11902 L 580.89685,520.61902 L 617.89685,520.61902 L 654.89685,520.61902 L 654.89685,558.11902 L 654.89685,595.61902 L 617.89685,595.61902 L 580.89685,595.61902 L 580.89685,558.11902 z M 653.89685,558.11902 L 653.89685,521.61902 L 617.89685,521.61902 L 581.89685,521.61902 L 581.89685,558.11902 L 581.89685,594.61902 L 617.89685,594.61902 L 653.89685,594.61902 L 653.89685,558.11902 z "
       id="path2479" />
    <path
       style="fill:#e23237"
       d="M 498.04881,771.58554 C 479.35833,761.39754 465.19207,748.48169 452.6462,730.19048 C 448.33189,723.90045 439.88395,707.96839 439.91581,706.18211 C 439.92624,705.59741 441.83982,708.94402 444.16821,713.61902 C 450.4768,726.28554 457.3207,735.91746 467.75695,746.81718 C 478.51234,758.0502 486.96335,764.61579 498.94921,771.05045 C 503.59541,773.54478 506.94685,775.58679 506.39685,775.58825 C 505.84685,775.5897 502.09023,773.78848 498.04881,771.58554 z M 581.13782,722.36902 L 581.37879,669.11902 L 581.6467,721.95109 L 581.91462,774.78317 L 589.65573,770.60892 C 600.87439,764.55947 609.20986,758.04936 619.97305,746.93072 C 633.44065,733.01836 642.6499,718.64323 649.00144,701.61902 C 650.54043,697.49402 651.82149,694.67125 651.84823,695.34619 C 651.92281,697.22862 647.54337,708.39531 643.89959,715.61358 C 631.77773,739.62686 610.72355,761.11341 588.17537,772.48216 C 584.75355,774.20743 581.71605,775.61902 581.42537,775.61902 C 581.13468,775.61902 581.00529,751.65652 581.13782,722.36902 z M 438.01247,701.52084 C 437.39888,699.76069 436.92856,697.82522 436.96731,697.2198 C 437.00607,696.61437 437.68286,697.87973 438.47129,700.03171 C 439.25972,702.18369 439.73004,704.11916 439.51645,704.33276 C 439.30285,704.54635 438.62606,703.28099 438.01247,701.52084 z M 435.9758,694.03569 C 436.02378,692.87074 436.26074,692.63379 436.57996,693.43152 C 436.86883,694.1534 436.83331,695.01589 436.50102,695.34819 C 436.16872,695.68048 435.93238,695.08985 435.9758,694.03569 z M 651.9758,692.03569 C 652.02378,690.87074 652.26074,690.63379 652.57996,691.43152 C 652.86883,692.1534 652.83331,693.01589 652.50102,693.34819 C 652.16872,693.68048 651.93238,693.08985 651.9758,692.03569 z M 435.05474,689.61902 C 435.05474,688.24402 435.28172,687.68152 435.55913,688.36902 C 435.83654,689.05652 435.83654,690.18152 435.55913,690.86902 C 435.28172,691.55652 435.05474,690.99402 435.05474,689.61902 z M 653.05474,686.61902 C 653.05474,685.24402 653.28172,684.68152 653.55913,685.36902 C 653.83654,686.05652 653.83654,687.18152 653.55913,687.86902 C 653.28172,688.55652 653.05474,687.99402 653.05474,686.61902 z M 434.25181,677.11902 C 434.24876,672.16902 434.41786,670.01794 434.62758,672.33885 C 434.8373,674.65975 434.8398,678.70975 434.63312,681.33885 C 434.42645,683.96794 434.25485,682.06902 434.25181,677.11902 z M 433.89685,558.11902 L 433.89685,520.61902 L 471.14685,520.85631 L 508.39685,521.09361 L 471.64685,521.36864 L 434.89685,521.64366 L 434.89685,558.11887 L 434.89685,594.59407 L 471.14685,594.86942 L 507.39685,595.14476 L 470.64685,595.38189 L 433.89685,595.61902 L 433.89685,558.11902 z M 580.89685,558.11902 L 580.89685,520.61902 L 618.14685,520.85631 L 655.39685,521.09361 L 618.64685,521.36864 L 581.89685,521.64366 L 581.89685,558.11902 L 581.89685,594.59438 L 618.64685,594.8694 L 655.39685,595.14443 L 618.14685,595.38173 L 580.89685,595.61902 L 580.89685,558.11902 z "
       id="path2477" />
    <path
       style="fill:#d63237"
       d="M 499.64685,772.55489 C 496.48435,770.92253 493.89685,769.36269 493.89685,769.08859 C 493.89685,768.64183 505.79701,774.30688 506.81352,775.23754 C 508.12253,776.43601 504.64179,775.13309 499.64685,772.55489 z M 581.13782,722.36902 L 581.37879,669.11902 L 581.64666,721.87714 L 581.91454,774.63526 L 588.65569,771.21861 C 610.48595,760.15428 630.1172,739.93399 643.11528,715.12495 C 645.71042,710.17169 647.84792,706.46775 647.86528,706.89398 C 647.88265,707.32021 646.26681,710.90578 644.27453,714.86191 C 631.81338,739.60645 611.0194,760.96424 588.17537,772.48216 C 584.75355,774.20743 581.71605,775.61902 581.42537,775.61902 C 581.13468,775.61902 581.00529,751.65652 581.13782,722.36902 z M 484.81321,763.4241 C 472.09857,754.49495 455.962,736.97597 448.93369,724.47079 C 445.55293,718.45552 447.20043,719.95129 451.33655,726.65234 C 459.96695,740.63468 474.31728,755.56604 487.60327,764.38744 C 492.34642,767.53671 493.61258,768.61902 492.55368,768.61902 C 492.36493,768.61902 488.88172,766.28131 484.81321,763.4241 z M 443.84741,715.52211 C 442.69787,713.26882 441.92885,711.25369 442.13848,711.04405 C 442.34812,710.83442 443.49866,712.67803 444.69525,715.14096 C 447.42054,720.75044 446.6837,721.08169 443.84741,715.52211 z M 440.52039,708.08036 C 439.55541,705.56567 439.84008,704.91681 441.01892,706.94402 C 441.60261,707.94777 441.86952,708.97968 441.61205,709.23715 C 441.35458,709.49462 440.86333,708.97406 440.52039,708.08036 z M 648.55001,703.61902 C 648.89791,702.24402 649.80005,699.54402 650.55477,697.61902 C 651.72903,694.62393 651.84488,694.53587 651.35784,697.00859 C 651.04481,698.59785 650.14266,701.29785 649.35308,703.00859 C 648.27321,705.34825 648.07421,705.49952 648.55001,703.61902 z M 438.01247,701.52084 C 437.39888,699.76069 436.92856,697.82522 436.96731,697.2198 C 437.00607,696.61437 437.68286,697.87973 438.47129,700.03171 C 439.25972,702.18369 439.73004,704.11916 439.51645,704.33276 C 439.30285,704.54635 438.62606,703.28099 438.01247,701.52084 z M 435.9758,694.03569 C 436.02378,692.87074 436.26074,692.63379 436.57996,693.43152 C 436.86883,694.1534 436.83331,695.01589 436.50102,695.34819 C 436.16872,695.68048 435.93238,695.08985 435.9758,694.03569 z M 651.9758,692.03569 C 652.02378,690.87074 652.26074,690.63379 652.57996,691.43152 C 652.86883,692.1534 652.83331,693.01589 652.50102,693.34819 C 652.16872,693.68048 651.93238,693.08985 651.9758,692.03569 z M 435.05474,689.61902 C 435.05474,688.24402 435.28172,687.68152 435.55913,688.36902 C 435.83654,689.05652 435.83654,690.18152 435.55913,690.86902 C 435.28172,691.55652 435.05474,690.99402 435.05474,689.61902 z M 653.05474,686.61902 C 653.05474,685.24402 653.28172,684.68152 653.55913,685.36902 C 653.83654,686.05652 653.83654,687.18152 653.55913,687.86902 C 653.28172,688.55652 653.05474,687.99402 653.05474,686.61902 z M 434.25181,677.11902 C 434.24876,672.16902 434.41786,670.01794 434.62758,672.33885 C 434.8373,674.65975 434.8398,678.70975 434.63312,681.33885 C 434.42645,683.96794 434.25485,682.06902 434.25181,677.11902 z M 433.89685,558.11902 L 433.89685,520.61902 L 471.14685,520.85631 L 508.39685,521.09361 L 471.64685,521.36864 L 434.89685,521.64366 L 434.89685,558.11887 L 434.89685,594.59407 L 471.14685,594.86942 L 507.39685,595.14476 L 470.64685,595.38189 L 433.89685,595.61902 L 433.89685,558.11902 z M 580.89685,558.11902 L 580.89685,520.61902 L 618.14685,520.85631 L 655.39685,521.09361 L 618.64685,521.36864 L 581.89685,521.64366 L 581.89685,558.11902 L 581.89685,594.59438 L 618.64685,594.8694 L 655.39685,595.14443 L 618.14685,595.38173 L 580.89685,595.61902 L 580.89685,558.11902 z "
       id="path2475" />
    <path
       style="fill:#7b6261"
       d="M 502.89685,774.11902 C 501.52185,773.333 500.84685,772.68989 501.39685,772.68989 C 501.94685,772.68989 503.52185,773.333 504.89685,774.11902 C 506.27185,774.90504 506.94685,775.54815 506.39685,775.54815 C 505.84685,775.54815 504.27185,774.90504 502.89685,774.11902 z M 581.13782,722.36902 L 581.37879,669.11902 L 581.64666,721.87714 L 581.91454,774.63526 L 588.65569,771.21861 C 603.49671,763.69667 619.51517,750.01483 630.33507,735.61902 C 635.82828,728.31033 637.63203,726.23818 636.28112,728.78817 C 635.79477,729.70621 632.50335,734.12806 628.96686,738.61451 C 618.10157,752.39839 603.12527,764.88487 588.67181,772.21049 C 584.97304,774.08518 581.71054,775.61902 581.42181,775.61902 C 581.13308,775.61902 581.00529,751.65652 581.13782,722.36902 z M 496.64685,771.04705 C 492.90841,769.01891 493.13597,768.17419 496.89685,770.11902 C 498.54685,770.97227 499.89685,771.88382 499.89685,772.1447 C 499.89685,772.7882 499.7894,772.75191 496.64685,771.04705 z M 486.15176,764.36902 C 477.81623,758.562 468.07947,749.82705 462.819,743.43695 C 460.18005,740.23132 462.20579,741.91816 467.91901,747.68376 C 473.13182,752.94437 480.54685,759.43481 484.39685,762.10697 C 491.96132,767.35721 493.58464,768.61902 492.77458,768.61902 C 492.48733,768.61902 489.50706,766.70652 486.15176,764.36902 z M 454.62624,733.03773 C 450.63001,727.36857 447.20987,721.77681 448.55957,723.11902 C 450.18172,724.73216 458.87651,737.61902 458.34275,737.61902 C 458.07484,737.61902 456.40241,735.55744 454.62624,733.03773 z M 638.97087,723.11902 C 640.2062,720.91902 641.64632,718.66902 642.17113,718.11902 C 643.66859,716.5497 640.24394,722.88479 638.38704,725.11902 C 637.47282,726.21902 637.73554,725.31902 638.97087,723.11902 z M 443.84741,715.52211 C 442.69787,713.26882 441.92885,711.25369 442.13848,711.04405 C 442.34812,710.83442 443.49866,712.67803 444.69525,715.14096 C 447.42054,720.75044 446.6837,721.08169 443.84741,715.52211 z M 645.92748,710.11902 C 645.92748,709.56902 646.36369,708.44402 646.89685,707.61902 C 647.43001,706.79402 647.86622,706.56902 647.86622,707.11902 C 647.86622,707.66902 647.43001,708.79402 646.89685,709.61902 C 646.36369,710.44402 645.92748,710.66902 645.92748,710.11902 z M 647.92748,705.11902 C 647.92748,704.56902 648.36369,703.44402 648.89685,702.61902 C 649.43001,701.79402 649.86622,701.56902 649.86622,702.11902 C 649.86622,702.66902 649.43001,703.79402 648.89685,704.61902 C 648.36369,705.44402 647.92748,705.66902 647.92748,705.11902 z M 438.52039,703.08036 C 437.55541,700.56567 437.84008,699.91681 439.01892,701.94402 C 439.60261,702.94777 439.86952,703.97968 439.61205,704.23715 C 439.35458,704.49462 438.86333,703.97406 438.52039,703.08036 z M 436.9758,698.03569 C 437.02378,696.87074 437.26074,696.63379 437.57996,697.43152 C 437.86883,698.1534 437.83331,699.01589 437.50102,699.34819 C 437.16872,699.68048 436.93238,699.08985 436.9758,698.03569 z M 650.9758,696.03569 C 651.02378,694.87074 651.26074,694.63379 651.57996,695.43152 C 651.86883,696.1534 651.83331,697.01589 651.50102,697.34819 C 651.16872,697.68048 650.93238,697.08985 650.9758,696.03569 z M 651.9758,692.03569 C 652.02378,690.87074 652.26074,690.63379 652.57996,691.43152 C 652.86883,692.1534 652.83331,693.01589 652.50102,693.34819 C 652.16872,693.68048 651.93238,693.08985 651.9758,692.03569 z M 434.9758,690.03569 C 435.02378,688.87074 435.26074,688.63379 435.57996,689.43152 C 435.86883,690.1534 435.83331,691.01589 435.50102,691.34819 C 435.16872,691.68048 434.93238,691.08985 434.9758,690.03569 z M 653.05474,686.61902 C 653.05474,685.24402 653.28172,684.68152 653.55913,685.36902 C 653.83654,686.05652 653.83654,687.18152 653.55913,687.86902 C 653.28172,688.55652 653.05474,687.99402 653.05474,686.61902 z M 434.25181,677.11902 C 434.24876,672.16902 434.41786,670.01794 434.62758,672.33885 C 434.8373,674.65975 434.8398,678.70975 434.63312,681.33885 C 434.42645,683.96794 434.25485,682.06902 434.25181,677.11902 z M 433.89685,558.11902 L 433.89685,520.61902 L 471.14685,520.85631 L 508.39685,521.09361 L 471.64685,521.36864 L 434.89685,521.64366 L 434.89685,558.11887 L 434.89685,594.59407 L 471.14685,594.86942 L 507.39685,595.14476 L 470.64685,595.38189 L 433.89685,595.61902 L 433.89685,558.11902 z M 580.89685,558.11902 L 580.89685,520.61902 L 618.14685,520.85631 L 655.39685,521.09361 L 618.64685,521.36864 L 581.89685,521.64366 L 581.89685,558.11902 L 581.89685,594.59438 L 618.64685,594.8694 L 655.39685,595.14443 L 618.14685,595.38173 L 580.89685,595.61902 L 580.89685,558.11902 z "
       id="path2473" />
    <path
       style="fill:#cb3236"
       d="M 581.36277,722.61902 C 581.36277,693.19402 581.49029,681.15652 581.64614,695.86902 C 581.802,710.58152 581.802,734.65652 581.64614,749.36902 C 581.49029,764.08152 581.36277,752.04402 581.36277,722.61902 z M 501.89685,773.61902 C 501.07185,773.08586 500.84685,772.64965 501.39685,772.64965 C 501.94685,772.64965 503.07185,773.08586 503.89685,773.61902 C 504.72185,774.15218 504.94685,774.58839 504.39685,774.58839 C 503.84685,774.58839 502.72185,774.15218 501.89685,773.61902 z M 582.98018,774.23932 C 584.00028,773.30973 593.89685,768.63735 593.89685,769.08533 C 593.89685,769.64916 584.34688,774.61902 583.26343,774.61902 C 582.87848,774.61902 582.75102,774.44816 582.98018,774.23932 z M 496.64685,771.04705 C 492.90841,769.01891 493.13597,768.17419 496.89685,770.11902 C 498.54685,770.97227 499.89685,771.88382 499.89685,772.1447 C 499.89685,772.7882 499.7894,772.75191 496.64685,771.04705 z M 486.31263,764.48714 C 477.6707,758.45117 469.72075,751.35448 463.71627,744.316 C 459.91699,739.86249 461.09778,740.80997 467.91325,747.68376 C 473.12923,752.94437 480.54685,759.43481 484.39685,762.10697 C 491.98796,767.3757 493.58521,768.61902 492.76263,768.61902 C 492.46881,768.61902 489.56631,766.75967 486.31263,764.48714 z M 599.88222,764.91259 C 601.24918,763.92613 604.73032,761.20652 607.6181,758.86902 C 610.50587,756.53152 613.14461,754.61902 613.48196,754.61902 C 614.53458,754.61902 603.64156,763.34709 600.4389,765.06982 C 597.42503,766.691 597.41987,766.68954 599.88222,764.91259 z M 617.89685,750.11902 C 619.76263,748.19402 621.51418,746.61902 621.78918,746.61902 C 622.06418,746.61902 620.76263,748.19402 618.89685,750.11902 C 617.03107,752.04402 615.27952,753.61902 615.00452,753.61902 C 614.72952,753.61902 616.03107,752.04402 617.89685,750.11902 z M 622.89685,745.05749 C 622.89685,744.555 626.24139,740.4258 632.97168,732.61902 C 634.15708,731.24402 633.86914,731.91902 632.33181,734.11902 C 629.16702,738.64801 622.89685,745.91736 622.89685,745.05749 z M 456.76929,735.86902 C 455.52542,734.28296 455.56079,734.24759 457.14685,735.49146 C 458.10935,736.24631 458.89685,737.03381 458.89685,737.24146 C 458.89685,738.0645 458.07566,737.53477 456.76929,735.86902 z M 452.17499,729.36902 C 450.67581,727.43058 449.73275,725.61902 450.22282,725.61902 C 450.46703,725.61902 451.40396,726.74402 452.30489,728.11902 C 453.99073,730.69193 453.89684,731.59537 452.17499,729.36902 z M 637.89685,724.61902 C 638.48555,723.51902 639.19222,722.61902 639.46722,722.61902 C 639.74222,722.61902 639.48555,723.51902 638.89685,724.61902 C 638.30815,725.71902 637.60148,726.61902 637.32648,726.61902 C 637.05148,726.61902 637.30815,725.71902 637.89685,724.61902 z M 640.89685,719.61902 C 641.48555,718.51902 642.19222,717.61902 642.46722,717.61902 C 642.74222,717.61902 642.48555,718.51902 641.89685,719.61902 C 641.30815,720.71902 640.60148,721.61902 640.32648,721.61902 C 640.05148,721.61902 640.30815,720.71902 640.89685,719.61902 z M 645.92748,710.11902 C 645.92748,709.56902 646.36369,708.44402 646.89685,707.61902 C 647.43001,706.79402 647.86622,706.56902 647.86622,707.11902 C 647.86622,707.66902 647.43001,708.79402 646.89685,709.61902 C 646.36369,710.44402 645.92748,710.66902 645.92748,710.11902 z M 650.9758,696.03569 C 651.02378,694.87074 651.26074,694.63379 651.57996,695.43152 C 651.86883,696.1534 651.83331,697.01589 651.50102,697.34819 C 651.16872,697.68048 650.93238,697.08985 650.9758,696.03569 z M 651.9758,692.03569 C 652.02378,690.87074 652.26074,690.63379 652.57996,691.43152 C 652.86883,692.1534 652.83331,693.01589 652.50102,693.34819 C 652.16872,693.68048 651.93238,693.08985 651.9758,692.03569 z M 434.9758,690.03569 C 435.02378,688.87074 435.26074,688.63379 435.57996,689.43152 C 435.86883,690.1534 435.83331,691.01589 435.50102,691.34819 C 435.16872,691.68048 434.93238,691.08985 434.9758,690.03569 z M 653.05474,686.61902 C 653.05474,685.24402 653.28172,684.68152 653.55913,685.36902 C 653.83654,686.05652 653.83654,687.18152 653.55913,687.86902 C 653.28172,688.55652 653.05474,687.99402 653.05474,686.61902 z M 434.25181,677.11902 C 434.24876,672.16902 434.41786,670.01794 434.62758,672.33885 C 434.8373,674.65975 434.8398,678.70975 434.63312,681.33885 C 434.42645,683.96794 434.25485,682.06902 434.25181,677.11902 z M 433.89685,558.11902 L 433.89685,520.61902 L 470.64685,520.85615 L 507.39685,521.09328 L 471.14685,521.36862 L 434.89685,521.64397 L 434.89685,558.11902 L 434.89685,594.59407 L 471.14685,594.86942 L 507.39685,595.14476 L 470.64685,595.38189 L 433.89685,595.61902 L 433.89685,558.11902 z M 580.89685,558.11902 L 580.89685,520.61902 L 617.64685,520.85615 L 654.39685,521.09328 L 618.14685,521.36862 L 581.89685,521.64397 L 581.89685,558.11902 L 581.89685,594.59407 L 618.14685,594.86942 L 654.39685,595.14476 L 617.64685,595.38189 L 580.89685,595.61902 L 580.89685,558.11902 z "
       id="path2471" />
    <path
       style="fill:#bf3336"
       d="M 581.36277,722.61902 C 581.36277,693.19402 581.49029,681.15652 581.64614,695.86902 C 581.802,710.58152 581.802,734.65652 581.64614,749.36902 C 581.49029,764.08152 581.36277,752.04402 581.36277,722.61902 z M 501.89685,773.61902 C 501.07185,773.08586 500.84685,772.64965 501.39685,772.64965 C 501.94685,772.64965 503.07185,773.08586 503.89685,773.61902 C 504.72185,774.15218 504.94685,774.58839 504.39685,774.58839 C 503.84685,774.58839 502.72185,774.15218 501.89685,773.61902 z M 582.98018,774.23932 C 584.00028,773.30973 593.89685,768.63735 593.89685,769.08533 C 593.89685,769.64916 584.34688,774.61902 583.26343,774.61902 C 582.87848,774.61902 582.75102,774.44816 582.98018,774.23932 z M 496.64685,771.04705 C 492.90841,769.01891 493.13597,768.17419 496.89685,770.11902 C 498.54685,770.97227 499.89685,771.88382 499.89685,772.1447 C 499.89685,772.7882 499.7894,772.75191 496.64685,771.04705 z M 490.33798,767.06385 C 488.47395,765.57046 488.48622,765.552 490.64685,766.59904 C 491.88435,767.19873 492.89685,767.89855 492.89685,768.1542 C 492.89685,768.91942 492.37824,768.69844 490.33798,767.06385 z M 599.89685,765.25521 C 599.89685,764.98021 601.24685,763.79392 602.89685,762.61902 C 604.54685,761.44412 605.89685,760.70783 605.89685,760.98283 C 605.89685,761.25783 604.54685,762.44412 602.89685,763.61902 C 601.24685,764.79392 599.89685,765.53021 599.89685,765.25521 z M 482.76929,761.86902 C 481.52542,760.28296 481.56079,760.24759 483.14685,761.49146 C 484.10935,762.24631 484.89685,763.03381 484.89685,763.24146 C 484.89685,764.0645 484.07566,763.53477 482.76929,761.86902 z M 477.82116,757.86902 L 475.39685,755.11902 L 478.14685,757.54333 C 480.71714,759.80922 481.35544,760.61902 480.57116,760.61902 C 480.39204,760.61902 479.15454,759.38152 477.82116,757.86902 z M 608.89685,758.11902 C 610.1886,756.74402 611.47048,755.61902 611.74548,755.61902 C 612.02048,755.61902 611.1886,756.74402 609.89685,758.11902 C 608.6051,759.49402 607.32322,760.61902 607.04822,760.61902 C 606.77322,760.61902 607.6051,759.49402 608.89685,758.11902 z M 468.86269,749.86902 L 463.39685,744.11902 L 469.14685,749.58486 C 472.30935,752.59107 474.89685,755.17857 474.89685,755.33486 C 474.89685,756.07711 473.94063,755.21095 468.86269,749.86902 z M 617.89685,750.11902 C 619.76263,748.19402 621.51418,746.61902 621.78918,746.61902 C 622.06418,746.61902 620.76263,748.19402 618.89685,750.11902 C 617.03107,752.04402 615.27952,753.61902 615.00452,753.61902 C 614.72952,753.61902 616.03107,752.04402 617.89685,750.11902 z M 460.30184,740.36902 L 458.39685,738.11902 L 460.64685,740.02401 C 462.76129,741.81423 463.35209,742.61902 462.55184,742.61902 C 462.36208,742.61902 461.34958,741.60652 460.30184,740.36902 z M 626.89685,740.11902 C 628.1886,738.74402 629.47048,737.61902 629.74548,737.61902 C 630.02048,737.61902 629.1886,738.74402 627.89685,740.11902 C 626.6051,741.49402 625.32322,742.61902 625.04822,742.61902 C 624.77322,742.61902 625.6051,741.49402 626.89685,740.11902 z M 456.76929,735.86902 C 455.52542,734.28296 455.56079,734.24759 457.14685,735.49146 C 458.10935,736.24631 458.89685,737.03381 458.89685,737.24146 C 458.89685,738.0645 458.07566,737.53477 456.76929,735.86902 z M 629.89685,736.24146 C 629.89685,736.03381 630.68435,735.24631 631.64685,734.49146 C 633.23291,733.24759 633.26828,733.28296 632.02441,734.86902 C 630.71804,736.53477 629.89685,737.0645 629.89685,736.24146 z M 640.89685,719.61902 C 641.48555,718.51902 642.19222,717.61902 642.46722,717.61902 C 642.74222,717.61902 642.48555,718.51902 641.89685,719.61902 C 641.30815,720.71902 640.60148,721.61902 640.32648,721.61902 C 640.05148,721.61902 640.30815,720.71902 640.89685,719.61902 z M 645.92748,710.11902 C 645.92748,709.56902 646.36369,708.44402 646.89685,707.61902 C 647.43001,706.79402 647.86622,706.56902 647.86622,707.11902 C 647.86622,707.66902 647.43001,708.79402 646.89685,709.61902 C 646.36369,710.44402 645.92748,710.66902 645.92748,710.11902 z M 651.9758,692.03569 C 652.02378,690.87074 652.26074,690.63379 652.57996,691.43152 C 652.86883,692.1534 652.83331,693.01589 652.50102,693.34819 C 652.16872,693.68048 651.93238,693.08985 651.9758,692.03569 z M 434.9758,690.03569 C 435.02378,688.87074 435.26074,688.63379 435.57996,689.43152 C 435.86883,690.1534 435.83331,691.01589 435.50102,691.34819 C 435.16872,691.68048 434.93238,691.08985 434.9758,690.03569 z M 652.9758,687.03569 C 653.02378,685.87074 653.26074,685.63379 653.57996,686.43152 C 653.86883,687.1534 653.83331,688.01589 653.50102,688.34819 C 653.16872,688.68048 652.93238,688.08985 652.9758,687.03569 z M 434.25181,677.11902 C 434.24876,672.16902 434.41786,670.01794 434.62758,672.33885 C 434.8373,674.65975 434.8398,678.70975 434.63312,681.33885 C 434.42645,683.96794 434.25485,682.06902 434.25181,677.11902 z M 433.89685,558.11902 L 433.89685,520.61902 L 470.64685,520.85615 L 507.39685,521.09328 L 471.14685,521.36862 L 434.89685,521.64397 L 434.89685,558.11902 L 434.89685,594.59407 L 471.14685,594.86942 L 507.39685,595.14476 L 470.64685,595.38189 L 433.89685,595.61902 L 433.89685,558.11902 z M 580.89685,558.11902 L 580.89685,520.61902 L 617.64685,520.85615 L 654.39685,521.09328 L 618.14685,521.36862 L 581.89685,521.64397 L 581.89685,558.11902 L 581.89685,594.59407 L 618.14685,594.86942 L 654.39685,595.14476 L 617.64685,595.38189 L 580.89685,595.61902 L 580.89685,558.11902 z "
       id="path2469" />
    <path
       style="fill:#6f5656"
       d="M 482.76929,761.86902 C 481.52542,760.28296 481.56079,760.24759 483.14685,761.49146 C 484.10935,762.24631 484.89685,763.03381 484.89685,763.24146 C 484.89685,764.0645 484.07566,763.53477 482.76929,761.86902 z M 602.89685,763.24146 C 602.89685,763.03381 603.68435,762.24631 604.64685,761.49146 C 606.23291,760.24759 606.26828,760.28296 605.02441,761.86902 C 603.71804,763.53477 602.89685,764.0645 602.89685,763.24146 z M 478.30184,758.36902 L 476.39685,756.11902 L 478.64685,758.02401 C 480.76129,759.81423 481.35209,760.61902 480.55184,760.61902 C 480.36208,760.61902 479.34958,759.60652 478.30184,758.36902 z M 608.89685,758.11902 C 610.1886,756.74402 611.47048,755.61902 611.74548,755.61902 C 612.02048,755.61902 611.1886,756.74402 609.89685,758.11902 C 608.6051,759.49402 607.32322,760.61902 607.04822,760.61902 C 606.77322,760.61902 607.6051,759.49402 608.89685,758.11902 z M 468.86269,749.86902 L 463.39685,744.11902 L 469.14685,749.58486 C 472.30935,752.59107 474.89685,755.17857 474.89685,755.33486 C 474.89685,756.07711 473.94063,755.21095 468.86269,749.86902 z M 617.89685,750.11902 C 619.76263,748.19402 621.51418,746.61902 621.78918,746.61902 C 622.06418,746.61902 620.76263,748.19402 618.89685,750.11902 C 617.03107,752.04402 615.27952,753.61902 615.00452,753.61902 C 614.72952,753.61902 616.03107,752.04402 617.89685,750.11902 z M 460.30184,740.36902 L 458.39685,738.11902 L 460.64685,740.02401 C 462.76129,741.81423 463.35209,742.61902 462.55184,742.61902 C 462.36208,742.61902 461.34958,741.60652 460.30184,740.36902 z M 626.89685,740.11902 C 628.1886,738.74402 629.47048,737.61902 629.74548,737.61902 C 630.02048,737.61902 629.1886,738.74402 627.89685,740.11902 C 626.6051,741.49402 625.32322,742.61902 625.04822,742.61902 C 624.77322,742.61902 625.6051,741.49402 626.89685,740.11902 z M 629.89685,736.24146 C 629.89685,736.03381 630.68435,735.24631 631.64685,734.49146 C 633.23291,733.24759 633.26828,733.28296 632.02441,734.86902 C 630.71804,736.53477 629.89685,737.0645 629.89685,736.24146 z M 434.05474,683.61902 C 434.05474,682.24402 434.28172,681.68152 434.55913,682.36902 C 434.83654,683.05652 434.83654,684.18152 434.55913,684.86902 C 434.28172,685.55652 434.05474,684.99402 434.05474,683.61902 z M 452.21225,594.87016 C 462.56073,594.70749 479.21073,594.70775 489.21225,594.87072 C 499.21378,595.03369 490.74685,595.16678 470.39685,595.16647 C 450.04685,595.16616 441.86378,595.03282 452.21225,594.87016 z M 599.21225,594.87016 C 609.56073,594.70749 626.21073,594.70775 636.21225,594.87072 C 646.21378,595.03369 637.74685,595.16678 617.39685,595.16647 C 597.04685,595.16616 588.86378,595.03282 599.21225,594.87016 z M 452.21225,520.87016 C 462.56073,520.7075 479.21073,520.70775 489.21225,520.87072 C 499.21378,521.03369 490.74685,521.16678 470.39685,521.16647 C 450.04685,521.16616 441.86378,521.03282 452.21225,520.87016 z M 599.21225,520.87016 C 609.56073,520.7075 626.21073,520.70775 636.21225,520.87072 C 646.21378,521.03369 637.74685,521.16678 617.39685,521.16647 C 597.04685,521.16616 588.86378,521.03282 599.21225,520.87016 z "
       id="path2467" />
    <path
       style="fill:#864a4b"
       d="M 477.76929,757.86902 C 476.52542,756.28296 476.56079,756.24759 478.14685,757.49146 C 479.10935,758.24631 479.89685,759.03381 479.89685,759.24146 C 479.89685,760.0645 479.07566,759.53477 477.76929,757.86902 z M 609.39685,757.61902 C 610.39234,756.51902 611.43183,755.61902 611.70683,755.61902 C 611.98183,755.61902 611.39234,756.51902 610.39685,757.61902 C 609.40136,758.71902 608.36187,759.61902 608.08687,759.61902 C 607.81187,759.61902 608.40136,758.71902 609.39685,757.61902 z M 468.89685,750.11902 C 466.46782,747.64402 464.70543,745.61902 464.98043,745.61902 C 465.25543,745.61902 467.46782,747.64402 469.89685,750.11902 C 472.32588,752.59402 474.08827,754.61902 473.81327,754.61902 C 473.53827,754.61902 471.32588,752.59402 468.89685,750.11902 z M 615.89685,752.30611 C 615.89685,752.13401 617.35935,750.67151 619.14685,749.05611 L 622.39685,746.11902 L 619.45976,749.36902 C 616.72198,752.39848 615.89685,753.07867 615.89685,752.30611 z M 460.76929,740.86902 C 459.52542,739.28296 459.56079,739.24759 461.14685,740.49146 C 462.10935,741.24631 462.89685,742.03381 462.89685,742.24146 C 462.89685,743.0645 462.07566,742.53477 460.76929,740.86902 z M 626.39685,740.61902 C 627.39234,739.51902 628.43183,738.61902 628.70683,738.61902 C 628.98183,738.61902 628.39234,739.51902 627.39685,740.61902 C 626.40136,741.71902 625.36187,742.61902 625.08687,742.61902 C 624.81187,742.61902 625.40136,741.71902 626.39685,740.61902 z M 434.05474,683.61902 C 434.05474,682.24402 434.28172,681.68152 434.55913,682.36902 C 434.83654,683.05652 434.83654,684.18152 434.55913,684.86902 C 434.28172,685.55652 434.05474,684.99402 434.05474,683.61902 z M 452.21225,594.87016 C 462.56073,594.70749 479.21073,594.70775 489.21225,594.87072 C 499.21378,595.03369 490.74685,595.16678 470.39685,595.16647 C 450.04685,595.16616 441.86378,595.03282 452.21225,594.87016 z M 599.21225,594.87016 C 609.56073,594.70749 626.21073,594.70775 636.21225,594.87072 C 646.21378,595.03369 637.74685,595.16678 617.39685,595.16647 C 597.04685,595.16616 588.86378,595.03282 599.21225,594.87016 z M 452.21225,520.87016 C 462.56073,520.7075 479.21073,520.70775 489.21225,520.87072 C 499.21378,521.03369 490.74685,521.16678 470.39685,521.16647 C 450.04685,521.16616 441.86378,521.03282 452.21225,520.87016 z M 599.21225,520.87016 C 609.56073,520.7075 626.21073,520.70775 636.21225,520.87072 C 646.21378,521.03369 637.74685,521.16678 617.39685,521.16647 C 597.04685,521.16616 588.86378,521.03282 599.21225,520.87016 z "
       id="path2465" />
    <path
       style="fill:#a83336"
       d="M 477.76929,757.86902 C 476.52542,756.28296 476.56079,756.24759 478.14685,757.49146 C 479.10935,758.24631 479.89685,759.03381 479.89685,759.24146 C 479.89685,760.0645 479.07566,759.53477 477.76929,757.86902 z M 609.39685,757.61902 C 610.39234,756.51902 611.43183,755.61902 611.70683,755.61902 C 611.98183,755.61902 611.39234,756.51902 610.39685,757.61902 C 609.40136,758.71902 608.36187,759.61902 608.08687,759.61902 C 607.81187,759.61902 608.40136,758.71902 609.39685,757.61902 z M 468.84302,749.86902 L 465.39685,746.11902 L 469.14685,749.56519 C 471.20935,751.46058 472.89685,753.14808 472.89685,753.31519 C 472.89685,754.07881 472.05063,753.35944 468.84302,749.86902 z M 615.89685,752.30611 C 615.89685,752.13401 617.35935,750.67151 619.14685,749.05611 L 622.39685,746.11902 L 619.45976,749.36902 C 616.72198,752.39848 615.89685,753.07867 615.89685,752.30611 z M 460.76929,740.86902 C 459.52542,739.28296 459.56079,739.24759 461.14685,740.49146 C 462.10935,741.24631 462.89685,742.03381 462.89685,742.24146 C 462.89685,743.0645 462.07566,742.53477 460.76929,740.86902 z M 626.39685,740.61902 C 627.39234,739.51902 628.43183,738.61902 628.70683,738.61902 C 628.98183,738.61902 628.39234,739.51902 627.39685,740.61902 C 626.40136,741.71902 625.36187,742.61902 625.08687,742.61902 C 624.81187,742.61902 625.40136,741.71902 626.39685,740.61902 z M 433.9758,683.03569 C 434.02378,681.87074 434.26074,681.63379 434.57996,682.43152 C 434.86883,683.1534 434.83331,684.01589 434.50102,684.34819 C 434.16872,684.68048 433.93238,684.08985 433.9758,683.03569 z M 452.21225,594.87016 C 462.56073,594.70749 479.21073,594.70775 489.21225,594.87072 C 499.21378,595.03369 490.74685,595.16678 470.39685,595.16647 C 450.04685,595.16616 441.86378,595.03282 452.21225,594.87016 z M 599.21225,594.87016 C 609.56073,594.70749 626.21073,594.70775 636.21225,594.87072 C 646.21378,595.03369 637.74685,595.16678 617.39685,595.16647 C 597.04685,595.16616 588.86378,595.03282 599.21225,594.87016 z M 452.21225,520.87016 C 462.56073,520.7075 479.21073,520.70775 489.21225,520.87072 C 499.21378,521.03369 490.74685,521.16678 470.39685,521.16647 C 450.04685,521.16616 441.86378,521.03282 452.21225,520.87016 z M 599.21225,520.87016 C 609.56073,520.7075 626.21073,520.70775 636.21225,520.87072 C 646.21378,521.03369 637.74685,521.16678 617.39685,521.16647 C 597.04685,521.16616 588.86378,521.03282 599.21225,520.87016 z "
       id="path2463" />
    <path
       style="fill:#6f4b4b"
       d="M 468.84302,749.86902 L 465.39685,746.11902 L 469.14685,749.56519 C 471.20935,751.46058 472.89685,753.14808 472.89685,753.31519 C 472.89685,754.07881 472.05063,753.35944 468.84302,749.86902 z M 615.89685,752.30611 C 615.89685,752.13401 617.35935,750.67151 619.14685,749.05611 L 622.39685,746.11902 L 619.45976,749.36902 C 616.72198,752.39848 615.89685,753.07867 615.89685,752.30611 z M 625.89685,741.24146 C 625.89685,741.03381 626.68435,740.24631 627.64685,739.49146 C 629.23291,738.24759 629.26828,738.28296 628.02441,739.86902 C 626.71804,741.53477 625.89685,742.0645 625.89685,741.24146 z M 452.21225,594.87016 C 462.56073,594.70749 479.21073,594.70775 489.21225,594.87072 C 499.21378,595.03369 490.74685,595.16678 470.39685,595.16647 C 450.04685,595.16616 441.86378,595.03282 452.21225,594.87016 z M 599.21225,594.87016 C 609.56073,594.70749 626.21073,594.70775 636.21225,594.87072 C 646.21378,595.03369 637.74685,595.16678 617.39685,595.16647 C 597.04685,595.16616 588.86378,595.03282 599.21225,594.87016 z M 452.21225,520.87016 C 462.56073,520.7075 479.21073,520.70775 489.21225,520.87072 C 499.21378,521.03369 490.74685,521.16678 470.39685,521.16647 C 450.04685,521.16616 441.86378,521.03282 452.21225,520.87016 z M 599.21225,520.87016 C 609.56073,520.7075 626.21073,520.70775 636.21225,520.87072 C 646.21378,521.03369 637.74685,521.16678 617.39685,521.16647 C 597.04685,521.16616 588.86378,521.03282 599.21225,520.87016 z "
       id="path2461" />
    <path
       style="fill:#863e40"
       d="M 468.33394,749.36902 L 465.39685,746.11902 L 468.64685,749.05611 C 470.43435,750.67151 471.89685,752.13401 471.89685,752.30611 C 471.89685,753.07867 471.07172,752.39848 468.33394,749.36902 z M 615.89685,752.30611 C 615.89685,752.13401 617.35935,750.67151 619.14685,749.05611 L 622.39685,746.11902 L 619.45976,749.36902 C 616.72198,752.39848 615.89685,753.07867 615.89685,752.30611 z M 625.89685,741.24146 C 625.89685,741.03381 626.68435,740.24631 627.64685,739.49146 C 629.23291,738.24759 629.26828,738.28296 628.02441,739.86902 C 626.71804,741.53477 625.89685,742.0645 625.89685,741.24146 z M 452.21225,594.87016 C 462.56073,594.70749 479.21073,594.70775 489.21225,594.87072 C 499.21378,595.03369 490.74685,595.16678 470.39685,595.16647 C 450.04685,595.16616 441.86378,595.03282 452.21225,594.87016 z M 599.21225,594.87016 C 609.56073,594.70749 626.21073,594.70775 636.21225,594.87072 C 646.21378,595.03369 637.74685,595.16678 617.39685,595.16647 C 597.04685,595.16616 588.86378,595.03282 599.21225,594.87016 z M 452.21225,520.87016 C 462.56073,520.7075 479.21073,520.70775 489.21225,520.87072 C 499.21378,521.03369 490.74685,521.16678 470.39685,521.16647 C 450.04685,521.16616 441.86378,521.03282 452.21225,520.87016 z M 599.21225,520.87016 C 609.56073,520.7075 626.21073,520.70775 636.21225,520.87072 C 646.21378,521.03369 637.74685,521.16678 617.39685,521.16647 C 597.04685,521.16616 588.86378,521.03282 599.21225,520.87016 z "
       id="path2459" />
    <path
       style="fill:#923336"
       d="M 468.33394,749.36902 L 465.39685,746.11902 L 468.64685,749.05611 C 470.43435,750.67151 471.89685,752.13401 471.89685,752.30611 C 471.89685,753.07867 471.07172,752.39848 468.33394,749.36902 z M 615.89685,752.30611 C 615.89685,752.13401 617.35935,750.67151 619.14685,749.05611 L 622.39685,746.11902 L 619.45976,749.36902 C 616.72198,752.39848 615.89685,753.07867 615.89685,752.30611 z M 452.21225,594.87016 C 462.56073,594.70749 479.21073,594.70775 489.21225,594.87072 C 499.21378,595.03369 490.74685,595.16678 470.39685,595.16647 C 450.04685,595.16616 441.86378,595.03282 452.21225,594.87016 z M 599.21225,594.87016 C 609.56073,594.70749 626.21073,594.70775 636.21225,594.87072 C 646.21378,595.03369 637.74685,595.16678 617.39685,595.16647 C 597.04685,595.16616 588.86378,595.03282 599.21225,594.87016 z M 452.21225,520.87016 C 462.56073,520.7075 479.21073,520.70775 489.21225,520.87072 C 499.21378,521.03369 490.74685,521.16678 470.39685,521.16647 C 450.04685,521.16616 441.86378,521.03282 452.21225,520.87016 z M 599.21225,520.87016 C 609.56073,520.7075 626.21073,520.70775 636.21225,520.87072 C 646.21378,521.03369 637.74685,521.16678 617.39685,521.16647 C 597.04685,521.16616 588.86378,521.03282 599.21225,520.87016 z "
       id="path2457" />
    <path
       style="fill:#863335"
       d="M 468.33394,749.36902 L 465.39685,746.11902 L 468.64685,749.05611 C 470.43435,750.67151 471.89685,752.13401 471.89685,752.30611 C 471.89685,753.07867 471.07172,752.39848 468.33394,749.36902 z M 615.89685,752.30611 C 615.89685,752.13401 617.35935,750.67151 619.14685,749.05611 L 622.39685,746.11902 L 619.45976,749.36902 C 616.72198,752.39848 615.89685,753.07867 615.89685,752.30611 z "
       id="path2455" />
    <path
       style="fill:#6f3e40"
       d="M 468.33394,749.36902 L 465.39685,746.11902 L 468.64685,749.05611 C 470.43435,750.67151 471.89685,752.13401 471.89685,752.30611 C 471.89685,753.07867 471.07172,752.39848 468.33394,749.36902 z M 615.89685,752.30611 C 615.89685,752.13401 617.35935,750.67151 619.14685,749.05611 L 622.39685,746.11902 L 619.45976,749.36902 C 616.72198,752.39848 615.89685,753.07867 615.89685,752.30611 z "
       id="path2453" />
    <path
       style="fill:#643f40"
       d="M 468.33394,749.36902 L 465.39685,746.11902 L 468.64685,749.05611 C 470.43435,750.67151 471.89685,752.13401 471.89685,752.30611 C 471.89685,753.07867 471.07172,752.39848 468.33394,749.36902 z M 615.89685,752.30611 C 615.89685,752.13401 617.35935,750.67151 619.14685,749.05611 L 622.39685,746.11902 L 619.45976,749.36902 C 616.72198,752.39848 615.89685,753.07867 615.89685,752.30611 z "
       id="path2451" />
  </g>
</svg>
