<?xml version="1.0"?>
<svg xmlns="http://www.w3.org/2000/svg" height="341.8" width="282.1" xmlns:xlink="http://www.w3.org/1999/xlink" viewBox="0 0 282 341.8">
<defs>
<linearGradient id="a">
<stop stop-color="#008bd2" stop-opacity=".1211" offset="0"/>
<stop stop-color="#00459d" offset=".25"/>
<stop stop-color="#bfe9ff" offset=".5"/>
<stop stop-color="#00459d" offset=".75"/>
<stop stop-color="#008bd2" stop-opacity=".1235" offset="1"/>
</linearGradient>
<linearGradient id="j" y2="570.9" xlink:href="#a" gradientUnits="userSpaceOnUse" x2="336.5" y1="570.9" x1="257.3"/>
<linearGradient id="i" y2="581.1" xlink:href="#a" gradientUnits="userSpaceOnUse" x2="315.8" gradientTransform="translate(-156 -250.9)" y1="581.1" x1="266.2"/>
<linearGradient id="h" y2="581.1" xlink:href="#a" gradientUnits="userSpaceOnUse" x2="327.9" y1="581.1" x1="278"/>
<linearGradient id="g" y2="284.4" gradientUnits="userSpaceOnUse" x2="327.7" y1="284.4" x1="265.9">
<stop stop-color="#fff" offset="0"/>
<stop stop-color="#bae0ff" offset=".5"/>
<stop stop-color="#fff" offset=".5"/>
<stop stop-color="#bae1ff" offset="1"/>
</linearGradient>
<linearGradient id="f" y2="373" xlink:href="#a" gradientUnits="userSpaceOnUse" x2="431.9" y1="373" x1="392"/>
<linearGradient id="e" y2="436.9" xlink:href="#a" gradientUnits="userSpaceOnUse" x2="432.3" y1="436.9" x1="393.5"/>
<linearGradient id="d" y2="495.9" xlink:href="#a" gradientUnits="userSpaceOnUse" x2="433.3" y1="495.9" x1="398.8"/>
<linearGradient id="b" y2="557.7" xlink:href="#a" gradientUnits="userSpaceOnUse" x2="324.2" y1="538.2" x1="324.2"/>
<linearGradient id="c" y2="568.8" gradientUnits="userSpaceOnUse" x2="411.3" y1="518.5" x1="384">
<stop stop-color="#008bd2" stop-opacity=".1211" offset="0"/>
<stop stop-color="#00459d" offset=".2015"/>
<stop stop-color="#bfe9ff" offset=".4987"/>
<stop stop-color="#00459d" offset=".7802"/>
<stop stop-color="#008bd2" stop-opacity=".1235" offset="1"/>
</linearGradient>
</defs>
<use xlink:href="#k" transform="matrix(-1 0 0 1 282.1 0)" height="841.89" width="595.28" y="0" x="0"/>
<use xlink:href="#l" transform="matrix(-1 0 0 1 282.1 0)" height="841.89" width="595.28" y="0" x="0"/>
<path d="m224.9 264.6-0.01 0.03-0.87 2.06-0.01 0.03-1.02 1.89-0.01 0.03-1.16 1.72-0.02 0.03-1.29 1.57-0.02 0.02c-0.35 0.37-0.71 0.72-1.07 1.06-0.37 0.35-0.74 0.69-1.13 1.02l-0.02 0.01c-0.43 0.33-0.83 0.63-1.23 0.91-0.39 0.27-0.82 0.56-1.27 0.84l-0.02 0.01c-0.47 0.27-0.93 0.51-1.38 0.75-0.46 0.23-0.93 0.46-1.41 0.68h-0.02c-0.51 0.21-1.02 0.4-1.52 0.58s-1.02 0.36-1.55 0.52l-0.02 0.01c-0.54 0.14-1.09 0.28-1.66 0.41-0.56 0.13-1.11 0.25-1.67 0.36h-0.02l-1.04 0.17-0.06 0.01h-43.1c-0.5 0.02-0.98 0.06-1.43 0.11-0.48 0.05-0.95 0.11-1.43 0.19l0.02-0.01c-0.45 0.1-0.9 0.2-1.34 0.32-0.43 0.11-0.86 0.24-1.32 0.38h0.02c-0.41 0.15-0.82 0.31-1.23 0.49-0.4 0.17-0.8 0.35-1.22 0.55l0.02-0.01c-0.39 0.21-0.77 0.42-1.14 0.64-0.36 0.21-0.73 0.44-1.11 0.69l0.01-0.01c-0.48 0.34-0.94 0.67-1.39 1.02-0.44 0.34-0.89 0.71-1.33 1.08h0.01c-0.65 0.58-1.26 1.17-1.84 1.76-0.59 0.6-1.17 1.22-1.75 1.87h0.01c-0.63 0.72-1.24 1.46-1.84 2.21-0.61 0.75-1.2 1.5-1.78 2.26l-0.28 0.37-0.29-0.37c-0.76-0.99-1.53-1.96-2.31-2.92-0.79-0.95-1.59-1.88-2.44-2.8-0.5-0.52-1-1.02-1.51-1.5-0.51-0.49-1.04-0.96-1.58-1.43h-0.01 0.01-0.01c-0.45-0.37-0.91-0.71-1.36-1.04-0.46-0.33-0.93-0.65-1.43-0.97h0.02c-0.4-0.23-0.78-0.44-1.15-0.64-0.36-0.2-0.75-0.39-1.17-0.59h0.02c-0.43-0.18-0.84-0.35-1.25-0.5-0.39-0.14-0.81-0.29-1.25-0.43l-1.81-0.43 0.03 0.01c-0.48-0.08-0.95-0.14-1.43-0.19-0.45-0.05-0.93-0.09-1.43-0.11h-43.1l-0.06-0.01c-0.57-0.09-1.12-0.19-1.66-0.29-0.54-0.11-1.09-0.23-1.64-0.36h-0.02c-0.53-0.15-1.06-0.3-1.59-0.47-0.53-0.16-1.05-0.34-1.57-0.52l-0.02-0.01c-0.5-0.2-0.98-0.41-1.45-0.62-0.49-0.23-0.96-0.45-1.43-0.69l-0.02-0.01c-0.45-0.26-0.89-0.52-1.32-0.79-0.45-0.29-0.88-0.57-1.28-0.85l-0.02-0.01c-0.4-0.32-0.8-0.64-1.18-0.96-0.38-0.33-0.75-0.66-1.13-1.02l-0.01-0.01c-0.36-0.37-0.7-0.75-1.03-1.13s-0.65-0.77-0.98-1.19l-0.01-0.02-1.16-1.72-0.01-0.03-1.01-1.89-0.02-0.03-0.86-2.06-0.02-0.03-0.71-2.24-0.01-0.02c-0.15-0.61-0.29-1.23-0.42-1.86-0.13-0.62-0.24-1.24-0.35-1.86v-0.02c-0.09-0.69-0.16-1.37-0.23-2.06-0.06-0.72-0.11-1.4-0.15-2.06v-179.8h169.6v179.8c-0.04 0.66-0.09 1.34-0.16 2.06-0.06 0.69-0.14 1.37-0.22 2.06v0.02c-0.11 0.62-0.22 1.24-0.36 1.86-0.12 0.63-0.27 1.25-0.42 1.86v0.02l-0.71 2.24zm-0.68-0.22 0.71-2.22c0.16-0.62 0.29-1.22 0.42-1.82 0.12-0.6 0.23-1.21 0.34-1.84v0.01c0.08-0.68 0.16-1.35 0.22-2.03 0.06-0.64 0.11-1.31 0.15-2.04v-179.1h-168.2v179.1c0.04 0.73 0.09 1.4 0.15 2.04 0.06 0.68 0.13 1.35 0.22 2.03v-0.01c0.1 0.63 0.22 1.24 0.34 1.84s0.26 1.2 0.42 1.82l0.7 2.22 0.85 2.02 1 1.86 1.13 1.7c0.31 0.39 0.62 0.77 0.95 1.14 0.32 0.37 0.65 0.74 1 1.1 0.37 0.34 0.73 0.67 1.1 0.99s0.76 0.63 1.15 0.93l-0.01-0.01c0.44 0.31 0.85 0.58 1.25 0.84 0.42 0.26 0.85 0.52 1.3 0.77l-0.02-0.01c0.48 0.24 0.94 0.47 1.4 0.68 0.47 0.21 0.94 0.41 1.42 0.61 0.53 0.18 1.04 0.35 1.54 0.51 0.51 0.16 1.03 0.31 1.57 0.46 0.54 0.12 1.07 0.24 1.61 0.35 0.55 0.1 1.08 0.2 1.6 0.28h43.12c0.47 0.03 0.96 0.07 1.47 0.12 0.48 0.05 0.96 0.12 1.46 0.2h0.03l1.81 0.43 0.03 0.01c0.42 0.14 0.86 0.28 1.3 0.45 0.43 0.16 0.85 0.33 1.28 0.51h0.01c0.39 0.19 0.79 0.39 1.2 0.61 0.4 0.22 0.79 0.44 1.17 0.66l0.01 0.01c0.49 0.31 0.97 0.64 1.45 0.99s0.95 0.7 1.4 1.07h0.01c0.56 0.48 1.09 0.96 1.62 1.46 0.52 0.49 1.03 1 1.53 1.53h0.01c0.85 0.92 1.67 1.87 2.46 2.84 0.7 0.85 1.38 1.71 2.05 2.57 0.5-0.64 1.01-1.28 1.51-1.91 0.61-0.75 1.22-1.49 1.86-2.23 0.57-0.65 1.16-1.28 1.77-1.9s1.23-1.22 1.87-1.79l0.01-0.01c0.44-0.38 0.89-0.75 1.36-1.11 0.46-0.36 0.93-0.71 1.41-1.04l0.01-0.01c0.37-0.23 0.74-0.46 1.14-0.7 0.38-0.22 0.76-0.44 1.16-0.65l0.02-0.01c0.4-0.19 0.81-0.38 1.24-0.56 0.4-0.17 0.82-0.34 1.26-0.5l0.02-0.01c0.44-0.14 0.89-0.27 1.35-0.39 0.45-0.12 0.9-0.23 1.37-0.33h0.02c0.5-0.08 0.98-0.14 1.47-0.19 0.5-0.06 0.99-0.09 1.47-0.12h43.11l1.01-0.16h-0.01c0.56-0.11 1.11-0.23 1.65-0.35 0.54-0.13 1.08-0.26 1.64-0.41h-0.02c0.51-0.16 1.02-0.33 1.53-0.51 0.5-0.18 0.99-0.37 1.48-0.57 0.47-0.21 0.93-0.43 1.39-0.66 0.46-0.24 0.9-0.48 1.34-0.72 0.41-0.26 0.82-0.53 1.24-0.83 0.42-0.29 0.82-0.58 1.2-0.87 0.38-0.33 0.74-0.66 1.1-0.99 0.35-0.34 0.7-0.68 1.04-1.04l1.27-1.54 1.14-1.69 0.99-1.86 0.85-2.02z"/>
<g clip-rule="evenodd">
<path d="m135.9 326.1c-18.85 2.85-25.63 5.01-25.74 6.89 0.09 4.38 17.22-2.64 25.74-6.89z" fill="url(#i)"/>
<g id="l" clip-rule="evenodd" transform="translate(-156 -250.9)">
<path d="m297.1 554.9c1.11 0.01 2.36 0.03 3.55 0.04 1.26 0.08 2.52 0.16 3.77 0.27 1.21-1.87 2.48-3.73 3.82-5.42 1.9-2.37 4.11-4.62 6.43-6.67 2.56-2.21 5.29-4.34 8.3-5.84 1.94-0.86 6.28-2.62 7.55 0.15 2.21-0.18 4.3 0.08 6.46 0.54l1.61 0.41c2.03-1.14 4.06-2 6.38-2.21 1.59 0.01 2.62 0.29 3.95 1.24l0.7 0.65c0.49-0.31 0.92-0.52 1.46-0.76l0.87-0.14 0.88 0.19 0.73 0.56c0.34 0.57 0.52 0.93 0.71 1.56 0.98-1.06 1.92-1.82 3.15-2.55 1.34-0.67 2.49-1.05 3.99-1.14 1.9 0.11 3.1 0.73 3.38 2.8-0.04 0.6-0.1 1.11-0.3 1.67 0.89-0.36 2.04-0.26 2.72 0.5 1.2-1.47 2.46-2.82 3.85-4.11l0.96-0.76c0.9-0.58 1.57-0.93 2.6-1.22l0.81-0.04c1.54 0.33 2.09 0.95 2.85 2.33l0.14 0.34c1.39-0.97 2.7-2.09 4.04-3.15-0.34-1.68-0.63-3.29-0.59-5.03 0.23-2.12 1.04-5.33 3.55-5.52 0.09 0.04 0.56 0.22 0.61 0.27 1.32-2.24 2.64-4.48 3.97-6.71-0.65-2.19-0.98-4.46-0.92-6.74 0.17-0.49 0.33-0.9 0.55-1.37 0.39-0.47 0.73-0.88 1.38-0.83l-0.12-0.35c-1-3.07-1.92-6.67-0.33-9.7 0.89-1.38 1.9-2.03 3.43-2.53-0.86-0.84-1.3-1.89-1.56-3.05-0.25-2.53 0.73-4.65 2.14-6.68-1.45-4.05-2.74-8.2-3.37-12.48-0.31-2.64-0.46-5.4 1.05-7.7v-0.77l-0.16 0.09-1.03-0.65-0.21-1.02c0.02-0.92 0.11-1.79 0.21-2.72 0.56-1.11 1.11-2.07 1.9-3.02-0.1-2.62-0.2-5.24-0.29-7.86l-0.52 0.15-0.77-0.35-0.39-0.6c-0.61-1.98-0.1-4.06 0.52-5.98 0.7-1.06 1.41-2.2 2.22-3.18-0.39-0.4-0.59-0.71-0.87-1.21l-0.18-0.87 0.14-0.89c0.52-1.02 1.07-1.71 2.02-2.36-1.74-3.42-3.32-6.95-4.48-10.63-0.77-2.68-1.48-5.66-0.35-8.35 0.78-1.4 1.69-2.03 3.21-2.43-0.67-2.19-1.03-4.31-1.12-6.59l0.05-1.19c-0.33-0.11-0.57-0.59-0.74-0.89-0.55-1.31-0.86-2.7-1.19-4.09 0.2-2.14 0.68-4.03 2.04-5.72l-0.84-5.46c-0.26 0.03-0.7-0.26-0.94-0.38l-0.56-0.67c-0.4-0.91-0.52-1.54-0.59-2.54l0.06-0.93c0.88-4.31 4.15-7.56 7.19-10.42-0.7-0.66-1.36-1.34-2.01-2.05-2.61-3.02-5.19-6.74-5.54-10.9 0-2.46 0.87-3.9 3.24-4.57l0.63-0.09c-2.75-3.29-5.58-7.46-5.22-12.02 0.37-2.31 1.5-3.9 3.65-4.75-0.06-1.22-0.05-2.42 0-3.64 0.22-2.38 0.55-4.45 1.95-6.43l0.48-0.52c0.82-0.63 1.33-0.85 2.35-0.94 1.76 0.21 2.67 1.09 3.66 2.54l0.36 0.67c0.94 2.16 1.15 4.05 1.09 6.4l-0.08 0.88c1.36-0.17 3-0.18 4.11 0.8-0.07-2.36 0.54-3.91 2.14-5.58 0.4-0.35 0.8-0.7 1.24-1-0.49-2.77-0.83-5.54-0.91-8.35 0-2.65 0.14-5.49 1.99-7.53 1.48-1.28 3.1-1.4 4.93-0.89l0.37-1.61 0.82-2.3 0.97-1.96 1.09-1.6 1.18-1.24 1.23-0.9 1.27-0.54 1.27-0.14 1.2 0.33 0.98 0.8 0.64 1.19 0.28 1.46-0.07 1.72-0.43 1.97c-0.44 1.21-0.85 2.32-1.41 3.46 0.43 0.05 0.95 0.24 1.39 0.35l1.09 0.54 0.88 0.73 0.63 0.92 0.35 1.04 0.09 1.1-0.12 1.14c-0.38 1.33-0.82 2.3-1.48 3.49l-0.81 1.17c-0.91 1.1-1.81 2.08-2.86 3.03 0.54 0.26 0.8 0.53 1.25 0.95l0.45 1 0.06 1.18c1.2-0.92 2.37-1.55 3.77-2.08 1.78-0.5 3.17-0.64 4.92 0.04l0.55 0.31c1.2 0.98 1.57 1.83 1.62 3.4l-0.08 0.72c-0.5 1.95-1.41 3.23-2.68 4.73l-0.81 0.83c0.28 0.12 0.55 0.28 0.82 0.42 0.65 1.13 1.1 2.06 1.39 3.34 0.32 2.61-0.54 4.3-2.3 6.11l-0.01 0.01c0.21 1.57 0.43 3.14 0.65 4.7l0.25-0.44 1.27 0.21c1.9 4.41-0.15 9.07-2.78 12.62l0.46 0.29c0.27 0.48 0.4 0.75 0.54 1.28 0.3 2.48-0.17 5.05 0.51 7.46 1.03-0.25 1.84 0.24 2.55 0.95 1.18 1.62 1.47 3.52 1.7 5.48 0.37 4.58-0.01 9.23-0.93 13.71 0.91 1.06 1.15 2.17 1.22 3.54l-0.08 0.9c-0.38 1.81-1.05 3.39-2.05 4.93 0.39 0.12 0.49 0.51 0.69 0.86 0.23 1.21 0.27 2.35-0.13 3.53-0.77 1.95-1.85 3.42-3.3 4.89 0.27 1.87 0.48 3.69 0.55 5.57v0.01c0.16-0.1 0.73 0.14 0.93 0.2l0.33 0.6c0.25 1.31 0.01 2.71-0.14 4.01-0.28 2.07-1.13 3.77-2.26 5.47 0.95 1.55 0.81 3.46 0.69 5.22-0.1 1.17-0.22 2.35-0.34 3.52 1.03-0.1 1.85 0.28 2.59 0.99 1.39 1.94 0.98 4.5 0.64 6.74-0.72 4.1-1.87 8.12-2.76 12.18 1.3 0 2.44 0.31 3.59 0.94 0.95 0.71 1.36 1.24 1.63 2.43 0.02 2.84-2.34 4.48-4.42 5.87-0.55 0.32-1.08 0.65-1.63 0.94 0.15 0.35 0.25 0.72 0.37 1.09 0.84-0.09 1.27 0.18 1.9 0.71 0.87 1.08 1.04 1.9 1.04 3.29l-0.14 0.89c-0.45 1.49-1.13 2.57-2.01 3.81l-0.09 0.15c0 1.74-0.02 3.52 0.58 5.17 0.02 0.06 0.79-0.07 0.9-0.08l0.56 0.74c0.32 0.88 0.53 1.77 0.56 2.72-0.16 3.57-1.93 6.78-4.33 9.27 0.06 2.68 0.12 5.37 0.19 8.05 0.49-0.03 0.83 0.07 1.29 0.24 1.58 1.01 1.93 2.62 2.17 4.41 0.39 4.86-0.97 9.74-3.21 13.98 1.35 1.05 1.11 3 0.93 4.54l-0.17 1.05 0.69 0.09 0.95 0.45 0.72 0.8 0.37 1.05 0.02 1.19-0.31 1.28-0.62 1.39c-0.86 1.37-1.72 2.6-2.83 3.78 0.46 0.21 0.79 0.44 1.21 0.74l0.54 0.7 0.27 0.83-0.02 0.86c-0.2 0.62-0.38 1.05-0.69 1.62-2.01 2.7-4.86 4.63-7.61 6.45 0.29 0.97 0.18 1.84-0.04 2.8l-0.38 0.78c-0.64 0.83-1.14 1.26-2 1.82l-0.92 0.44c-2.66 0.97-5.22 1.23-8.02 1.39l-1.86 0.05c0.04 0.72 0.07 1.43 0.1 2.15-0.42 1.79-0.8 3.64-1.49 5.34-0.31 0.53-0.56 0.7-1.04 1.07l-0.9-0.52c-1.94 1.52-3.88 3.03-5.82 4.54l-0.02-0.08-1.13 1.33 0.02 0.12c-0.64 1.86-1.3 3.75-2.61 5.24l-0.57 0.39-0.9 0.06-0.54-0.56-0.1 0.55-0.56 0.86-0.92 0.49-1.08 0.04-1.16-0.3c-1.88-0.9-3.48-2.01-5.05-3.42-0.15 0.58-0.37 0.9-0.68 1.4l-0.81 0.56-0.93 0.16c-0.69-0.12-1.14-0.25-1.79-0.52-2.05-1.25-3.47-2.8-4.94-4.71l-0.68-0.99c-0.5 1.22-1.39 1.9-2.47 2.51l-0.99 0.29-1.01 0.06c-0.73-0.09-1.31-0.22-2.02-0.44-1.57-0.79-2.78-1.71-3.73-3.26-0.2 0.54-0.4 1-0.79 1.42 2.44 1.64 5.17 3.27 6.59 5.98l0.24 0.84 0.01 0.9-0.25 0.89c-0.44 0.73-0.83 1.3-1.51 1.81 0.5 1.35 0.78 2.56 0.98 4l-0.01 1.29-0.2 1.15-0.42 0.99-0.62 0.79-0.83 0.54-0.96 0.21-1-0.12-0.99-0.41-0.95-0.68c-1.11-1.11-2.11-2.32-2.76-3.79l-0.96 0.92-1.11 0.63-1.16 0.28-1.14-0.08-1.08-0.36c-1.13-0.67-1.81-1.28-2.69-2.28l-0.7-1.02c-0.59-1.11-1.01-2.08-1.35-3.3l-0.48 0.48c-0.69 0.44-1.09 0.61-1.89 0.73-1.8-0.11-2.9-0.99-4.17-2.22-2.29-2.46-4.01-5.38-5.55-8.39-0.47-0.94-0.17-0.9-1.13-0.29l-0.86-0.25c-0.65-0.63-0.99-1.2-1.39-2.02 0.07 1.04-0.09 1.76-0.74 2.56-0.64 0.28-0.99 0.4-1.59-0.02 0.09 1.22-0.58 2.33-1.26 3.25l-0.5 0.58c-1.11 1.22-2.06 2.11-2.26 3.85l0.16 2.25c0.62 0.97 0.67 1.6 0.21 2.67l-0.43 0.53c-1.41 1.16-2.95 1.64-4.65 2.18-0.81 0.1-1.61 0.19-2.41 0.26-2.27 0.12-4.4 0.04-6.64-0.26-2.79-0.46-5.38-1.21-8.01-2.26-3.67-1.54-7.07-3.51-10.4-5.63l-3.55-2.4" transform="translate(.000009470)"/>
<g fill="#fd0">
<path d="m403.9 366.9c-0.2-11.27-7.02-21.05-5.82-28.44 0.95 7.96 3.53 12.77 5.28 17.53 0.06-2.72 0.77-8.06 2.35-8.48 0.86-5.55-0.07-9.08-5.74-7.53 2.24-12.02-8.95-16.65-7.71 0.51-5.21 1.35-5.6 8.31 2.84 17.16-8.59-1.5-5.56 8.77 2.15 15.9 1.8-2.65 3.89-4.99 6.65-6.65z" transform="translate(.000009470)"/>
<path d="m411.4 361c0.53-6.76 8.88-14.62 17.84-23.88-10.49 7.9-18.81 15.68-19.59 25.37-1.27 1.02-2.54 2.04-3.8 3.07-1.66-0.46-1.73-1.59-0.21-3.39-1.38-12.44 1.39-16.6 6.48-16.11 3.05-8.92 6.58-12.8 10.81-9.32 7.98-9.47 18.36-3.53 6.68 5.72 1.02 1.35 1.38 3.51 0.99 4.53-0.27 0.69-1.33 1.74-3.08 2.83-4.83 2.97-11.58 8.89-16.12 11.18z" transform="translate(.000009470)"/>
<path d="m423 335.8c2.25-3.71-0.02-4.96-2.11-4.82 6.99-5.11 9.64-13 1.59-13.24 7.58-13.77-4.64-14.9-7.25-0.24-5.66-2.15-8.23 1.74-5.66 15.98-3.2 2.14-4.94 4.64-1.94 11.83 0.58 1.37 2.6-0.15 3.44 0.03 0.13-1.1 1.1-3.71 2.21-4.27-1.77-9.55 1.57-18.08 6.2-26.17-2.89 7.6-6.22 16.6-4.71 23.92 2.3-4.6 4.37-5.78 8.23-3.02z" transform="translate(.000009470)"/>
<path d="m432.4 342.6c1.88 3 1.71 5.86-1.43 8.5-22.07 15.44-35.9 25.55-39.22 33.94-0.25 1.17 0.02 2.11 0.22 3.06-1.4 0.5-2.07-2.09-1.48-4.17 1.65-4.82 5.08-7.38 9.77-11.93 7.59-7.1 19.03-15.19 29.81-23.11 1.47-1.35 1.66-2.79 1.26-4.26-1.33-3.09-0.3-2.8 1.07-2.03z" transform="translate(.000009470)"/>
</g>
<path transform="translate(.000009470)" d="m431.2 351.9c0.23 1.73 0.47 3.45 0.71 5.18-0.92 4.74-3.55 8.59-6.53 11.76-7.97 8.44-17.46 13.62-27.48 20.81-1.69 1.34-3.35 2.86-4.85 4.4-0.36-2.34-0.71-4.68-1.07-7.03 1.09-3.28 3.23-4.31 5.46-7.01 5.77-6.18 12.35-12.03 19.75-17.57 5.32-3.24 9.56-7.87 14.01-10.54z" fill="url(#f)"/>
<g fill="#fd0">
<path d="m433 358.3c0.43-2.53 0.79-2.09 1.07 1.3-0.17 4.33-2.86 7.95-5.92 11.46-9.28 9.24-21.57 16.87-32.38 24.8-2.1 1.6-2.94 3.32-2.52 5.18-0.27 5.44-1.08 3.93-2.15-0.74 0.18-2.38 0.92-4.51 2.87-6.1 7.54-6.29 15.35-10.33 19.74-13.49 8.23-6.56 11.42-9.4 16.03-15.7 1.46-1.98 2.3-4.42 3.26-6.71z" transform="translate(.000009470)"/>
<path d="m430.6 411.7c5.53-6.13 7.64-10.93 4.75-13.8 1.97-9.03 1.67-21.62-2.84-19.21-1.49-2.83-0.23-8.19-1.2-9.25-0.23-0.24-0.57 0.1-1.09 0.39-2.78 3.78-5.72 6.59-10 9.75-1.97 1.45-0.02 3.68 2.3 6.87-2.22-0.63-4.94 0.38-4.16 3.94 2.22 2.14 3.42 3.5 3.68 7.2 2.25-0.89 5.19 1.84 7.61 6.67 0.57-9.23-0.63-18.01-2.47-26.62 3.6 9.87 4.66 19.82 3.61 29.85 0.69 1.21-2.16 4.21-0.19 4.21z" transform="translate(.000009470)"/>
<path d="m424.6 416.7c1.66-5.65-4.72-13.65-12.45-21.88 5.93 7.85 10.93 15.24 10.49 23.42-1.46 1.07-2.91 2.13-4.37 3.2-4.99-5.66-11.01-11.5-4.28-14.91-2.11-0.68-3.4-1.76-3.36-4.33 0.57-2.37-2.09-6.12-3.64-6.24 0.62-2.43 0.02-4.43-0.34-6.52 1.45-2.41 3.83-1.56 7.13 3.62 2.76-2.53 5.2-3.9 7.35 6.22 4.91-3.01 7.19 3.95 6.58 14.22-1.04 1.07-2.08 2.13-3.11 3.2z" transform="translate(.000009470)"/>
<path d="m407.6 428.9c3.86-9.78 3.33-14.31-1.62-13.61 4.33-9.78 4.64-16.28-0.6-16.33 0.91-3.88 0.81-5.89-0.2-7.52-2.61 1.8-5.22 3.6-7.82 5.4-0.23 0.98 0.37 1.68 0.52 2.66-4.14 0.96-6.65 4.87-3.52 14.44-5.56 0.31-5.84 6.39 1.61 20.92-2.6 1.64-3.1 3.14-1.49 4.5 0.94-2.16 2.55-3.34 4.26-4.38-4.7-10.35-0.5-22.03 1.95-33.53-1.51 13.01-5.21 28.63 0.12 31.61 2.26-1.38 4.52-2.77 6.79-4.16z" transform="translate(.000009470)"/>
<path d="m433.7 409.1c1.13-2.25 1.95-1.55 1.58 1.43-0.78 2.55-2.6 4.62-4.88 6.48-9.04 6.68-18.4 13.31-28.44 19.67-3.41 2.09-5.79 5.02-7.46 8.51-2.81 7.29-3.62 2.27-2.16-1.77 2.12-3.25 4.46-6.39 8.33-8.75 10.57-7.34 20.83-14.32 30.15-21.48 1.28-1.06 2.07-2.51 2.88-4.09z" transform="translate(.000009470)"/>
</g>
<path transform="translate(.000009470)" d="m431.9 417.3c0.33 2.23 0.48 4.46 0.43 6.67-0.86 2.11-1.86 4.31-3.88 7.11-5.31 5.3-11.15 9.77-17.23 13.86-5.79 3.52-11.58 6.97-17.37 11.67-0.1-2.61-0.19-5.21-0.29-7.82 1.68-4.23 4.07-7.92 8.04-10.44 7.47-4.93 14.94-9.87 22.4-14.8 2.92-1.92 5.75-3.9 7.9-6.25z" fill="url(#e)"/>
<g fill="#fd0">
<path d="m432.4 424.7c1.27-3.2 1.55-2.29 0.86 2.72-0.98 3.57-3.44 6.21-6.03 8.78-9.4 8.84-19.58 15.25-29.72 22.01-1.46 1.13-2.79 2.34-3.88 3.74-1.3 2.15-2.36 3.48-1.72-1 0.79-1.66 1.73-3.04 3.01-3.8 6.79-4.9 13.63-9.68 20.53-14.33 8.91-5.51 14.66-11.54 16.95-18.12z" transform="translate(.000009470)"/>
<path d="m431.4 432.7c1.14 1.6 0.49 4.39 0.02 9.34 6.58-1.74 2.72 8.79 0.57 18.72-1.69-0.36-2.35 0.87-3.91 1.43 1.99-7.15 1.6-14.37-1.96-22.48 1.8 7.67 2.04 15 0.7 21.36-1.96-0.79-5.46-1.32-7.67 1.47-4.02-7.6-4.18-14.19 1.77-14.16-2.49-2.92-2.5-3.45-1.05-3.99 3.99-2.93 8.46-7.57 11.53-11.69z" transform="translate(.000009470)"/>
<path d="m416.7 458.4c-1.6-1.7-2.98-2.35-4.34-2.86-0.49-0.14-1.41-0.23-0.23 1.98 2.29-0.33 3.18 1.02 4.3 2.31 0.37-0.04 0.41-0.58 0.27-1.43z" transform="translate(.000009470)"/>
</g>
<path transform="translate(.000009470)" d="m412.3 457.4c2.71 0.21 4.85 1.97 6.42 5.27-2.46 1.67-4.46 4.17-5.99 7.51 0-2.86-0.81-4.77-2.43-5.72 1.24-2.24 1.91-4.59 2-7.06z" fill="#008bd2"/>
<g fill="#fd0">
<path d="m411.8 469.8c0.37-2.74-0.58-4.1-2.87-4.1 3.86-11.79 2.24-14.4-1.87-12.84-3.07 2.1-6.14 4.2-9.22 6.29-0.62 1.03-0.74 2.91-0.37 5.65-7.54-0.8-6.63 8.06-1.87 21.3-2.86 3.93-3.07 7.01-0.62 9.24 0.2-4.62 1.74-7.87 4.61-9.76-2.58-7.27 2.28-17.1 4.23-28.35-0.29 9.45-4.94 22.24-1.99 27.97 1.43-8.43 4.21-14.5 9.97-15.4z" transform="translate(.000009470)"/>
<path d="m428.2 467.6c-9.05 3.92-17.33 9.43-23.93 18.48-4.31-1.14 2.91-18.17 9.46-15.01 5.6-7.84 10.72-12.67 14.1-6.8 3.34-5.63 17.38-1.01 2.98 6.28 2.97 5.65-1.69 8-9.83 8.86 5.71 3.71-5.39 8.44-14.55 16.04 0.04-0.31-0.99-0.61-1.76-0.27 0.31-1.74 0.52-5.83 0.38-6.92 5.26-9.53 13.75-15.58 23.15-20.66z" transform="translate(.000009470)"/>
<path d="m432.5 474.6c1.82 3.51-10.52 10.78-25.33 21.49 0.29 0.55 0.58 1.11 0.87 1.67 12.37-7.52 22.68-13.04 26.08-20.21 1.72-4.62-3.02-5.99-1.62-2.95z" transform="translate(.000009470)"/>
</g>
<path transform="translate(.000009470)" d="m432.2 481.4c0 2.27 0.13 4.45 1.12 6.03-0.75 7.34-9.83 14.71-23.22 23.08-0.37-1.58-1.24-2.65-2.61-3.21 1.12-3.16 1.24-6.46 0.37-8.6 10.62-6.15 17.87-11.14 24.34-17.3z" fill="url(#d)"/>
<g fill="#fd0">
<path d="m433.6 488.4c0.44-2.03 0.84-1.8 1.21 0.69 0.13 1.92-0.89 5.78-3.87 8.82-5.41 6.01-11.98 10.7-18.98 14.92-1.26 0.5-2.32-1.41-1.04-1.97 8.71-4.95 18.68-12.49 21.23-17.91 0.74-1.23 1.16-2.81 1.45-4.55z" transform="translate(.000009470)"/>
<path d="m431.7 530.7c0.44-2.48 0.59-4.67-1.2-4.86 5.2-8.58 4.61-20.18 0.18-17.82l-0.18-8.01c-3.8 3.81-7.96 7.24-12.5 10.29 0.03 0.51 0.07 1.02 0.1 1.53-4.51-1.24-5.09 5.37 2.4 13.82-1.95 0.74-2 2.02-1.23 3.84 0.82 0.58 2.84 2.04 2.71 3.98 0.62-0.1 1.05-0.29 1.67-0.38 2.31-8.26 2.23-17.19 1.94-25.84 1.12 10.05 1.77 19.59-0.83 25.55 0.83 0.32 1.3 0.76 1.39 1.34 1.54-2.42 3.52-3.06 5.55-3.44z" transform="translate(.000009470)"/>
<path d="m397.5 520.3c-1.37-9.08 2.18-17.33 1.76-26.4-0.76 10.62-5.01 18.47-3.43 26.22-1.65-0.59-2.23-3.68-2.31-7.92-3.88-8.64-4.57-14.88 1.76-15.82 1.29-11.36 9.94-14.56 8.51 0.57 4.16-1.26 4.03 4.45 2.69 12.11 2.9 0.64 4.04 2.8 3.42 6.48-5.64-5.18-12.29-4.85-7.4 7.34-2.46 1.77-2.56 2.39-0.74 5.53 0.86 1.59 1.72 3.17 2.59 4.77-0.07 1.19-0.62 1.48-1.67 0.85-1.2-2.77-2.92-5.26-4.53-7.81-0.35-1.89-0.69-3.83-0.65-5.92z" transform="translate(.000009470)"/>
<path d="m410.3 547.6c-1.83-3.52-3.66-7.05-5.49-10.57-0.59-2.03-0.21-2.92 1.14-2.67-0.21-2.46-8.18-8.7-0.94-10.79-7.84-11.89 2.77-14.39 5.4-2.35 2.06-5.13 6.03-3.21 6.95 9.61 3.4 0.12 8.16 6.35-4.15 19.23 1.14 1.64 0.62 2.71-1.56 3.2-0.27-1.03-0.55-2.06-0.83-3.09 5.33-8.96 3.43-18.93-3.42-29.59 4.68 10.16 7.36 19.71 2.9 27.02z" transform="translate(.000009470)"/>
<path d="m429.9 541.4c9.63-9.46 1.94-13.1-4.36-5.23-1.31-2.89-2.77-2.92-4.36-0.11-0.36 4.74-2.19 9.3-7.26 13.46v2.35c5.39-2.23 10.04-8.63 14.84-14.21-5.69 8.73-11.47 15.49-17.43 17.95 0.28 0.96 0.55 1.92 0.83 2.88 9.68-0.1 13.69-2.35 12.03-6.73 7.83-5.07 11.43-8.99 5.71-10.36z" transform="translate(.000009470)"/>
<path d="m392 510.2c-0.85-1.44-1.53-1.29-2.02 0.45-0.3 6.31 4.2 16.39 12 29.05 4 6.6 6.46 14 7.38 22.19-0.34 6.85 0.29 6.75 1.88-0.3-0.24-8.64-2.6-16.68-7.09-24.13-6.23-9.38-11.73-18.67-12.15-27.26z" transform="translate(.000009470)"/>
</g>
<path transform="translate(.000009470)" d="m390.3 518.5c1.39 6.86 7.39 13.91 11.82 23 3.72 7.88 7.51 15.34 6.11 25.26-1.59 1.24-4.7 3.52-6.29 4.77-2-7.81-5.13-16.07-9.45-22.95-5.13-8.86-7.66-17.14-6.24-23.22 1.35-2.29 2.7-4.57 4.05-6.86z" fill="url(#c)"/>
<g fill="#fd0">
<path d="m359.9 546c2.94-3.8 5.7-6.73 7.22-3.61 7.09-8.99 9.59-7.69 10.8-3.52 0.88-0.62 1.77-1.25 2.66-1.88 0.65 2.43 1.41 4.81 2.89 6.82-0.66 0.49-1.4 0.91-2.67 0.78 6.15 4.44-0.18 6.32-8.28 7.83 3.75 4.31-0.31 6.73-12.17 7.28 0.66 0.55 0.61 1.2-0.15 1.96-2.58-1.28-5.7-1.47-8.9-1.49 0.26-1.85 1.04-2.98 1.91-3.99 3.59-1.44 6.31-3.33 7.99-6.05 5.75-3.92 11.53-6.77 19.23-9.14-6.49 1.76-12.37 2.2-19.07 6.41-0.71-0.29-1.57-0.28-1.46-1.4z" transform="translate(.000009470)"/>
<path d="m388.7 555c1.54 1.96 2.85 4.16 4.19 6.33-1.33 0.8-3.63 0.31-5.57 0.48-1.06-0.42-1.3-1.24-0.94-2.29-0.97-1.72-1.49-2-3.07-2.89 1.93-0.13 3.87-0.66 5.39-1.63z" transform="translate(.000009470)"/>
<path d="m374.7 554.8c7.4 0.54 11.26 2.6 9.97 6.91 8.18 2.79 12.36 5.78 7.73 9.22 5.81 5.42 5.84 14.05-4.82 3.93 0.04 7.11-7.18 0.22-9.39-4.61-1.02 7.09-8.96 4.68-10.27-1.66-1.57-3.39-4.05-5.39-6.93-6.76 0.13-0.54 0.25-1.08 0.38-1.63 2.64 1.22 6.34 0.37 10.32-1.07 5.39 1.21 11.88 5.41 20.34 14.92-4.45-7.78-11.12-12.59-18.6-16.33 1.9-1.09 2.33-2.06 1.27-2.92z" transform="translate(.000009470)"/>
<path d="m384.6 528.3c1.33 9.02 4.68 17.31 9.38 24.9 3.51 6.48 6 13.68 6.87 20.16-1.54 4.79-4.41 8.47-2.39-1.5-1.3-8.51-4.54-14.69-8.97-21.82-3.72-5.47-5.44-11.81-6.53-18.18-0.99-5.1 2.02-8.2 2.59-7 0.25 0.54-1.33 1.91-0.95 3.44z" transform="translate(.000009470)"/>
<path d="m323.3 558.1c5.02-3.43 9.23-7.19 12.97-11.13 1.94-2.04 3.95-3.41 6.52-0.03 6.48-8.57 10.91-12.14 10.81-4.69 4-8.11 17.82-7.56 4.77 4.34 7.87 2.86-4.39 8.73-9.12 8.89 5.5 3.81-3.58 10.6-13.79 9.41-2.13-1.44-4.27-2.89-6.4-4.33 13.59-3.82 21.28-10.69 29.06-17.5-9.98 7.79-20.34 14.29-32.02 16.18-0.93-0.38-1.87-0.76-2.8-1.14z" transform="translate(.000009470)"/>
<path d="m349.6 561.1c7.55-1.6 22.74 7.94 16.31 12.3 4.94 3.33 10.51 6.65 5.49 9.97 3.87 9.04-2.59 12-6.45 2.42-4.29 7.35-10.82-1.77-9.55-6.94-3.37 10.84-11.32-4.07-13.47-9.22-0.63 5.91-2.67-2.36-4.19-3.55 3.99 0.06 5.84 0.77 8.9-1.57 9.58 3.3 17.01 11.32 23.1 22.27-10.74-20.28-16.31-21.43-21.36-23.88 0.12-0.54 1.1-1.26 1.22-1.8z" transform="translate(.000009470)"/>
<path d="m347.1 540.5c0.54-0.62 1.09-1.24 1.63-1.86-2.36-2.48-6.02-1.55-10.27 0.93-6.35 6.22-13.13 12.16-20.26 17.86 0.85 0.13 1.7 0.26 2.56 0.39 6.68-5.38 13.22-10.85 19.25-16.59 2.68-1.64 5.13-2.28 7.09-0.73z" transform="translate(.000009470)"/>
</g>
<path transform="translate(.000009470)" d="m337.6 539.2c-4.37-1.17-8.76-1.24-13.2 1.13-6.99 4.38-11.66 9.55-15.5 15 2.82 0.64 5.65 1.28 8.47 1.93 7.66-5.66 14.37-11.69 20.23-18.06z" fill="url(#b)"/>
<path transform="translate(.000009470)" d="m329.7 538.2c-1.74 0.04-3.58 0.71-5.44 1.46-6.15 3.51-11.56 8.81-16.48 15.34-0.69-0.03-1.39-0.05-2.09-0.07 3.98-6.26 9.29-11.55 15.91-15.87 4.8-2.75 8-2.66 8.1-0.86z" fill="#fd0"/>
<path d="m384.1 547.4c1.17 1.77 2.33 3.54 3.5 5.32-1.75 1.64-4.11 2.45-7.07 2.43-3.36-0.37-2.78-2.42-0.85-3.41 3.3-0.07 4.78-1.15 4.42-4.34z" fill="#fd0"/>
</g>
<g transform="translate(-156 -250.9)">
<path d="m302.2 577c18.85 2.85 25.64 5.01 25.75 6.89-0.1 4.38-17.22-2.64-25.75-6.89z" fill="url(#h)"/>
<path d="m257.9 570.6c9.19-9.19 23.57-11.4 37.59-11.75 15.2 0.09 31.19 3.52 40.46 12.94 1.77 3.23 2.77-0.05 1.87-1.34-9.07-9.04-23.14-13.94-42.19-14.68-22.78 1.06-33.68 6.2-39.17 13.2-1.1 1.15-0.49 5.8 1.44 1.63z" fill="#fd0"/>
<path d="m259 570.5c10.05-7.15 20.61-10.69 37.3-10.38 14.39 0.47 27.32 3.04 37.87 11.42 4.34 3.56-5.08 4.94-2.73 9.64-8.83-6.24-21.5-7.27-34.57-7.56-12.97-0.27-24.81 1.54-34.7 8.01 0.81-5.19-6.29-5.49-3.17-11.13z" fill="url(#j)"/>
<path d="m294 576.9c0.48 0 2.11 0.45 2.59 0.45-8.7 5.76-17.98 11.87-30.31 10.08-7.41-2.19-4.07-3.86-2.88-5.64 10.22-5.54 21.17-7.55 32.54-7.56 11.92 0.1 23.71 1.22 34.85 7.27 1.18 2.24 4.3 4.69-2.3 6.08-14.69 1.14-24.7-5.74-31.75-10.68 0.67-0.15 1.77-0.07 2.45-0.22 11.92 9.62 32.42 10.85 31.17 7.79 3.14 0.66-11.2-8.84-33.26-8.01-17.28 0.16-34.19 5.31-32.69 8.3 4.51 4.49 19.63-2.11 29.59-7.86z" fill="#fd0"/>
</g>
</g>
<g id="k" transform="translate(-156 -250.9)">
<use xlink:href="#m" transform="matrix(.9337 .3580 -.3580 .9337 156.5 -90.45)" height="341.78" width="282.094" y="0" x="0"/>
<g id="m" transform="matrix(.9358 -.3526 .3526 .9358 -112.9 137.7)">
<path clip-rule="evenodd" d="m410.5 295.3c-0.08-0.74-0.15-1.48-0.22-2.22-1.38-0.18-2.75-0.37-4.14-0.44-0.08-0.76-0.15-1.51-0.23-2.27-6.46-0.55-12.37 1.88-18.76 2.25l0.9 2.36c2.9-0.36 5.37-1.3 8.22-1.91 0.32 0.79 0.63 1.58 0.95 2.38 2.54-0.29 7.19-0.91 9.76-0.49 0.76 0.08-0.31 0.02-0.57 0.03-1.45 0.02-4.92 0.57-6.37 0.66 0.32 0.79 0.63 1.58 0.95 2.38 4.57-1 8.96-0.8 13.15 0.2-0.08-0.82-0.16-1.63-0.24-2.45-1.14-0.16-2.27-0.33-3.4-0.48zm-14.22-2.23c2.11-0.45 6.4-0.76 8.55-0.45-2.16 0.07-6.39 0.34-8.55 0.45zm17.61 11.28c0.83 0.08 1.65 0.23 2.48 0.37-0.08-0.82-0.17-1.63-0.25-2.45-6.91-0.71-15.19 0.16-21.51 0.55 0.32 0.79 0.63 1.58 0.95 2.37 5.51-0.51 13.57-1.24 18.33-0.84zm-16.25-5.43c0.32 0.79 0.64 1.58 0.95 2.37 4.55-0.62 10.92-0.96 15.47-0.13 0.4 0.02 1.01 0.26 1.28 0.14l-0.24-2.37c-5.6-0.7-12.54-0.32-17.46-0.01z"/>
<path d="m397.5 305.6 0.47 1.69c4.3-0.55 11.91-0.32 16.96 0.6l-0.11-1.66c-5.52-0.65-11.56-1.03-17.32-0.63z" stroke="#000" clip-rule="evenodd" stroke-width=".7" fill="#fd0"/>
<path transform="translate(-.5658 .835)" clip-rule="evenodd" d="m396.2 302.7c0.12 0.31 0.25 0.62 0.37 0.93 4.37-0.55 14.41-1.49 19.51-0.56-0.03-0.31-0.03-0.59-0.06-0.91-5.79-0.65-14.03 0.15-19.82 0.54z" fill="#fd0"/>
<path clip-rule="evenodd" d="m398.7 299.6c0.12 0.32 0.24 0.62 0.37 0.93 4.36-0.55 10.37-0.93 15.47 0-0.03-0.31-0.06-0.61-0.09-0.93-4.83-0.68-10.93-0.3-15.75 0z" fill="#fd0"/>
<path clip-rule="evenodd" d="m401.1 296.3c0.12 0.31 0.24 0.62 0.37 0.93 4.83-0.76 6.95-0.8 11.87 0.11-0.04-0.31-0.07-0.62-0.1-0.93-4.92-0.76-6.98-0.98-12.14-0.11z" fill="#fd0"/>
<path transform="translate(-.5658 .835)" clip-rule="evenodd" d="m397.9 292.9c0.12 0.31 0.22 0.59 0.34 0.9 4.12-0.44 6.6-0.77 12.03 0-0.03-0.31-0.06-0.59-0.09-0.9-3.53-0.73-9.56-0.18-12.28 0z" fill="#fd0"/>
<path transform="translate(-.5658 .835)" clip-rule="evenodd" d="m388.6 292.5c0.13 0.31 0.25 0.6 0.38 0.91 4.36-0.56 11.79-3.15 16.9-2.22-0.03-0.31-0.07-0.63-0.1-0.94-5.52-0.48-9.85 1.47-17.18 2.25z" fill="#fd0"/>
<path d="m384.6 292.2 0.58 1.17c4.16-2.48 16.99-5.18 20.34-4.38l-0.46-1.61c-6.04-0.3-16.48 2.55-20.46 4.82z" stroke="#000" clip-rule="evenodd" stroke-width=".7" fill="#fd0"/>
</g>
<g clip-rule="evenodd">
<path d="m343 294.2-0.01-0.01v0.01h0.01zm-1.02-10.81 0.35-0.67 0.58-0.89 0.68-0.9 0.79-0.9 0.89-0.92 2.58-2.44 0.57 1.53 0.07-0.31 0.34-1.05 0.43-1 0.54-0.96 0.62-0.91 0.72-0.87 0.8-0.82 0.89-0.79 2.65-2.03 0.78 2.88 0.15 0.88 0.08 0.89v0.09l0.81-0.64 0.99-0.58 1.09-0.46 1.19-0.35 1.28-0.24 1.39-0.13 1.48-0.03 1.6 0.07 3.57 0.37-1.24 3.12-0.59 1.27-0.65 1.16-0.7 1.06-0.76 0.95-0.81 0.84-0.86 0.73-0.23 0.15 0.66 0.11 0.98 0.22 1 0.27 2.86 0.9-1.58 2.29-0.5 0.65-0.49 0.59-0.51 0.54-0.51 0.49-0.52 0.44-0.54 0.39-0.54 0.34-0.55 0.29-0.56 0.24-0.57 0.2-0.57 0.16-0.56 0.11-0.57 0.08h-0.06l-2.54 2.05-1.29 0.89-1.25 0.72-1.2 0.55-1.16 0.41-1.11 0.27-0.04 0.01 3.72 0.96-3.55 2.86-1.29 0.89-1.25 0.71-1.2 0.55-1.16 0.41-1.11 0.28-1.06 0.16-1.01 0.07h-0.95l-0.88-0.05-0.83-0.07-0.77-0.08-0.7-0.07-0.65-0.04-0.59 0.01-1.69 0.16-0.88-2.14-0.41-1.11-0.34-1.06-0.26-1.04-0.17-1-0.09-0.99 0.03-0.98 0.13-0.96 0.25-0.95 0.36-0.93 0.47-0.9 0.58-0.9 0.68-0.89 0.79-0.9 0.89-0.92 2.57-2.44 0.02 0.05zm7.23 4.05-0.14-0.48-0.2 0.58 0.34-0.1z"/>
<path d="m357.7 308.9 0.27-0.64 0.57-1.06 0.67-1.02 0.76-0.96 0.86-0.9 0.95-0.84 1.05-0.78 1.14-0.71 1.23-0.65 3.17-1.41 0.08 1.01 0.02-0.06 0.67-1.01 0.77-0.96 0.85-0.9 0.95-0.84 1.05-0.78 1.14-0.71 1.23-0.65 3.18-1.41 0.19 2.74 0.47-0.76 0.7-0.9 0.77-0.84 0.85-0.76 0.92-0.68 0.99-0.6 1.06-0.53 1.12-0.44 2.84-0.89 0.25 2.74 0.01 0.98-0.06 0.95-0.08 0.56 0.78-0.72 0.9-0.62 0.99-0.48 1.06-0.34 1.13-0.2 1.18-0.05 1.23 0.09 1.29 0.23 1.35 0.36 1.4 0.49 1.47 0.63 3.22 1.59-2.25 2.49-1.01 0.99-1.01 0.86-1.03 0.74-1.04 0.63-1.05 0.5-1.07 0.38-0.21 0.05 0.11 0.06 0.52 0.29 0.51 0.32 0.5 0.35 0.5 0.37 0.49 0.4 1.85 1.62-2.2 1.54-0.72 0.44-0.72 0.41-0.71 0.36-0.71 0.31-0.72 0.27-0.72 0.23-0.71 0.19-0.71 0.15-0.71 0.11-0.71 0.08-0.7 0.04-0.7 0.01-0.69-0.03-0.69-0.05-0.34-0.04 0.16 0.12-2.44 1.61-0.76 0.46-0.74 0.43-0.73 0.39-0.72 0.35-0.71 0.31-0.7 0.28-0.69 0.24-0.68 0.21-0.67 0.17-0.66 0.14-0.65 0.1-0.64 0.07-0.63 0.04-0.45 0.01 1.93 1.5-2.43 1.61-0.76 0.46-0.74 0.43-0.73 0.39-0.72 0.35-0.72 0.31-0.69 0.28-0.69 0.24-0.68 0.21-0.67 0.17-0.66 0.14-0.65 0.1-0.64 0.08-0.61 0.04 0.44 0.25 0.52 0.32 0.5 0.35 0.5 0.36 0.49 0.4 1.84 1.62-2.2 1.54-0.71 0.45-0.72 0.4-0.71 0.36-0.72 0.31-0.72 0.28-0.71 0.23-0.72 0.19-0.71 0.14-0.71 0.12-0.7 0.07-0.71 0.04-0.69 0.01-0.7-0.02-0.69-0.06-0.68-0.08-0.68-0.1-0.67-0.13-0.67-0.15-0.66-0.18-0.66-0.19-0.65-0.21-0.65-0.22-0.64-0.24-0.64-0.25-0.64-0.26-0.63-0.27-0.63-0.28-0.63-0.28-0.62-0.29-0.62-0.29-1.5-0.71 0.14-2.35 0.16-1.36 0.23-1.29 0.3-1.23 0.38-1.18 0.46-1.1 0.54-1.05 0.61-0.98 0.7-0.91 0.77-0.83 0.85-0.76 0.92-0.68 0.99-0.61 1.05-0.52 1.13-0.44 1.65-0.52zm1.64 10.64-0.05-0.03-0.48-0.3-0.47-0.31-0.46-0.32-0.46-0.34-0.09-0.08-0.07 0.11-0.51 0.73-0.46 0.59h0.06l0.58-0.04 0.58-0.02 0.58-0.01h0.58l0.57 0.02h0.1zm8.3-7.4-0.28-0.22-0.89-0.69-0.12 0.21-0.55 0.8 0.57-0.06 1.03-0.05 0.24 0.01zm8.53-6.26 0.04-0.64-0.48 0.69 0.44-0.05zm10.47-4.91-0.65-0.41-0.37 0.47 0.06-0.01 0.59-0.04 0.37-0.01z"/>
<g fill="#fd0">
<path d="m387.3 299.7c2.11-5.66 6.62-7.3 14.67-3.07-5.02 5.89-9.89 6.34-14.67 3.07z"/>
<path d="m397.8 306.1c-4.62-4.22-10.41-4.19-16.52-2.97 3.84-2.87 6.28-6.37 5.66-11.23-5.94 1.61-9.03 6.06-9.28 13.37 6.54 3.11 13.1 5.97 20.14 0.83z"/>
<path d="m368.5 324.7c-4.63-4.23-10.41-4.2-16.52-2.97 3.83-2.88 6.28-6.38 5.66-11.23-5.94 1.61-9.04 6.06-9.29 13.36 6.55 3.12 13.11 5.97 20.15 0.84z"/>
<path d="m377 295.8c0.48 4.91-1.25 9.32-6.22 13 5.07-2.11 9.99-2.36 14.57 1.48-7.91 5.36-13.1 3.75-17.54 0.19-0.3-6.75 2.31-11.89 9.19-14.67z"/>
<path d="m367.1 302.1c0.48 4.91-1.25 9.32-6.22 13 5.08-2.11 10-2.35 14.58 1.48-7.91 5.36-13.11 3.75-17.54 0.19-0.31-6.75 2.31-11.88 9.18-14.67z"/>
<path d="m355.2 281.5c-0.01-6.05 3.65-9.16 12.67-8.01-2.64 7.27-7.05 9.4-12.67 8.01z"/>
<path d="m367.2 283.8c-5.22-1.75-9-1.39-14.75 1.44 1.54-4.56 3.39-9.48 2.15-13.29-5 3.58-6.34 8.25-4.01 15.18 7.22 0.63 11.81 3.95 16.61-3.33z"/>
<path d="m347.2 279.2c1.75 4.43 1.03 6.03-1.09 11.21 4.02-2.64 6.98-2.26 12.61-0.76-6.91 5.95-10.97 2.99-14.61 3.56-2.64-6.21-2.38-9 3.09-14.01z"/>
<path d="m341.4 285.9c1.75 4.43 1.03 6.03-1.08 11.21 4.02-2.65 6.97-2.26 12.6-0.77-6.9 5.96-10.96 3-14.6 3.57-2.64-6.21-2.38-9 3.08-14.01z"/>
<path d="m328.1 308.6c1.75 4.44 1.03 6.04-1.08 11.22 4.01-2.65 6.97-2.26 12.6-0.77-6.91 5.96-10.97 3-14.61 3.57-2.64-6.21-2.38-9 3.09-14.02z"/>
</g>
<path d="m328.4 306.9c0.03 0.02 0.06 0.05 0.09 0.07l0.78 2.08 0.26 0.78 0.2 0.75 0.15 0.72 0.09 0.7 0.04 0.68-0.02 0.68-0.07 0.67-0.12 0.67-0.16 0.67-0.2 0.7-0.25 0.72-0.28 0.75-0.05 0.13 0.68-0.25 0.77-0.23 0.77-0.16 0.78-0.11 0.79-0.04h0.8l0.81 0.06 0.84 0.1 0.87 0.14 0.9 0.18 0.94 0.21 0.7 0.17c0.5 0.72 0.98 1.46 1.45 2.21l-1.07 0.85-1.26 0.87-1.21 0.69-1.16 0.54-1.12 0.39-1.07 0.27-1.02 0.16-0.97 0.06h-0.91l-0.87-0.04-0.81-0.08-0.77-0.08-0.71-0.07-0.67-0.04-0.63 0.01-1.36 0.13-0.74-1.81-0.4-1.09-0.33-1.04-0.25-0.99-0.17-0.97-0.08-0.94 0.02-0.93 0.12-0.91 0.24-0.89 0.34-0.88 0.45-0.86 0.56-0.86 0.66-0.86 0.77-0.88 0.87-0.91 1.99-1.89z"/>
<path d="m339.3 319c0.04 0.06 0.08 0.12 0.12 0.19-6.82 5.8-10.85 2.88-14.47 3.45-2.64-6.21-2.38-9 3.09-14.02 1.75 4.44 1.03 6.04-1.08 11.22 3.95-2.61 6.87-2.27 12.34-0.84z" fill="#fd0"/>
</g>
</g>
<g clip-rule="evenodd" transform="translate(-156 -250.9)" fill-rule="evenodd">
<path d="m235.7 327.5c-2.7-1.9-5.4-3.7-8.1-5.6 1.3-2.8 2.5-5.6 3.8-8.4 3.2 0.7 6.4 1.5 9.6 2.3 0.2-1.3 2.4-2.6 1.2-3.7-2-2.6-3.9-5.1-5.9-7.7 2-2.4 3.9-4.8 5.8-7.2l9 4.8c1.3-1.4 2.7-2.6 4-3.8-1.5-2.7-3-5.3-4.6-7.9 2.2-2.2 4.4-4.4 6.6-6.5 3.1 2.1 6.3 4.3 9.4 6.4 18.1-10.1 41.2-10.4 59.6-0.8 3.3-2.2 6.6-4.5 9.8-6.7 2.2 2.1 4.4 4.3 6.6 6.5-1.5 2.6-3.1 5.3-4.7 8 1.4 1.2 2.8 2.4 4.1 3.7l9-4.8c1.9 2.4 3.9 4.8 5.8 7.2-2.1 2.7-4.1 5.4-6.2 8.1 1 1 1.2 3.4 2.9 2.5 2.9-0.7 5.8-1.4 8.7-2.1 1.2 2.8 2.5 5.6 3.7 8.5-2.6 2.4-5.3 4.8-8 7.2h-122.1zm22.1-2.4c7.8-14.6 24.2-24.1 40.7-23.4 15.6 0.4 30.4 9.7 37.7 23.4h-78.4z"/>
<path fill="#cec8ea" d="m229.4 321.5 2.8-6.3 9.5 2.2c0.9-1.6 1.8-3.1 2.7-4.7l-6.2-8.3 4.3-5.4 8.9 4.8c1.8-1.9 3.6-3.7 5.6-5.3l-4.7-8 5-4.8 9.1 6.3c18.1-10.5 41.5-10.8 59.8-0.9l9.6-6.5 4.9 4.8-4.7 8.1c1.9 1.6 3.8 3.3 5.6 5.1l8.9-4.7 4.4 5.5-6.1 8c0.9 1.4 1.8 2.9 2.7 4.4l9.7-2.3 2.9 6.3-8 6.8h-116.6zm28.4 3.6c7.8-14.5 24-24 40.4-23.4 15.7 0.3 30.7 9.6 38 23.4z"/>
<path d="m297 398.2-2.66-0.07-2.63-0.2-2.59-0.33-2.55-0.46-2.5-0.58-2.46-0.7-2.4-0.82-2.36-0.93-2.29-1.04-2.24-1.14-2.17-1.26-2.1-1.35-2.03-1.44-1.96-1.54-1.89-1.63-1.8-1.72-1.71-1.8-1.63-1.89-1.55-1.95-1.44-2.04-1.35-2.1-1.26-2.17-1.14-2.23-1.04-2.3-0.93-2.35-0.82-2.41-0.7-2.46-0.58-2.5-0.46-2.55-0.33-2.59-0.2-2.63-0.07-2.66 0.07-2.66 0.2-2.62 0.33-2.59 0.46-2.55 0.58-2.51 0.7-2.45 0.82-2.41 0.93-2.35 1.04-2.3 1.14-2.23 1.26-2.17 1.35-2.11 1.44-2.03 1.55-1.96 1.63-1.88 1.71-1.8 1.8-1.72 1.89-1.63 1.96-1.54 2.03-1.45 2.1-1.35 2.17-1.25 2.24-1.15 2.29-1.04 2.36-0.93 2.4-0.81 2.46-0.71 2.5-0.58 2.55-0.45 2.59-0.33 2.63-0.21 2.65-0.06 2.67 0.06 2.62 0.21 2.59 0.33 2.55 0.45 2.51 0.58 2.45 0.71 2.41 0.81 2.35 0.93 2.3 1.04 2.23 1.15 2.17 1.25 2.11 1.35 2.03 1.45 1.96 1.54 1.88 1.63 1.8 1.72 1.72 1.8 1.63 1.88 1.54 1.96 1.45 2.03 1.35 2.11 1.25 2.17 1.15 2.23 1.04 2.29 0.93 2.36 0.81 2.41 0.7 2.45 0.58 2.51 0.46 2.55 0.33 2.59 0.2 2.62 0.07 2.66-0.07 2.66-0.2 2.63-0.33 2.59-0.45 2.55-0.59 2.5-0.7 2.46-0.81 2.4-0.93 2.36-1.04 2.29-1.15 2.24-1.25 2.17-1.35 2.1-1.45 2.03-1.54 1.96-1.63 1.89-1.72 1.8-1.8 1.71-1.88 1.63-1.96 1.54-2.03 1.45-2.11 1.35-2.17 1.25-2.23 1.15-2.3 1.04-2.35 0.93-2.41 0.82-2.45 0.7-2.51 0.58-2.55 0.46-2.59 0.33-2.63 0.2-2.65 0.07zm0-10.36-2.13-0.05-2.1-0.16-2.07-0.27-2.04-0.37-2.01-0.46-1.96-0.56-1.93-0.65-1.88-0.75-1.84-0.83-1.79-0.92-1.73-1-1.69-1.08-1.62-1.16-1.57-1.23-1.51-1.3-1.44-1.38-1.37-1.44-1.31-1.51-1.23-1.56-1.16-1.63-1.08-1.68-1-1.74-0.92-1.79-0.83-1.83-0.74-1.89-0.66-1.92-0.56-1.97-0.46-2-0.37-2.04-0.26-2.08-0.16-2.1-0.06-2.13 0.06-2.12 0.16-2.11 0.26-2.07 0.37-2.04 0.46-2 0.56-1.97 0.66-1.92 0.74-1.89 0.83-1.83 0.92-1.79 1-1.74 1.08-1.68 1.16-1.63 1.23-1.56 1.31-1.51 1.37-1.44 1.44-1.37 1.51-1.31 1.57-1.23 1.62-1.16 1.69-1.08 1.73-1 1.79-0.92 1.84-0.83 1.88-0.75 1.93-0.65 1.96-0.56 2-0.47 2.04-0.36 2.08-0.27 2.1-0.16 2.13-0.05 2.13 0.05 2.1 0.16 2.07 0.27 2.04 0.36 2 0.47 1.97 0.56 1.92 0.65 1.89 0.75 1.83 0.83 1.79 0.92 1.74 1 1.68 1.08 1.63 1.16 1.57 1.23 1.5 1.31 1.44 1.37 1.38 1.44 1.3 1.51 1.23 1.56 1.16 1.63 1.08 1.68 1 1.74 0.92 1.79 0.83 1.83 0.75 1.89 0.65 1.92 0.56 1.97 0.47 2 0.36 2.04 0.27 2.07 0.16 2.11 0.05 2.12-0.05 2.13-0.16 2.1-0.27 2.08-0.36 2.04-0.47 2-0.56 1.97-0.65 1.92-0.74 1.88-0.84 1.84-0.92 1.79-1 1.74-1.08 1.68-1.15 1.62-1.24 1.57-1.3 1.51-1.38 1.44-1.44 1.37-1.5 1.31-1.57 1.23-1.63 1.16-1.68 1.08-1.74 1-1.79 0.92-1.83 0.83-1.88 0.74-1.93 0.66-1.97 0.56-2 0.46-2.04 0.37-2.07 0.26-2.1 0.16-2.13 0.06z"/>
<path d="m297 290.3c30.85 0 56.01 25.16 56.01 56.01s-25.16 56.02-56.01 56.02c-30.86 0-56.02-25.17-56.02-56.02s25.16-56.01 56.02-56.01zm0 2.64c29.4 0 53.37 23.97 53.37 53.37s-23.98 53.38-53.37 53.38c-29.4 0-53.38-23.98-53.38-53.38s23.98-53.37 53.38-53.37z"/>
<path d="m297 396.3c-27.51 0-49.95-22.44-49.95-49.95s22.44-49.94 49.95-49.94 49.94 22.43 49.94 49.94-22.43 49.95-49.94 49.95zm0-6.86c-23.73 0-43.09-19.36-43.09-43.09s19.36-43.08 43.09-43.08 43.08 19.35 43.08 43.08-19.35 43.09-43.08 43.09z" fill="#cec8ea"/>
</g>
<g fill-rule="evenodd">
<path d="m101 9.84-0.17-1.19 1.21-0.01c12.7-0.19 25.46-0.33 38.22-0.47 12.8-0.14 25.6-0.28 38.39-0.47l1.21-0.01-0.15 1.2c-0.34 2.88-0.05 4.28 0.5 4.95 0.44 0.53 1.25 0.61 1.95 0.7l1.22 0.14-0.32 1.18-14.18 52.42-0.18 0.66-0.67 0.11c-6.94 1.18-10.52-0.08-13.38-1.09-2.09-0.73-3.75-1.31-6.27-0.38 0.38 0.93 0.1 1.73-0.62 2.4-1.04 0.97-3.36 1.42-5.61 1.38-2.25-0.03-4.53-0.57-5.48-1.56-0.6-0.62-0.83-1.33-0.54-2.1-1.67-0.42-3.42 0.13-5.65 0.83-3.74 1.17-8.69 2.72-16.76 1.28l-0.65-0.12-0.18-0.63c-2.41-8.46-4.81-16.92-7.22-25.38-2.58-9.08-5.16-18.16-7.74-27.24l-0.34-1.18 1.22-0.16c0.92-0.12 1.55-0.57 1.91-1.31 0.43-0.9 0.52-2.24 0.28-3.95z"/>
<g clip-rule="evenodd" transform="translate(-156 -250.9)">
<polygon points="321.1 253.9 322.1 254.4 323.2 254.9 324.2 255.4 325.2 255.8 326.2 256.3 327.3 256.7 328.3 257.1 329.4 257.5 330.4 257.8 331.5 258.1 332.6 258.3 333.6 258.5 336 258.7 335.3 261.7 334.9 263.4 334.4 265.2 334 266.9 333.6 268.6 333.2 270.4 332.8 272.1 332.4 273.9 331.9 275.6 331.5 277.4 331.1 279.1 330.7 280.9 330.3 282.6 329.9 284.4 329.4 286.1 329 287.9 328.6 289.6 328.2 291.4 327.8 293.1 327.4 294.8 327 296.6 326.6 298.4 326.2 300.1 325.7 301.8 325.3 303.6 324.9 305.3 324.5 307.1 324 308.8 323.6 310.6 323.2 312.3 322.8 314.1 322.2 316.4 320.6 316.9 319.6 317.1 318.7 317.2 317.7 317.3 316.9 317.3 316 317.2 315.2 317.1 314.4 317 313.6 316.8 312.9 316.6 312.2 316.3 311.6 316 310.9 315.8 310.3 315.5 309.6 315.2 309 315 308.4 314.7 307.9 314.5 307.3 314.3 306.7 314.2 306.1 314.1 305.6 314 305 314 304.4 314 303.7 314.1 303.1 314.2 302.4 314.4 301.7 314.7 300.9 315.1 300.1 315.6 299.3 316.1 298.6 316.6 296.6 315.8 296.6 314.1 296.6 312.2 296.6 310.3 296.6 308.4 296.5 306.6 296.5 304.7 296.5 302.8 296.5 300.9 296.5 299 296.4 297.1 296.4 295.3 296.4 293.4 296.4 291.5 296.4 289.6 296.4 287.7 296.4 285.8 296.3 284 296.3 282.1 296.3 280.2 296.3 278.3 296.3 276.4 296.3 274.6 296.2 272.7 296.2 270.8 296.2 268.9 296.2 267 296.2 265.2 296.2 263.3 296.1 261.4 296.1 259.5 296.1 257.6 296.1 255.1 296.1 255.1 298.2 253.9 299.8 253.1 301.3 252.5 302.8 252 304.2 251.6 305.6 251.3 307 251 308.3 250.9 309.6 250.9 310.9 251 312.1 251.1 313.3 251.3 314.5 251.6 315.6 251.9 316.8 252.2 317.9 252.6 319 253 320 253.5"/>
<polygon points="272.7 255 271.6 255.5 270.6 256 269.6 256.6 268.5 257.1 267.4 257.6 266.4 258 265.3 258.4 264.2 258.8 263 259 261.8 259.3 260.6 259.4 259.4 259.5 256.6 259.4 257.4 262.5 257.9 264.3 258.4 266 258.8 267.7 259.3 269.5 259.7 271.2 260.2 272.9 260.6 274.7 261.1 276.4 261.5 278.1 262 279.9 262.4 281.6 262.9 283.3 263.3 285.1 263.7 286.8 264.2 288.5 264.6 290.3 265.1 292 265.5 293.7 266 295.5 266.4 297.2 266.8 298.9 267.3 300.7 267.7 302.4 268.2 304.1 268.6 305.9 269.1 307.6 269.5 309.3 270 311.1 270.5 312.8 270.9 314.6 271.5 316.8 273.2 317.4 274.3 317.6 275.3 317.8 276.3 317.8 277.3 317.8 278.2 317.8 279.1 317.7 279.9 317.5 280.7 317.3 281.5 317.1 282.3 316.8 283 316.5 283.7 316.2 284.4 315.9 285 315.6 285.7 315.3 286.4 315.1 287 314.8 287.6 314.6 288.2 314.4 288.9 314.3 289.5 314.2 290.1 314.1 290.8 314.1 291.4 314.2 292.1 314.3 292.9 314.5 293.6 314.8 294.4 315.1 295.3 315.6 296.2 316.2 297.8 317.3 298.9 316.4 298.8 314.1 298.8 312.2 298.8 310.3 298.8 308.4 298.7 306.6 298.7 300.9 298.6 299 298.6 293.4 298.5 291.5 298.5 285.8 298.4 284 298.4 278.3 298.3 276.4 298.3 270.8 298.2 268.9 298.2 263.3 298.1 261.4 298 255.1 298 255.1 295.8 253.9 294.2 253 292.6 252.4 291 251.8 289.6 251.4 288.1 251.1 286.7 251 285.4 250.9 284.1 250.9 282.8 251.1 281.6 251.3 280.4 251.6 279.2 252 278.1 252.4 277 252.8 275.9 253.3 274.8 253.9 273.7 254.4"/>
<path d="m296.9 304.6c-0.18 3.54-0.37 6.83-0.55 10.36-8.73-6.14-14.98 5.15-23.88 0.98-4.42-18.45-9.97-36.82-14.39-55.27 14.42 0.41 20.41-14.86 37.91-5.54 0.19 2.94 0.45 6.78 0.64 9.73h0.55c0.18-2.95 0.37-6.46 0.55-9.41 15.78-9.49 25.99 3.51 36.94 4.41-4.42 18.45-9 37.39-13.42 55.84-12.05 2.55-12.55-7.85-23.71 0.15-0.19-3.53-0.45-7.71-0.64-11.25z" fill="url(#g)"/>
<path fill="#cec8ea" d="m258 264.4c-0.43 1.49-1.43 2.39-3 2.6l14.97 52.62c14.16 2.54 18.45-4.48 23.84-1.56-4.11 3.96 13.17 4.32 9.05-0.1 7.33-3.62 8 3.11 21.05 0.9l14.18-52.42c-1.23-0.15-2.76-0.28-3.31-2.52-4.26 17.46-8.24 35-12.54 52.45l-1.59 0.47c-3.34 0.73-5.95 0.41-9.05-0.84-1.24-0.49-2.44-1.08-3.7-1.51-3.96-1.35-7.03 0.13-10.04 2.78-1.64-1.17-3.05-2.14-4.96-2.83-2.14-0.57-3.84-0.42-5.88 0.33-2.11 0.78-4.08 1.88-6.26 2.5-2.59 0.73-4.91 0.65-7.52 0.05l-1.66-0.5c-4.7-17.43-8.94-34.98-13.58-52.42z"/>
</g>
<path d="m53.71 72.12h174.6v182.4c-0.32 7.99-2.65 14.16-6.51 18.64-4.15 4.79-10.02 7.6-17.07 8.61l-0.15 0.01h-43.18c-4.55 0.14-8.18 2.1-11.27 4.82-3.19 2.8-5.84 6.41-8.34 9.67l-0.8 1.03-0.8-1.03c-2.5-3.26-5.16-6.88-8.33-9.66-3.09-2.72-6.73-4.69-11.28-4.83h-43.18l-0.14-0.01c-7.05-1.01-12.93-3.82-17.07-8.61-3.87-4.48-6.2-10.65-6.52-18.64v-182.4z"/>
</g>
<g clip-rule="evenodd" transform="translate(-156 -250.9)">
<path fill-rule="evenodd" d="m210.8 324h172.6v181.4c-0.65 16.05-9.55 24.41-22.73 26.29h-43.21c-9.66 0.29-15.31 8.29-20.38 14.88-5.06-6.58-10.73-14.59-20.38-14.88h-43.21c-13.18-1.88-22.07-10.24-22.72-26.29v-181.4z" fill="#fd0"/>
<path d="m217.6 330.4h159.1l-0.1 170.2c0.2 3.6 0 6.8-0.5 9.6-1.5 9.5-7.1 15.3-19.8 14.6h-40c-6.5 0-14.5 2.6-19.2 10.6-4.7-8-13.4-10.6-19.9-10.6h-39.3c-12.7 0.7-18.3-5.1-19.8-14.6-0.5-2.8-0.7-6-0.5-9.6z"/>
<path d="m375.6 500.9c0.6 7.93-0.91 18.83-9.69 21.76-7.59 2.15-15.62 0.61-23.41 1.07-10.47 0.28-21.04-0.6-31.45 0.57-5.59 1.16-10.73 4.46-13.93 9.21-5.66-8.48-16.54-10.47-26.07-9.78-13-0.15-26.03 0.29-39.01-0.2-7.12-0.42-12.39-6.73-12.95-13.6-0.88-14.34-0.24-28.79-0.45-43.19l-0.08-135.4h157.1c-0.02 56.51-0.1 113-0.09 169.5z" fill="#007c3e"/>
<polygon points="260.5 499.8 259.9 500.4 259.2 500.9 257.2 502 256.1 501.2 255 501.4 254.2 501.5 253.5 501.6 252.8 501.6 252.1 501.5 251.5 501.4 250.8 501.3 250.2 501.1 249.7 500.8 249.2 500.5 248.8 500.1 248.4 499.7 248.1 499.4 247.9 499.5 245.7 498.5 244.6 497.9 243.6 497.2 242.7 496.4 242 495.2 241.8 493.6 242 493.1 241.8 493 241.1 492.5 240.5 491.8 240.1 491.3 239.5 490.6 238.9 489.6 238.6 488.5 238.5 487.4 238.7 486.3 239.1 485.2 239.7 484.3 240 484 239.2 483.1 239 481.8 238.9 481 238.8 480.2 238.8 479.4 238.8 478.7 238.9 478 239.1 477.3 239.3 476.6 239.6 476 240 475.3 240.5 474.8 241.1 474.3 241.8 473.9 242.2 473.7 242.1 473.5 242 472.6 242 471.7 242 470.8 242.1 470 242.4 469.2 242.7 468.4 243.2 467.6 243.7 467 244.3 466.4 245 465.9 245.7 465.4 246.5 465 247.3 464.8 247.7 464.6 247.8 464.1 248 463.4 248.3 462.7 248.6 462.1 249 461.4 249.4 460.8 250 460.2 250.7 459.7 251.5 459.3 252.3 459.1 253.2 458.9 253.9 458.9 254.1 458.4 254.4 457.6 254.8 456.8 255.2 456.2 255.7 455.5 256.2 454.9 256.8 454.4 257.4 453.9 258.1 453.5 258.8 453.2 259.5 453 260.3 452.8 261.1 452.8 262.2 452.9 262.6 452.4 263 451.8 263.5 451.2 264 450.7 264.5 450.2 265.1 449.8 265.6 449.4 266.2 449.1 266.9 448.8 267.6 448.7 268.4 448.7 269.2 448.9 269.5 449 269.7 448.7 270.2 448 270.7 447.4 271.2 446.8 271.8 446.3 272.4 445.8 273.1 445.3 273.8 444.9 274.5 444.6 275.2 444.3 275.9 444.1 276.7 444 277.5 443.9 278.4 443.9 278.4 443.8 278.7 443.1 279.3 442.2 280.6 441.5 281.8 441.6 282.5 440.9 283.1 440.8 283.1 439.8 285 439.4 285.2 439.3 285.6 439.2 285.9 439 286.2 438.9 286.3 438.8 286.5 438.5 286.6 437.5 287.1 436.4 287.8 435.6 288.6 435 289.5 434.6 292 433.9 292.2 434.1 292.4 434 292.4 433.9 292.6 433 292.9 432.2 293.5 431.4 294.2 430.8 295 430.3 295.8 430 298.9 429.3 299.2 430.7 299.2 430.6 299.2 430.6 300.5 429.4 300.3 428.1 300 426.8 299.8 425.5 299.6 424.2 299.4 423 299.4 421.8 299.4 420.6 299.5 419.4 299.8 418.3 300.3 417.1 301.2 416.1 302.4 415.4 303.6 414.9 304.6 414.8 304.5 414.7 304.4 414.1 304.4 413.6 304.3 413 304.2 412.5 304.2 411.9 304.1 411.3 304.1 410.8 304 410.2 304 409.7 304 409.1 304 408.5 304 408 304 407.4 304.1 406.8 304.1 406.3 304.2 405.7 304.4 404.6 304.1 404.8 303.1 405.3 302.1 405.7 301 405.8 300 405.3 299.8 405 298.9 405.2 298.1 405.3 297.4 405.5 296.8 405.6 296.2 405.7 295.5 405.6 294.5 405.2 294.1 404.2 294.2 403.4 294.4 402.8 294.6 402.2 294.9 401.6 295.2 400.8 295.3 400.6 294.8 400.4 294.2 398.9 294.6 397.7 295.2 396.7 296 395.7 296.9 394.7 297.4 394.2 297.4 393.8 297.5 393.2 297.6 392.6 297.4 392.4 297.2 392.1 296.9 391.9 296.6 391.6 296.3 391.4 295.9 391.2 295.6 391.1 295.2 390.9 294.8 390.7 294.4 390.6 294 390.4 293.6 390.3 293.2 390.2 292.7 390.1 292.3 390 285.9 388.5 293.4 386.6 294.7 386.4 295.8 386.2 296.7 386.1 297.5 386 298.2 386.1 298.9 386.3 299.4 386.5 299.9 386.8 300.2 387 300.5 387.3 300.6 387.3 300.9 387 300.7 386.9 300.3 386.6 299.9 386.4 299.5 386 299.1 385.8 298.7 385.4 298.4 385.1 298 384.8 297.7 384.4 297.3 384.1 297 383.8 296.8 383.5 296.3 383.1 295.9 381.8 296.7 380.8 297.3 380.5 291.6 378 298.8 377.4 300.1 377.3 301.2 377.3 302.2 377.2 303.1 377.2 303.9 377.1 304.7 377.1 305.4 377.2 305.6 377.2 304.9 376.2 304.3 375.1 303.8 374.1 303.3 373.1 303 372.2 302.7 371.4 302.5 370.7 302.3 370.1 302.2 369.6 302.2 369.5 301.9 369.8 301.5 370.2 300.7 370.9 298.7 372.8 297.7 369.9 297.4 369.1 297.2 368.2 297.2 367.1 297.8 366 298.9 365.2 300.2 365 301.2 365 301.6 364.9 302.4 364.7 303.4 364.7 304.3 364.9 305.2 365.4 306.1 366.1 306.8 366.9 307.4 366.7 308.6 366.7 309.6 367.2 310.4 368 311 368.9 311.5 370 311.8 370.7 312 370.4 313.2 369.9 313.9 369.8 313.9 369.7 313.8 369 313.8 368.3 314.3 367.5 315.1 367.1 315.8 367 315.8 367 315.5 366 315.2 365 315 364.1 315 363.2 315.6 362.2 316.1 362 316.2 361.5 316.2 361.2 316.3 359.8 317.5 359.6 317.7 359.5 318.2 359.4 319 359.6 319.6 360.2 319.7 360.5 320.3 360.7 320.9 361.3 321.2 361.8 321.5 362.3 321.7 362.7 321.9 363.1 322.1 363.6 322.3 363.9 322.5 364 322.6 364.1 322.6 364.1 323.5 363.8 324.5 364.4 324.6 364.5 324.5 364.4 324.5 363.7 324.5 363 324.5 362.2 324.7 361.3 325.5 358.7 327.8 360.3 328.5 361 329.2 361.6 329.7 362.4 330.1 362.9 330.4 362.6 330.8 362.2 331.2 361.9 331.6 361.6 331.9 361.4 332.2 361.2 332.4 361 332.7 360.8 332.9 360.5 333.1 360.1 333.3 359.7 335 354.8 336.5 359.6 336.6 360.2 336.8 360.7 337 361.2 337.1 361.5 337.1 361.4 337.4 360.7 337.6 360 337.9 359.2 338.2 358.5 338.6 357.8 339 357 339.3 356.3 342.9 349.4 342.4 357.2 342.4 358.1 342.4 358.9 342.4 359.6 342.5 360.2 342.6 360.9 342.7 361.5 342.8 362.1 342.8 362.8 342.9 363.4 342.9 363.5 343.5 363 344.1 362.6 344.8 362.2 345.5 361.9 347.6 361.4 348.1 363.4 348.2 364 348.2 364.5 349 363.9 349.9 363.3 350.8 362.6 351.8 362 352.8 361.4 353.8 360.8 359.8 357.4 356.5 362.7 356.2 363.2 355.9 363.6 355.6 364.1 355.3 364.6 354.7 365.6 354.4 366.1 354.1 366.6 353.8 367 353.6 367.4 355.6 367.1 355.6 369.5 355.6 370.2 355.6 371 355.4 371.7 355.3 372 357.4 371.2 356.4 373.8 356.9 373.7 357.6 373.6 358.3 373.6 359 373.6 359.8 373.6 360.6 373.6 361.4 373.6 362.3 373.7 365.2 374 364.2 376.4 363.9 377 363.6 377.7 363.2 378.3 362.8 378.9 362.4 379.5 362 380.1 361.3 380.9 361.3 381.1 362.2 381.7 362.9 382.1 363.5 382.6 364 383.1 364.6 383.6 365.1 384.2 365.5 384.7 365.9 385.3 366.2 386 366.5 386.6 366.8 387.3 366.9 388.1 367 388.8 367 389.6 366.9 390.4 366 394.9 364 391.4 363.9 391.4 363.9 391.3 363.8 391.3 363.6 391.2 363.2 391.2 363.1 391.2 363.3 391.5 363.4 392 363.6 392.5 363.7 393 363.8 393.5 363.8 394 363.8 394.4 363.9 394.8 363.9 395.2 364 395.5 364 395.8 364.1 396.1 364.2 396.3 364.4 396.5 367.4 400.3 362.6 398.9 362.7 399.3 362.8 399.7 362.9 400.1 363.3 403.4 361.6 402.4 361.6 402.5 361.5 403.2 361.2 404 360.7 404.6 359.8 405.4 359.9 405.7 360 406.3 360 406.9 360 407.4 360 408 360 408.5 359.9 409.1 359.8 409.6 359.7 410.1 359.6 410.6 359.3 411.9 358.2 412.2 358.2 412.4 358.2 413 358.1 414.5 357.8 414.7 358.4 416 358 417.3 357.9 417.8 357.7 418.3 357.5 418.8 357.3 419.3 357.1 419.8 356.9 420.3 356.6 420.8 356.4 421.2 356.1 421.7 355.8 422.1 355.4 422.6 355.1 423 354.8 423.4 354.4 423.8 352.4 425.7 352.2 426.3 351.8 427.1 351.5 427.8 351.1 428.6 350.7 429.2 350.3 429.9 349.8 430.6 349.4 431.2 348.9 431.8 348.4 432.4 347.9 433 347.3 433.6 346.8 434.1 346.2 434.6 345.6 435.1 345 435.6 344.4 436 343.8 436.5 342 437.6 341.8 438.2 341.3 439.4 340.8 440.5 340.2 441.6 339.6 442.6 338.9 443.6 338.2 444.5 337.5 445.4 336.7 446.3 335.8 447.2 334.9 448 334 448.7 333 449.4 332.1 450.1 331 450.8 330 451.4 326.7 453.1 326.4 453.6 325.7 454.5 325 455.3 324.3 456.1 323.5 456.8 322.6 457.4 321.7 458 318.9 459.6 317.5 457.7 317.5 457.7 317.1 457.8 316.7 457.9 316.3 458 315.9 458.1 315.5 458.2 315.1 458.2 314.7 458.3 314.4 458.4 314.2 458.8 313.8 459.2 313.5 459.5 312.7 460.2 312.7 461.2 310.7 461.6 310.5 461.7 310.4 461.8 310.4 461.9 308.8 463 308 463.3 307.3 463.4 306.5 463.6 305.8 463.6 304.9 463.7 304.1 463.8 303.2 463.8 302.4 463.8 301.5 463.9 300.6 463.9 299.8 464 299.1 464.1 298.6 464.1 298 464.7 297.4 465.2 296.9 465.7 296.2 466.1 295.6 466.5 294.9 466.9 294.2 467.3 293.4 467.6 292.6 467.8 291.8 468 290.9 468.1 290 468.1 289 468 288.1 467.9 287.1 467.6 286.5 467.4 286.5 467.4 286 468.1 285 468.7 284.4 469 283.7 469.2 283.1 469.4 282.4 469.6 281.8 469.7 281.2 469.8 280.6 469.8 280 469.8 279.4 469.7 278.8 469.6 278.3 469.5 277.7 469.3 277.2 469.1 277.1 469.1 276.9 469.4 275.9 469.9 275.5 470.2 275 470.4 274.6 470.6 274.1 470.7 273.7 470.9 273.2 471 272.8 471.1 272.3 471.2 271.8 471.2 271.4 471.3 270.9 471.3 270.4 471.2 270 471.2 269.5 471.1 269 471 268.7 471.2 268.3 471.6 267.8 471.9 267.3 472.2 266.9 472.5 266.4 472.8 265.9 473 265.4 473.2 264.9 473.4 264.4 473.5 263.9 473.6 263.4 473.6 262.9 473.7 262.8 473.6 262.7 473.7 262.1 474.4 261.4 475 260.7 475.4 259.9 475.9 259 476.2 258 476.4 257.9 476.8 257.3 477.6 256.6 478.4 255.8 478.9 255.2 479.2 255.2 479.5 255 480.2 254.8 480.9 254.5 481.6 254.2 482.2 253.8 482.8 253.2 483.4 253.2 484.3 253 485.2 252.6 486 252.5 486.2 252.5 486.2 252.5 486.3 253 487.2 253.2 488.3 253.5 488.4 254 489 255.1 487.9 256.5 487 258.4 486.7 260.2 487.6 261.2 489 261.8 490.4 262.9 495.5 262.3 495.4 262.4 495.6 262.1 497 261.8 497.8 261.5 498.5 261 499.2"/>
<polygon points="244.7 360.9 244 361.1 243.8 361.2 243.7 360.9 243.6 360.4 243.4 360 243.1 359.6 242.7 359.3 242.3 359.1 241.8 359 241.3 358.9 240.8 359 240.3 359.1 239.9 359.3 239.6 359.6 239.2 360 239 360.4 238.9 360.9 238.8 361.4 238.9 361.9 239 362.4 239.2 362.8 239.6 363.2 239.9 363.5 240.3 363.7 240.3 363.8 240.2 364 239.8 364.6 239.5 365.4 239.4 366.2 239.6 367 240 367.8 240.6 368.5 241.4 369 242.2 369.3 243 369.4 243.6 369.4 243.5 369.9 243.6 370.4 243.9 370.9 244.4 371.3 244.9 371.4 245.2 371.4 245.1 371.4 245 371.9 245.1 372.4 245.4 372.9 245.9 373.3 246.3 373.4 334 498.4 333.9 498.6 333.9 499.1 333.9 499.7 334.1 500.2 334.4 500.6 334.8 501 335.2 501.3 335.6 501.6 336.2 501.7 336.7 501.8 337.3 501.7 337.8 501.6 338.3 501.3 338.7 501 339.1 500.6 339.3 500.2 339.5 499.7 339.6 499.1 339.5 498.6 339.3 498 339.1 497.6 338.7 497.2 338.3 496.9 337.8 496.6 337.3 496.5 336.7 496.4 336.6 496.4 336.6 496.4 249.8 369.1 249.7 369 249.2 368.6 248.8 368.5 248.9 368.2 249 367.7 248.9 367.2 248.6 366.6 248.1 366.3 248 366.2 248.2 365.5 248.3 364.6 248.2 363.8 248 363 247.5 362.2 246.9 361.6 246.2 361.2 245.5 360.9"/>
<path d="m254.9 377.9-0.07 0.54 0.47 1.08 0.81 0.68 0.88 0.36 0.93 0.16 0.97-0.01 0.98-0.18 0.96-0.35 0.84-0.47 0.65-0.61 0.41-0.84v-0.29l0.17 0.08 0.48-0.19 0.45-0.26 0.41-0.35 0.34-0.45 0.25-0.55 0.07-0.56 0.62-0.03 0.59-0.09 0.56-0.14 0.53-0.21 0.51-0.29 0.48-0.41 0.4-0.61 0.12-0.61 0.68-0.15 0.67-0.23 0.62-0.28 0.57-0.34 0.53-0.42 0.5-0.59 0.25-0.78 0.19 0.01 0.71-0.01 0.68-0.07 0.67-0.13 0.62-0.23 0.83-0.47 0.66-0.61 0.4-0.84v-0.86 0.09l0.59 0.06 0.89 0.09 1.63-0.54 1.17-0.42 0.99-0.38 0.83-0.38 0.7-0.36 0.59-0.37 0.51-0.44 0.44-0.6 0.21-0.86-0.25-0.87-0.47-0.57-0.49-0.34-0.48-0.23-0.48-0.18-0.5-0.15-0.91-0.25-0.87 0.29-0.44 0.1-0.45 0.07-0.49 0.05-0.52 0.01-0.54-0.01-0.56-0.04-0.59-0.06-0.6-0.09-0.63-0.11-0.64-0.13-0.65-0.15-0.67-0.16-0.39-0.1-0.15-1.21-0.83-0.88-0.98-0.38-1-0.13h-1.13l-1.09 0.09-1.44-0.23-1.55-0.23-1.49-0.19-1.41-0.15-1.33-0.11-1.26-0.07-1.17-0.02-1.09 0.02-1.01 0.08-0.93 0.15-0.85 0.22-0.8 0.33-0.72 0.47-0.6 0.66-0.38 0.83-0.08 0.61-0.11 0.43-0.12 0.57-0.08 0.57-0.04 0.56v0.57l0.04 0.55 0.08 0.55 0.13 0.54 0.16 0.53 0.21 0.52 0.24 0.5 0.28 0.49 0.32 0.47 0.35 0.46 0.12 0.14-0.27 0.48-0.35 0.45-0.39 0.35-0.45 0.26-0.52 0.2-0.61 0.13-3.23 0.2 2.16 3.5 0.3 0.47 0.3 0.48 0.29 0.48 0.3 0.48 1.06 1.71 0.45-0.28 0.17 0.4 0.46 0.59 0.72 0.42zm-3.99 1.13 0.43-0.29-1.06-1.67-1.81-2.86-1.65-2.61-1.52 2.94-0.36 0.49-0.37 0.37-0.4 0.27-0.43 0.19-0.51 0.12-0.51 0.03-0.07-0.18-0.54-1.01-0.66-0.9-0.77-0.78-0.87-0.67-0.97-0.53-1.05-0.39-0.95-0.22-0.59-0.21-0.92-0.02-0.85 0.26-0.72 0.46-0.62 0.58-0.54 0.68-0.5 0.77-0.47 0.88-0.46 0.97-0.45 1.06-0.44 1.16-0.43 1.25-0.43 1.34-0.42 1.42-0.42 1.49-0.37 1.4-0.52 0.94-0.44 1.01-0.29 0.97-0.05 1.02 0.43 1.1 1 0.67h0.01l-0.07 0.45-0.12 0.67-0.13 0.65-0.14 0.64-0.15 0.6-0.17 0.59-0.17 0.55-0.19 0.53-0.21 0.49-0.22 0.45-0.23 0.42-0.24 0.38-0.26 0.34-0.61 0.66-0.15 0.93-0.06 0.52-0.03 0.51 0.01 0.52 0.1 0.57 0.3 0.66 0.66 0.6 0.87 0.19 0.74-0.13 0.61-0.28 0.58-0.37 0.6-0.47 0.66-0.6 0.74-0.72 0.83-0.87 1.13-1.24 0.28-0.84 0.15-0.47 0.59 0.3h0.94l0.84-0.33 0.76-0.56 0.45-0.47 0.39-0.54 0.33-0.59 0.3-0.63 0.05-0.12 0.71 0.1 0.76-0.2 0.59-0.3 0.54-0.37 0.51-0.44 0.47-0.5 0.36-0.49 0.54 0.13 0.72-0.09 0.58-0.26 0.48-0.34 0.4-0.4 0.36-0.45 0.31-0.5 0.23-0.47 0.46 0.16 0.6 0.02 0.56-0.12 0.49-0.22 0.43-0.3 0.36-0.36 0.06-0.08 0.1 0.05 0.93 0.01 0.84-0.34 0.76-0.55 0.7-0.73 0.55-0.81 0.4-0.87 0.23-0.9 0.04-0.94-0.27-1-0.76-0.88-0.53-0.19 0.01-0.04-0.08-0.82-0.32-0.64-0.32-0.36z"/>
<path d="m275.8 416.8-0.42 0.6-0.27 0.42-0.05 0.12 0.07 1.63-2.85 0.17-1.4 0.06-1.38 0.02-1.34-0.01-1.32-0.04-1.28-0.07-1.25-0.11-1.23-0.13-1.19-0.17-1.16-0.2-1.12-0.24-1.1-0.27-1.07-0.3-1.03-0.34-1-0.36-0.97-0.41-0.93-0.43-0.9-0.48-0.87-0.5-0.84-0.54-0.79-0.58-0.77-0.61-0.72-0.65-0.69-0.68-0.65-0.71-0.61-0.75-0.58-0.78-0.54-0.81-0.49-0.85-0.45-0.87-0.42-0.91-0.21-0.53-0.09-0.07-0.43-0.54-0.28-0.55-0.19-0.55-0.14-0.54-0.1-0.53-0.08-0.51-0.07-0.49-0.06-0.45-0.06-0.39-0.01-0.08h-0.1l-0.77-0.08-0.77-0.26-0.7-0.56-0.43-0.82-0.07-0.86 0.16-0.77 0.57-1.43 1.02-0.13 0.15-0.02 0.18-0.05 0.21-0.06 0.25-0.09 0.29-0.11 0.33-0.14 0.38-0.18 0.42-0.2 0.47-0.24 0.51-0.28 0.57-0.32 0.62-0.36 0.68-0.41 0.73-0.45 0.79-0.5 0.65-0.42 0.67-0.36 0.71-0.24 0.81-0.08 0.9 0.27 0.1 0.1 0.11-0.12 0.46-0.59 0.89-0.27 0.49-0.12 0.51-0.08 0.52-0.05h0.53l0.54 0.05 0.55 0.12 0.41 0.14 0.39 0.1 0.51 0.22 0.54 0.41 0.42 0.71 0.02 0.85-0.26 0.65-0.34 0.46-0.61 0.57-0.3 0.21 0.01 0.37-0.53 0.82-0.29 0.44-0.28 0.44-0.3 0.45-0.31 0.46-0.31 0.45-0.34 0.46-0.35 0.45-0.37 0.46-0.4 0.45-0.42 0.44-0.46 0.43-0.48 0.43-0.52 0.41-0.23 0.17 0.23 0.71 0.32 0.73 0.36 0.68 0.42 0.64 0.46 0.6 0.5 0.55 0.55 0.52 0.59 0.48 0.64 0.45 0.68 0.42 0.72 0.39 0.75 0.35 0.79 0.32 0.82 0.3 0.84 0.26 0.88 0.24 0.89 0.21 0.91 0.19 0.92 0.17 0.94 0.14 0.95 0.12 0.95 0.1 0.96 0.09 0.95 0.07 0.95 0.05 0.94 0.04 0.94 0.03 0.92 0.02 0.9 0.02 0.89 0.01 1.81 0.01 0.79 1.82-0.08 1.23-0.4 0.96-0.48 0.75zm4.5-0.49 0.24-1.15 0.47-0.97 0.61-0.81 0.75-0.67 1.2-0.5 0.85 0.35 0.58 0.23 0.64 0.25 0.71 0.28 0.76 0.3 0.8 0.33 0.85 0.37 0.88 0.39 0.9 0.43 0.92 0.48 0.94 0.51 0.95 0.56 0.94 0.61 0.94 0.65 0.93 0.71 0.91 0.78 0.88 0.83 0.85 0.89 0.81 0.96 0.77 1.03 0.71 1.1 0.64 1.17 0.58 1.25 0.51 1.32 0.42 1.4 0.33 1.48 0.23 1.55 0.14 1.64 0.02 1.71-0.08 1.8-0.21 1.88-0.32 1.97-0.45 2.05-0.44 1.71-0.35 1.58-0.29 1.52-0.21 1.43-0.16 1.36-0.09 1.29-0.04 1.22 0.02 1.15 0.08 1.08 0.13 1.01 0.17 0.95 0.22 0.89 0.27 0.82 0.3 0.77 0.34 0.72 0.38 0.66 0.42 0.61 0.45 0.58 0.48 0.52 0.52 0.49 0.55 0.46 0.58 0.41 0.61 0.38 0.65 0.36 0.67 0.31 0.71 0.29 0.73 0.25 0.75 0.23 0.78 0.2 0.8 0.17 0.5 0.08 1.8 0.34 0.39 0.44 0.25 0.28 0.31 0.35 0.35 0.4 0.36 0.41 0.49 0.53 0.27 0.54 0.08 0.56-0.02 0.44-0.05 0.38-0.08 0.34-0.09 0.3-0.11 0.3-0.55 1.1-2.27-0.27-1.25-0.19-1.22-0.21-1.18-0.26-1.16-0.29-1.11-0.34-1.08-0.38-1.04-0.43-1-0.47-0.96-0.53-0.91-0.59-0.87-0.64-0.81-0.71-0.77-0.76-0.7-0.83-0.65-0.89-0.58-0.95-0.52-1.01-0.46-1.07-0.39-1.14-0.32-1.2-0.25-1.26-0.19-1.33-0.12-1.4-0.04-1.46 0.01-1.53 0.09-1.6 0.16-1.68 0.23-1.75 0.3-1.83 0.37-1.91 0.43-1.92 0.21-1.5 0.11-1.46 0.03-1.41-0.06-1.35-0.13-1.29-0.21-1.23-0.27-1.19-0.34-1.13-0.4-1.08-0.45-1.03-0.5-0.99-0.54-0.93-0.59-0.89-0.62-0.85-0.65-0.79-0.68-0.75-0.7-0.7-0.71-0.66-0.74-0.61-0.73-0.57-0.74-0.52-0.74-0.48-0.73-0.43-0.71-0.39-0.7-0.34-0.67-0.29-0.64-0.25-0.6-0.21-0.56-0.17-0.5-0.12-0.44-0.08-1.09-0.12-1-1.44-0.18-1.29zm44.61 54.85 0.54 0.3 0.54 0.32 0.55 0.35 0.56 0.36 0.56 0.38 0.57 0.41 0.57 0.42 0.58 0.45 0.59 0.47 0.6 0.48 0.6 0.52 0.61 0.53 0.62 0.56 0.62 0.59 0.64 0.6 0.64 0.64 0.65 0.66 0.66 0.68 0.67 0.71 0.67 0.74 0.69 0.77 0.91 1.04 0.3 1.13 0.09 0.83-0.17 0.97-0.84 0.87-1.07 0.12-0.77-0.22-0.63-0.31-0.79-0.5-0.57-0.74-0.43-0.52-0.42-0.52-0.43-0.5-0.43-0.49-0.44-0.47-0.44-0.47-0.45-0.45-0.45-0.45-0.45-0.43-0.46-0.43-0.46-0.41-0.46-0.4-0.47-0.4-0.48-0.38-0.47-0.37-0.48-0.37-0.48-0.35-0.49-0.35-0.49-0.34-0.49-0.32-0.5-0.32-0.49-0.31-0.51-0.31-0.5-0.29-0.51-0.29-0.52-0.27-0.51-0.28-0.52-0.26-0.52-0.25-0.53-0.25-1-0.46-0.2-0.39-0.05-0.05-0.18-0.14-0.22-0.19-0.26-0.23-0.31-0.34-0.35-0.68 0.08-0.91 0.4-0.59 0.27-0.23 0.1-1.29 2.19 0.63 0.49 0.16 0.5 0.17 0.5 0.19 0.51 0.2 0.52 0.22 0.52 0.23 0.52 0.26 0.52 0.27 0.54 0.29z"/>
<polygon points="282.5 444.6 281.3 443.8 280.2 443 279.1 442 278.1 441 277.2 439.9 276.3 438.8 275.5 437.6 274.8 436.3 274.2 435 273.7 433.6 273.2 432.1 272.9 430.6 272.7 429 272.5 427.4 272.5 425.7 272.6 424 272.7 422.2 273 420.4 273.5 418.4 274 416.5 274.6 414.5 275.5 412.3 276.1 411.4 276.6 410.7 277 409.9 277.4 409.1 277.8 408.3 278.2 407.4 278.5 406.5 278.8 405.6 279.1 404.6 279.4 403.7 279.6 402.7 279.8 401.8 279.9 400.8 280 399.8 280.1 398.8 280.1 397.9 280.1 396.9 280.1 396 280 395.1 279.8 394.2 279.7 393.3 279.4 392.5 279.2 391.6 278.9 390.8 278.6 390.1 278.2 389.4 277.7 388.7 277.2 388.1 276.7 387.5 276.2 387 276 386.9 275.7 387.1 275.2 387.5 274.7 387.8 274.2 388 273.6 388.2 273 388.4 272.3 388.5 271.7 388.6 271 388.7 270.2 388.8 269.5 388.8 268.7 388.8 267.4 388.8 267.2 388.6 266 389 265.4 389 264.8 388.9 264 388.5 263.6 387.7 263.6 387.1 263.6 386.5 263.8 386.1 263.9 385.7 264 385.2 264.3 384.7 264.5 384.2 264.8 383.8 265.2 383.4 265.5 383.1 266.1 382.5 266.4 382.4 266.4 382.4 266.5 382.2 266.5 382.1 266.3 381.2 266.5 380.3 267 379.7 267.6 379.2 268.2 378.8 268.9 378.4 269.7 378 270.5 377.6 271.2 377.2 271.8 376.9 272.4 376.6 272.9 376.3 273.3 376 273.7 375.8 274.1 375.5 274.4 375.3 274.6 375.1 274.8 374.9 275 374.8 275.1 374.7 275.2 374.6 275.8 373.7 277.4 374 278.1 374.2 278.8 374.8 279.3 375.5 279.4 376.4 279.2 377.2 278.9 377.9 278.8 378 278.9 378.1 279.6 378.6 280.4 379.2 281.2 380 281.9 381 282 381.6 282.3 381.8 282.9 382.5 283.4 383.1 283.9 383.8 284.4 384.6 284.9 385.3 285.4 386.1 285.8 387 286.2 387.8 286.6 388.8 286.9 389.7 287.2 390.7 287.4 391.7 287.7 392.7 287.8 393.8 288 394.9 288.1 396.1 288.1 397.3 288.1 398.5 288 399.8 287.9 401.1 287.7 402.4 287.5 403.8 287.2 405.2 286.8 406.6 286.4 408.1 285.9 409.6 285.3 411.2 284.6 412.8 283.9 414.4 283.2 416.1 282.3 417.7 281.7 419.1 281.2 420.5 280.9 421.8 280.6 423.1 280.4 424.3 280.3 425.5 280.3 426.6 280.3 427.7 280.4 428.7 280.6 429.7 280.9 430.6 281.2 431.5 281.6 432.4 282.1 433.2 282.6 434 283.2 434.7 283.8 435.4 284.4 436.1 285.1 436.7 285.8 437.3 286.6 437.9 287.4 438.4 288.3 438.9 289.1 439.4 290 439.8 290.9 440.2 291.8 440.6 292.8 440.9 293.7 441.2 294.6 441.5 295.6 441.7 295.6 441.7 296.1 441.4 296.9 442 297.6 442.1 297.6 442.5 301.1 445.4 301.1 442.7 303.9 443.2 304.9 443.4 305.9 443.7 306.8 444 307.8 444.3 308.7 444.7 309.6 445 310.5 445.5 311.3 445.9 312.1 446.4 312.9 446.9 313.7 447.5 314.4 448.1 315.1 448.8 315.7 449.4 316.3 450.2 316.9 450.9 317.4 451.7 317.9 452.6 318.4 453.5 318.8 454.4 319.1 455.4 319.4 456.4 319.7 457.5 319.9 458.6 320.1 459.8 320.2 461 320.3 462.2 320.3 463.5 320.3 464.8 320.2 466.2 320.1 467.6 320 468.7 319.8 469.8 319.8 470.8 319.7 471.8 319.6 472.8 319.6 473.7 319.5 474.6 319.5 475.6 319.5 476.4 319.6 477.3 319.6 478.2 319.7 479 319.8 479.8 319.8 480.6 320 481.4 320.1 482.1 320.2 482.8 320.4 483.5 320.6 484.2 320.8 484.9 321 485.5 321.2 486.1 321.5 486.7 321.8 487.3 322 487.9 322.3 488.4 322.6 488.9 323 489.4 323.3 489.9 323.7 490.4 324.1 490.8 324.6 491.4 324.9 491.9 325.1 492.4 325.3 493 325.3 494 324.5 494.9 323.5 495.1 322.7 495 321.8 494.7 321.3 494.3 320.8 494 320.4 493.7 320 493.4 319.6 493 319.2 492.6 318.8 492.1 318.4 491.6 318 491.1 317.7 490.5 317.4 490 317.1 489.3 316.8 488.6 316.5 487.9 316.2 487.2 316 486.4 315.8 485.6 315.6 484.7 315.4 483.8 315.3 482.8 315.1 481.8 315 480.7 314.9 479.5 314.8 478.4 314.8 477.1 314.7 475.8 314.7 474.4 314.7 473 314.8 471.5 314.8 469.9 314.9 468.3 315 466.6 315.1 465.4 315.1 464.4 315.1 463.3 315.1 462.4 315 461.5 314.9 460.6 314.7 459.8 314.5 459 314.3 458.3 314.1 457.6 313.8 456.9 313.5 456.3 313.1 455.7 312.7 455.2 312.4 454.6 311.9 454.1 311.5 453.7 311 453.2 310.5 452.8 310 452.4 309.4 452 308.9 451.6 308.3 451.2 307.7 450.9 307 450.6 306.4 450.3 305.7 450 305 449.7 304.3 449.4 303.6 449.2 302.9 448.9 301.1 448.3 301.1 445.8 301.1 445.8 297.7 445.1 297.8 445.5 297.9 446.1 298 446.6 298.1 447 298.2 447.4 298.2 447.9 297.7 451.1 295.7 449 294.9 449 293.4 448.7 291.9 448.4 290.5 448.1 289 447.7 287.6 447.2 286.3 446.7 285 446 283.7 445.4"/>
<g fill="#e30613">
<path d="m321.1 399.2c-4.52 0-8.21-3.33-8.21-7.41 0-4.07 3.69-7.4 8.21-7.4s8.21 3.33 8.21 7.4c0 4.08-3.69 7.41-8.21 7.41z"/>
<path d="m332.5 381.7c-3.15 0-5.72-2.42-5.72-5.39s2.57-5.39 5.72-5.39c3.14 0 5.71 2.42 5.71 5.39s-2.57 5.39-5.71 5.39z"/>
<path d="m314 379.1c2.11-0.67 3.85-1.57 2.94-4.07-0.94-3.2-2.26-4.37-3.95-3.51-1.54 2.35-0.61 4.94 1.01 7.58z"/>
<path d="m335 389.7c-2.78-0.92-2.41 1.65-4.46 1.58 0.67 3.11-1.02 5.65-4.05 7.86 3.04 2.32 6.11 3.83 9.45-0.38 1.34-2.08-1.68-5.93-0.94-9.06z"/>
</g>
<path d="m337.3 414.2c-0.68 0-1.23-0.52-1.23-1.15s0.55-1.14 1.23-1.14 1.23 0.51 1.23 1.14-0.55 1.15-1.23 1.15z" fill="#fd0"/>
<path d="m335.9 413.6c-2.87-3.6-4.52-8.25-6.12-2.58-2.63 2.54 1.28 2.73 6.12 2.58z" fill="#fd0"/>
<path d="m356.2 378.1c1.67 1.54 2.86 3.4 2.34 6.4-0.22 0.29-0.43 0.58-0.65 0.87 0.6 0.58 0.69 1.24 0.27 1.97-0.8-1.33-1.45-1.42-1.96-0.27 0.53 0.72 0.94 1.51 0.6 2.68-0.95-1.66-1.89-2.23-2.84-1.7-0.05 1.04-0.11 2.08-0.16 3.12-1.09-0.6-1.67-1.57-1.75-2.9-0.58 0.56-1.16 1.13-1.74 1.69 1.57 0.39 2.97 1.46 4.25 3.01 0.27-0.89 0.58-1.72 1.15-2.02 0.43 0.05 0.87 0.11 1.31 0.16 0.2-0.47 0.4-0.95 0.6-1.42 0.36 0 0.4 0.33 0.76 0.33 0.02-0.55 0.29-1.35 0.16-1.75 0.44-0.77 0.95-0.73 1.53 0.11 0.46-2.44 0.4-4.81-0.16-7.11-1.24-2.43-2.48-2.94-3.71-3.17z" fill="#e30613"/>
<path d="m353.8 386.3c2.46 0 2.51-1.55 2.51-3.58s-1.14-6.21-2.68-4.46c-1.53 1.75-4.91 3.25-4.91 5.28s2.61 2.76 5.08 2.76z" fill="#e30613"/>
<path d="m352.1 384.1c0.85 0 1.84-1.41 1.95-2.16 0.11-0.74-1.39-3.12-1.3-0.93s-0.85 1.1-1.9 1.21c-1.05 0.12 0.4 1.88 1.25 1.88z"/>
<path d="m360.8 382.5c2.86 3.79-0.51 6.21 0.87 7.43 1.95-0.42 3.17-0.11 3.66 0.93 0.86-3.69-1.17-6.28-4.53-8.36z" fill="#79ac2b"/>
<g fill="#ad4582">
<path d="m353.9 396c-0.78 0-1.42-0.66-1.42-1.48 0-0.81 0.64-1.47 1.42-1.47s1.41 0.66 1.41 1.47c0 0.82-0.63 1.48-1.41 1.48z"/>
<path d="m350 396.1c-0.76 0-1.39-0.48-1.39-1.07 0-0.58 0.63-1.06 1.39-1.06 0.77 0 1.39 0.48 1.39 1.06 0 0.59-0.62 1.07-1.39 1.07z"/>
<path d="m345.6 398.1c-0.96 0-1.74-0.52-1.74-1.15s0.78-1.15 1.74-1.15 1.75 0.52 1.75 1.15-0.79 1.15-1.75 1.15z"/>
<path d="m350.2 399.3c-0.73 0-1.34-0.44-1.34-0.96 0-0.53 0.61-0.96 1.34-0.96 0.74 0 1.34 0.43 1.34 0.96 0 0.52-0.6 0.96-1.34 0.96z"/>
<path d="m351 402.4c-0.66 0-1.2-0.45-1.2-0.99s0.54-0.98 1.2-0.98 1.2 0.44 1.2 0.98-0.54 0.99-1.2 0.99z"/>
<path d="m347 401.5c-0.63 0-1.14-0.39-1.14-0.87 0-0.49 0.51-0.88 1.14-0.88s1.15 0.39 1.15 0.88c0 0.48-0.52 0.87-1.15 0.87z"/>
<path d="m353.9 399.6c-0.73 0-1.33-0.61-1.33-1.37 0-0.75 0.6-1.36 1.33-1.36 0.74 0 1.34 0.61 1.34 1.36 0 0.76-0.6 1.37-1.34 1.37z"/>
<path d="m356.3 396.7c-0.48 0-0.87-0.3-0.87-0.66s0.39-0.66 0.87-0.66 0.87 0.3 0.87 0.66-0.39 0.66-0.87 0.66z"/>
<path d="m357.5 400c-0.69 0-1.26-0.51-1.26-1.15 0-0.63 0.57-1.14 1.26-1.14s1.25 0.51 1.25 1.14c0 0.64-0.56 1.15-1.25 1.15z"/>
<path d="m354 402.2c-0.66 0-1.2-0.49-1.2-1.09s0.54-1.09 1.2-1.09 1.2 0.49 1.2 1.09-0.54 1.09-1.2 1.09z"/>
<path d="m353.2 405.1c-0.75 0-1.36-0.55-1.36-1.23s0.61-1.23 1.36-1.23 1.37 0.55 1.37 1.23-0.62 1.23-1.37 1.23z"/>
</g>
<path d="m356.8 408.8c-1.44-0.1-2.54 0.69-3.14 2.76 0.34 1.83 0.9 3.28 3.08 2.08 0.02-1.62 0.04-3.23 0.06-4.84z" fill="#fd0"/>
<path d="m355.3 406.2c-1.13-0.81-2.41-0.6-3.71-0.25 0.17 2.77 0.67 4.02 1.51 3.77 2.81-2.49 3.08-3.37 2.2-3.52z" fill="#fd0"/>
<g fill="#79ac2b">
<path d="m325.7 373.4c0.37-3.32 0.08-4.16-0.87-2.52-0.07-2.61-0.29-4.97-1.53-5.53-1.04 0.5-1.94-0.03-2.69-1.58-0.57-1.06-1.03-2.66-2.08-1.54 0.06-1.82-0.46-1.3-0.87-1.26-0.07 0.83-0.15 1.65-0.22 2.47-0.93-0.39-1.57-0.29-0.16 3.28 0.84 0.93 0.53 1.61 0.05 2.24-2.92-1.42-3.28-0.2 1.97 6.84-1.89 0.99-0.9 1.79 6.4 2.19-0.62-0.44 0.17-1.68-1.6-1.95-1.97-0.3-3.59-2.32-4.91-4.07 1.6 1.15 3.33 2.03 5.36 2.3-2.09-3-4.48-5.83-5.47-9.47 1.6 3.18 4.14 5.87 6.62 8.6z"/>
<path d="m328.1 370.5c-1.87-1.24-2.32-2.73-2.58-4.27 0.24-0.02 0.48-0.03 0.72-0.05-0.13-1.68-0.63-3.29 0.1-5.15 1.74 1.1 2.88 3.03 3.89 5.15 0.81-4.13 3.47-2.47 4.71-6.68 1.46 4.82 2.6 5.24-0.33 10.29-0.53-1-0.4-3.81 0.49-6.51-0.88 2.1-2.24 4.79-3.39 6.35-2.41 0.16-1.92-2.98-3.29-4.11 0.92 1.88 0.81 3.54-0.32 4.98z"/>
<path d="m320 379.1c-0.88-1.98-2.6-1.47-5.14 1.53 0.42 1.09 1.13 2.11 2.15 3.06 7.14-0.52 9.09-1.66 7.51-3.23-1.17 0.38-2.34 0.76-3.5 1.13 1.63-1.13 1.99-1.81 1.07-2.03-1.56 0.58-3.12 1.17-4.69 1.75-0.56-0.73 0.31-1.47 2.6-2.21z"/>
<path d="m315.2 384.7c-1.89-4.17-3.82-8.32-4.63-12.95-0.92-3.53-2.3-4.49-4.12-2.88-1.9-2.98-3.46-3.18-4.91-2.38-3.9-0.45-2.91 1.72-2.2 3.73 1.03-0.98 2.07-1.96 3.1-2.94 2.66 2.32-0.38 7.18 12.76 17.42z"/>
<path d="m297.5 379c10.86-0.78 8.07-1.18 15.41 5.66 0.23 1.34 0.19 2.6-1.69 3.34-2.25-1.54-4.64-2.75-7.34-3.23-0.58 0.11-0.71 0.76-0.4 1.92-2.32-0.9-4.12-2.43-5.7-4.24-0.8-0.56 0.12-0.83 2.77-0.79-0.54-1.45-1.75-2.11-3.05-2.66z"/>
<path d="m305.5 386.3c1.99 0.89 3.94 1.58 6.1 3.28-0.46 1.02-0.46 2.04 0 3.05-3.29 0.2-5.68-1.25-6.1-6.33z"/>
<path d="m305 387.5c-0.08 0.77-0.15 1.54-0.23 2.32-1.11-0.4-2.14-0.87-2.65-1.87 0.51-0.53 1.47-0.68 2.88-0.45z"/>
<path d="m292.1 388.4c9.02-2.27 5.03 0.12 10.72 1.24-0.9 1.13-2.25 1.81-4.06 2.04-1.65-1.95-4.1-2.7-6.66-3.28z"/>
<path d="m307.6 392.3c-7.26-1.69-9.14-0.37-8.58 2.32-2.83 2.85-4.89 5.27-1.52 4.64-2.59 6.48-3.31 5.02 3.33 4.07-0.06 1.41 1.11 1.44 4.96-1.53-0.49 5.96 7.17 0.74 6.83-6.33-3.07 0.79-6.13 2.65-9.2 4.81 0.19-1.15 1.96-2.91 5.31-5.26-2.73 0.74-5.46 1.92-8.18 3.73 1.3-1.92 3.22-3.59 6.48-4.75-1.99-0.3-3.91 0.22-5.75 1.58 0.31-1.66 3.13-2.53 6.32-3.28z"/>
<path d="m313.8 398.6c0.69 0.71 1.45 1.36 2.77 1.6-1.2 1.1-1.45 2.51-0.76 4.24 0.37-1.91 1.37-3.03 3-3.36-0.83 8.7 1.1 10.48 3.13 12.03-2.49-3.74-2.49-7.81-1.36-12.03 2 1.25 3.96 2.59 4.84 7.02 0.53-2.49 0.23-5.08-0.65-7.73 5.08 2.14 8.44 5.68 3.07 7.14 0.59 3.89-0.24 5.19-2.48 3.89 0.57 2.34-0.59 5.33-2.54 8.61-0.63-2.87-2.03-4.87-3.77-6.48-0.41 4.68-2.01 0.33-3.54-3.48-1.42 2.49-1.88 0.23-1.89-4.19-3.69 3.31-1.84-1.84 0.18-7.26z"/>
<path d="m351.3 387.3c-1.8-1.54-3.83-2.54-6.18-2.77 0.55-0.45 1.11-0.9 1.67-1.35-4.14-2.06-8.58-1.05-13.15 1.35 2.81-0.11 5.7-0.43 8.06 0.81-1.91-0.31-4.11-0.05-6.35 0.29 2.44 0.65 5.01 1.24 6.23 2.45-2.49-0.75-4.09-0.52-7.25-0.25 3.61 1.09 1.31 2.71 2.81 3.96 2.52-0.33 5.02-0.51 7.33 0.37 0.2-0.9-0.25-1.31-0.37-1.96 5.63 0.67 3.74-2.28 7.2-2.9z"/>
<path d="m337.3 396.4c6.14 0.35 7.6 2.23 6.93 4.82-7.04 0.51-7.86-1.76-6.93-4.82z"/>
<path d="m342.8 413.7c0.01-0.03 0.03-0.06 0.04-0.09 0.65-1.85 0.5-3.76-0.82-5.73 1.01-0.69 2.02-0.69 3.04 0-0.68-3.3-2.07-5.88-6-5.82-0.37 0.33-0.75 0.67-1.13 1-0.08-1.55-1.49-1.78-3.08-1.82-1.71 0.83-3.15 1.78-2.76 3.54 0.82-0.64 1.33-0.45 1.8-0.16-0.23 2.74 0.35 4.84 1.74 6.3 0.48-1.55 1.13-2.34 1.95-2.39 0.27 2.63 3.61 1.87 5.22 5.17z"/>
<path d="m337.2 392.7c-1.34 2.11 0.41 3.12 5.27 3.03 0.04-0.69 0.08-1.39 0.13-2.08 5.24 1.65 6.2-1.44 8.67-0.99-0.45-1.57-1.67-2.22-3.24-2.46-0.79 2.76-5.16 3.07-10.83 2.5z"/>
<path d="m337.8 371.2c-1.32-3.56-0.26-8.57 3.17-15.03-0.61 7.46 2.45 6.97-1.47 19.06-0.85-2.58-1.47-5.49-0.46-10.77-1.58 2.36-1.73 4.59-1.24 6.74z"/>
<path d="m342 371.5c1.23-2.12 1.44-3.82 0.62-5.11 1.1-1.92 2.42-3 3.95-3.26 0.39 1.4 0.36 2.89-0.08 4.5-1.61 0.47-3.09 1.95-4.49 3.87z"/>
<path d="m340.8 380.7c0.05-8.52 6.07-14.49 14.81-19.29-1.61 2.58-3.21 5.16-4.81 7.75-1.34-1.64-3.54 0.55-6.12 4.49-2.46 1.77-3.49 4.25-3.88 7.05z"/>
<path d="m345.9 376.5c1.86-2.06 3.76-3.99 5.9-5.08-1.13 1.02-2.02 2.23-2.39 3.82 3.39-0.45 4.96-2.62 4.72-6.51-6.97 0.97-8.99 3.84-8.23 7.77z"/>
<path d="m354.9 373.7c-3.97 1.37-7.94 3.95-11.91 6.4 2.06-1.12 4.01-1.97 5.79-2.43-2.74 1.6-3.83 2.8-4.19 3.83l3.08 1.29c3.17-3.26 6.27-6.5 7.23-9.09z"/>
<path d="m363.1 375.2c-4.95-0.47-8.47-0.36-6.87 1.8 1.67-0.05 3.35-0.11 5.02-0.16-2.53 0.73-2.8 1.67-0.82 2.84 1.18-1.35 2.07-2.84 2.67-4.48z"/>
<path d="m363.4 397.6c-2-2.17 0.2-5.68-3.54-7.82-0.17 0.77-0.33 1.53-0.49 2.3-0.51-0.38-1.02-0.77-1.53-1.15-1 0.64-1.71 1.5-2.13 2.57 0.44 0.2 0.88 0.4 1.31 0.6 0.15-0.6 0.29-1.2 0.44-1.8 0.34 2.04 0.8 3.78 2.02 3.33 0.65-6.28 0.76 1.42 3.92 1.97z"/>
<path d="m357.8 396.4c1.84 0.85 3.48 1.89 3.71 4.21-0.78-0.46-1.56-0.91-2.34-1.37 1.1 2.01 1.42 3.71 0.05 4.7-0.31-1.55-1.13-2.66-2.45-3.33 1.62-0.96 2.32-2.23 1.03-4.21z"/>
<path d="m358.1 410.8c0.72-2.68 0.84-5.51-1.13-8.86-1.53-0.44-2.13 0.13-1.82 1.7 2.16 1.8 2.5 4.5 2.95 7.16z"/>
<path d="m352 411.8c-0.51-3.38-1.7-6.62-3.89-9.67-1.03-0.27-3.04 0.33-3.02 1.63 3.06 4.93 5.7 8.65 6.91 8.04z"/>
</g>
<g fill="#fd0">
<path d="m345.3 409.2c-0.23 3.2 0.88 4.06 3.33 2.57-0.86-2.11-1.97-2.97-3.33-2.57z"/>
<path d="m352.3 422.4 0.15-7.08c1.51-1.31 2.61-1.01 3.32 0.9-0.55 2.46-1.71 4.52-3.47 6.18z"/>
<path d="m351.4 413.5c-2.29-0.28-5.01-0.99-5.58 0.45 0.25 1.25 0.5 2.51 0.75 3.77-1.96-2.47-3.51-3.12-4.67-1.96 1.57 5.87 0.71 12.46-0.15 19.14 6.38-4.14 10.5-10.43 9.65-21.4z"/>
<path d="m340.1 415.6c3.78 18.02-1.27 28.65-12.36 34.22 0.94-12.81 1.76-25.48-1.36-34.22 0.61-0.51 1.21-1.01 1.81-1.51 3.82 1.11 7.69 2.01 11.91 1.51z"/>
<path d="m324.8 420.1c4.69 18.7 3.84 31.69-5.13 36.33-1.46-2.11-2.91-4.22-4.37-6.33 3.01-13.52-10.86-29.6-8.59-44.62 1.1-0.2 2.21-0.4 3.31-0.61v4.53c0.35 0.3 0.7 0.6 1.06 0.9 0.35-0.45 0.7-0.9 1.05-1.36 0.66 2.01 1.31 4.02 1.96 6.03 0.4-0.65 0.81-1.3 1.21-1.96 0.8 1.76 1.61 3.52 2.41 5.28 0.35-0.6 0.7-1.21 1.06-1.81 1.4 2.56 2.81 5.13 4.22 7.69 0.6-1.36 1.2-2.71 1.81-4.07z"/>
<path d="m313.8 448.6c3.22-7.89-5.02-20.9-7.54-31.35-10.1-1.11 0.76 14.52-3.61 26.07 4.32 1.01 8.44 2.26 11.15 5.28z"/>
<path d="m310.6 458.3c1.66-0.31 2.32-1.41 1.96-3.32-1.45-2.06-3.26-3.07-5.12-3.92-1.16-0.35-1.51 0.3-1.06 1.96 1.41 1.76 2.82 3.52 4.22 5.28z"/>
<path d="m297 432.2c0.25 1.25 0.5 3.52 0.75 6.78-1-1.41-2.01-2.81-3.01-4.22-0.05-1.46 0.7-2.31 2.26-2.56z"/>
<path d="m294.2 441.7c-1.05-1.65-2.11-3.31-3.16-4.97-2.21 0.55-2.61 1.71-1.21 3.47 1.46 0.5 2.92 1 4.37 1.5z"/>
<path d="m302.3 452.8c1.66 2.66 3.32 5.33 4.98 7.99-1.01 0.25-2.41 0.3-4.22 0.15-1.31-3.17-2.27-6.18-0.76-8.14z"/>
<path d="m296 448.9c-0.58 6.11-0.53 11.08 0.91 13.57-2.56 2.36-5.37 4.23-9.95 2.56 2.81-4.72 3.42-10.55 3.01-16.88 2.01 0.25 4.02 0.5 6.03 0.75z"/>
<path d="m288.6 447.7c0.52 6.71-0.33 13.04-4.22 18.55-2.67 1.6-5.03 1.25-7.09 0.3 4.53-4.41 1.96-23.36 4.07-22.61 1.41 1.25 3.82 2.51 7.24 3.76z"/>
<path d="m278.2 446.4c0.92 8.14 0.47 15.52-3.02 21.25-2.01 1.16-3.82 1.51-5.43 1.06 1.01-6.29 0.96-11.51 0.76-16.58 1.96-3.92 4.52-5.83 7.69-5.73z"/>
<path d="m269 451.5c0.2 5.58 0.15 11.16-0.45 16.73-2.37 2.22-4.32 3.22-5.88 3.02 0.83-5.12 0.83-10.25 0.45-15.38 2.56-4.06 4.52-5.52 5.88-4.37z"/>
<path d="m261.6 455.2c0.66 6.44 1.11 12.47 0.15 15.68-1.1 1.81-2.41 2.81-3.92 3.02-0.1-4.45-1.29-8.35-2.26-12.37 1.21-4.52 3.22-6.63 6.03-6.33z"/>
<path d="m256.2 473.8c0.5-3.61-0.4-7.94-1.51-12.36-3.68-0.61-4.53 2.31-4.98 5.73 0.86 4.17 2.12 7.54 3.77 10.1 1.71-0.35 2.62-1.51 2.72-3.47z"/>
<path d="m248.8 466.8c0.4 4.17 1.1 8.24 3.92 11.61 0.2 1.1-0.2 2.21-1.21 3.31-2.97-1.65-4.87-4.37-6.63-7.23-1.31-4.17 0-6.74 3.92-7.69z"/>
<path d="m244.2 475.6c1.67 2.85 3.46 5.48 6.13 6.59 0.83 1.15 0.68 2.29-0.47 3.44-3.62 0.6-6.22-1.01-8.35-3.62-0.84-3.87 0.06-6.01 2.69-6.41z"/>
<path d="m249.8 487c1.39 0.92 1.42 1.97 0.09 3.15-3 1.55-5.88 2.55-7.89-0.37-1.42-1.52-1.36-3.03 0.19-4.55 2.66 1.46 5.2 2.04 7.61 1.77z"/>
<path d="m250.9 490.3c1.43-0.31 1.98 0.49 1.67 2.41-0.92 2.14-2.72 3.19-4.64 4.09-3.37-1.37-4.39-2.6-3.06-3.72 2.38-0.27 4.64-0.77 6.03-2.78z"/>
<path d="m253.1 493.1c1.21-0.93 2.04-0.37 2.51 1.67 0.09 1.36 0.12 2.73-0.28 4.09-4.06 0.84-5.08-0.28-5.66-1.67 2.13-1.12 3.28-2.48 3.43-4.09z"/>
<path d="m256.1 493c0.17 2.5 0.08 5.47 1.3 6.13 1.46-0.75 2.29-1.86 2.51-3.35-0.65-2.29-1.92-3.21-3.81-2.78z"/>
<path d="m259.8 492.5c-0.75-4.2-2.36-4.45-4.83-0.74 1.61 0.25 3.22 0.5 4.83 0.74z"/>
</g>
<path d="m319.9 386.6c0.26-0.88 1.03-1.26 2.3-1.14 0.57 0.63 1.31 1.25 3.25 1.87 1.26 1.15-1.88 0.26-5.55-0.73z"/>
<path d="m334.1 372.6c-0.4-0.44-0.83-0.86-1.55-1.12-0.55-0.18-2.17 1.22-3.94 2.83-0.93 1.58 2.64-1.49 5.49-1.71z"/>
<path d="m336.7 500.8c-1.03 0-1.88-0.76-1.88-1.7s0.85-1.7 1.88-1.7 1.87 0.77 1.87 1.7c0 0.94-0.84 1.7-1.87 1.7z" fill="#fd0"/>
<g stroke="#000" stroke-width=".216" stroke-miterlimit="2.613" fill="#cec8ea">
<path d="m250.3 386.1c1.6-1.3 2-3.8 0.6-3.9-1.5-0.2-2.3-0.2-2.3 1.1-0.1 1.3-0.6 2.3-0.3 2.5s0.5 1.6 2 0.3zm-14.6 8.7c1.5-1.3 2.9-7.4 1.5-7.6-1.4-0.1-2.3-0.1-2.3 1.2-0.1 1.3-1.6 5.9-1.3 6.1 0.4 0.2 0.5 1.6 2.1 0.3zm5.5-4.8c0.5-1.1 0.2-2.6-0.3-2.9-0.5-0.2-1.8 0-2.3 1.2-0.6 1.1-0.6 3.6-0.1 3.8 0.6 0.3 2.1-0.9 2.7-2.1zm3.2-1.7c0.5-1.2 0.5-2.3 0-2.6-0.6-0.3-1.4 0.4-2 1.6-0.5 1.2-0.5 2.4 0.1 2.6 0.5 0.3 1.4-0.4 1.9-1.6zm3.4-1.6c0.4-0.8 0.2-1.7-0.3-1.9-0.6-0.3-1.3 0.1-1.7 0.9-0.3 0.8-0.1 1.6 0.4 1.9 0.6 0.3 1.3-0.1 1.6-0.9zm-11.9-0.5c-0.1-1.9 0.2-3.7 0.7-5.3 4.4 2 9.7 1.6 12.9-1.2 1 0.7 0.9 1.3-0.2 1.8-3.4 2.8-7.1 5.3-13.4 4.7zm-9.1 12.4c2-2 2.7-5.6 3.3-9.5-2.1 0.5-2.3-0.7-0.5-3.7 2.2-8.5 4.4-13.9 6.9-12.7 2.6 0.5 4.3 2 5.2 4.7 2.5 0.4 4.3-0.6 5.3-2.9 0.8 1.3 1.6 2.6 2.4 3.8-3.8 2.7-8.2 3.8-14 1.6-0.7 5.7-1.7 11.3-3.6 17.1-5.2 5.8-5.4 4.3-5 1.6zm33.4-19.7c-1.8 0.9-4.3 0.3-3.8-1.1s0.9-2.2 2.1-1.7c1.2 0.4 2.3 0.4 2.4 0.8 0 0.3 1.3 1.1-0.7 2zm14.6-10.1c-1.9 0.9-8.1-0.3-7.6-1.7 0.6-1.4 0.9-2.2 2.2-1.7 1.2 0.4 6 1 6.1 1.4 0 0.3 1.2 1.1-0.7 2zm-6.8 3.1c-1.3 0-2.5-0.8-2.5-1.4s0.8-1.7 2.1-1.7 3.5 0.9 3.5 1.5c0 0.7-1.8 1.6-3.1 1.6zm-3.1 2.4c-1.3 0-2.3-0.5-2.3-1.2 0-0.6 1-1.1 2.3-1.1s2.4 0.5 2.4 1.1c0 0.7-1.1 1.2-2.4 1.2zm-3 2.5c-0.9 0-1.6-0.5-1.6-1.2 0-0.6 0.7-1.1 1.6-1.1s1.6 0.5 1.6 1.1c0 0.7-0.7 1.2-1.6 1.2zm5-11.4c-1.7-0.8-3.4-1.3-5.1-1.4-0.2 4.8-3 9.6-7 11.4 0.2 1.3 0.8 1.4 1.7 0.6 4.1-2 8-4.4 10.4-10.6zm15.4-3.3c-2.7 1.1-6.3 0.2-10.1-0.9 1.4-1.7 0.3-2.4-3.2-2-8.7-1.4-14.7-1.6-14.6 1.2-0.8 2.7-0.2 4.9 1.8 6.9-0.8 2.4-2.4 3.7-5 3.7 0.8 1.2 1.6 2.5 2.4 3.8 4.1-2.4 7.2-6.1 7.8-12.4 5.5 1.6 11 3.1 17.2 3.7 7.7-2.4 6.3-3.3 3.7-4zm37.6 108.5c4.7 1.4 10.3 5 17.4 13.3 0.7 2.1-0.1 2.1-1.6 1.1-3.1-4.1-6.6-7.2-10.3-9.6-1.8-1.1-3.8-2-5.7-2.9l0.2-1.9zm-17.3-26.2c10.7 2 17.6 8 16.1 23.1-1.6 11.6 0 19.9 4.7 24.7 0.6 1 1 1.9-0.9 1.1-4.3-2.3-7.3-8.2-6-26.6 1.1-12.5-5.5-16.6-13.3-19.2l-1.3-0.4c0.1-0.3 0.6-2.3 0.7-2.7zm-20.3-26.7c0.6-1.1 1.4-3.3 1.6-3.8 6 2.5 23 7.6 17.6 29.3-5 18.6 2.5 24.2 12 25.4 0.5 0.1 0.8 0.1 1.6 0.2 0 0.3-0.2 2.9-0.1 3.4-13.4-1.5-21-7.7-16-29 2.9-17.5-11.8-25.2-16.7-25.5zm-6.7-32.9c-0.5 1.9-3.4 2.6-7.7 2.5-1.2-0.7-1.8-0.7-1.8 0.2-1 0.3-1.3-0.1-0.9-1 0.1-1.1 0.8-1.9 1.7-2.7 0.8-0.1 0.8-1.3 1.5-1.7-1.1-0.7-0.8-1.5 1.1-2.4 4.8-2.3 6.3-3.5 6.9-4.4 1.7 0.2 2 1 0.9 2.4-1 1 3.5 2.8 3.4 4.6 5.7 5.7 9.8 16.8 0.3 34.8-6.9 15.8 4 23.6 14 26l2.7 0.8c-0.2 0.8-0.9 3.3-1.1 3.8-14.8-1.2-27-11.7-21.2-30.9 1.1-3.6 3.1-6.2 4.4-9.6 3-8 2.6-18.3-4.2-22.4zm-4.6-1.8c-0.6 0-1-0.5-1-1.1s0.4-1.1 1-1.1 1 0.5 1 1.1-0.4 1.1-1 1.1zm-21 19.5c2.9-1.7 4.2-4.2 5.8-6.5-0.1-1.4 0.2-1.9 1-1.5 0.8-0.6 0.6-1.1-0.4-1.3-1-0.4-2-0.2-3.1 0.1-0.5 0.7-1.2 1.3-1.9 1.6 0-1.3-0.9-1.4-2.6-0.2-4.5 2.9-6.3 3.6-7.4 3.7-0.7 1.5-0.1 2.1 1.7 2 1.4-0.4 0.6 4.4 2.1 5.2 3.6 9.5 13.3 13.7 28.5 12.6 0.2-1.2 0.9-3 1.1-3.6l0.6-1.1h-1.2c-9.7-0.1-22.1-0.8-24.2-11zm-0.8-4.3c-0.6 0-1-0.5-1-1.1s0.4-1.1 1-1.1 1 0.5 1 1.1-0.4 1.1-1 1.1z" fill-rule="evenodd" fill="#fff"/>
</g>
<g fill="#fd0">
<g stroke="#000" stroke-width=".216" stroke-miterlimit="2.613">
<path d="m241.3 363c-0.83 0-1.51-0.7-1.51-1.56s0.68-1.56 1.51-1.56 1.51 0.7 1.51 1.56-0.68 1.56-1.51 1.56z"/>
<path d="m245.8 367.6c1.63-1.23 2.07-3.41 0.98-4.86s-2.6-1-4.23 0.23c-1.63 1.22-2.78 2.78-1.69 4.23s3.31 1.63 4.94 0.4z"/>
<path d="m246.9 369.5c-0.9 0.83-1.93 1.18-2.28 0.79-0.36-0.38 0.08-1.37 0.98-2.2 0.9-0.82 1.93-1.18 2.28-0.79 0.36 0.39-0.08 1.38-0.98 2.2z"/>
<path d="m248.1 371.6c-0.78 0.72-1.68 1.03-1.99 0.69s0.08-1.2 0.87-1.92c0.78-0.72 1.68-1.03 1.99-0.69 0.31 0.33-0.08 1.2-0.87 1.92z"/>
</g>
<path d="m247.1 372.8 27.36 39 1.89 0.05c0.18-0.42 0.37-0.83 0.56-1.24l-27.11-39.77c-0.59 1.11-1.53 1.71-2.7 1.96zm33.98 48.43 14.43 20.57 2.35 0.83c0.09-0.37 0.17-0.69 0.18-1.04l-15.25-22.37-1.08-0.13c-0.23 0.7-0.44 1.42-0.63 2.14zm20.32 28.96 11.76 16.77 2.3 0.8 0.04-0.55v-0.01l-12.75-18.68-1.07-0.3c-0.11 0.62-0.2 1.36-0.28 1.97zm18.16 25.89 15.33 21.85 0.66-1.32-15.01-22.02-1.01-0.47 0.03 1.96z"/>
</g>
<g fill="#a99ed6">
<path d="m300.1 281.2c2.1 2.5 4.1 5 5.6 7.3l0.6-0.1h0.1c0.4 0 0.8-0.1 1.2-0.2-1.7-2.5-3.7-5.2-6-7.8-0.8-0.1-1.6-0.1-2.4-0.2 0.3 0.4 0.6 0.7 0.9 1zm-1.5-4.1c-0.4-0.5-0.8-0.9-1.3-1.4-0.3 0.5-0.7 0.9-1 1.3 0.8 0 1.6 0 2.3 0.1zm9 14.3c2.8 4.6 3.9 8.3 2.6 9.4-2.1 1.8-10.1-4-17.8-12.9-0.7-0.8-1.4-1.6-2-2.4-0.1 0.1-0.1 0.1-0.1 0.2-0.3 0.5-0.6 0.9-0.9 1.4 0.6 0.7 1.1 1.3 1.6 1.9 8.6 9.9 17.9 16 20.8 13.5 1.7-1.5 0.6-5.9-2.5-11.4l-0.5 0.1h-0.2c-0.3 0-0.6 0.1-0.9 0.1l-0.1 0.1zm-12.4 3c-4.9 5.8-9.3 9.1-11 7.9-2.3-1.6 1.2-10.8 7.8-20.6 2.4-3.6 4.9-6.7 7.2-9.2l-0.2-0.2-0.3-0.1-0.2-0.2-0.5-0.5v-0.1c-2.5 2.6-5 5.8-7.4 9.3-7.4 10.9-10.8 21.4-7.7 23.5 2.4 1.6 7.8-2 13.5-8.6-0.3-0.3-0.7-0.6-1-0.9-0.1-0.1-0.2-0.2-0.2-0.3zm8.4-26c2.1-1.6 3.7-2.2 4.6-1.6 1.6 1 0.6 5.3-2.1 10.9 0.5 0.1 1.1 0.1 1.6 0.2l0.1 0.1c3-6.5 3.8-11.7 1.8-13.1-1.4-1-3.9-0.1-6.9 2.2l0.1 0.1 0.2 0.2 0.2 0.3 0.2 0.2 0.1 0.3 0.1 0.2zm-3.1 3.6c-1.4 0-2.5-1.1-2.5-2.5s1.1-2.6 2.5-2.6 2.6 1.2 2.6 2.6-1.2 2.5-2.6 2.5zm-10 17.5c-0.8-0.1-1.5-0.2-2.3-0.2-0.2 0.5-0.5 1-0.8 1.5v0.1c1.5 0.1 3.1 0.3 4.7 0.4-0.5-0.6-1.1-1.2-1.6-1.8zm-5.5-0.7c-6.2-0.9-10.2-2.5-10.2-4.4 0-1.7 3.5-3.2 8.9-4.1h-0.1c-0.2-0.5-0.5-1-0.8-1.5-6.2 1.2-10.3 3.3-10.3 5.6-0.1 2.5 4.7 4.8 11.7 6 0 0 0-0.1 0.1-0.1 0.2-0.5 0.4-1 0.7-1.5zm2.1-8.9c1.1-0.1 2.2-0.2 3.4-0.3 0.3-0.4 0.6-0.8 0.9-1.3 0.1-0.1 0.2-0.3 0.3-0.5-2 0.1-3.9 0.3-5.7 0.5 0.4 0.5 0.7 1.1 1.1 1.6zm13.4 7.5c-0.4 0.5-0.7 1-1.1 1.5h1.1l1.1-0.1c0.1-0.1 0.2-0.2 0.3-0.4 0.5-0.7 0.9-1.4 1.4-2.1-0.4-0.5-0.8-1-1.1-1.5-0.6 0.9-1.2 1.8-1.7 2.6zm-3.3 4.7 1.2 1.1c0.3-0.4 0.6-0.7 0.8-1.1h-2zm7.4-11.5c-0.2 0.5-0.5 0.9-0.7 1.4 0.4 0.4 0.7 0.9 1.1 1.4 0.5-0.9 1-1.7 1.4-2.6-0.3 0-0.6 0-1-0.1-0.2 0-0.5 0-0.8-0.1zm-16.3 2.3c-5.2-7-7.8-13.1-6.1-14.5 1.6-1.4 6.3 1.4 11.8 6.5 0.4-0.5 0.7-0.9 1.1-1.3-6.4-5.9-12.3-8.9-14.4-7-2.4 2.1 0.5 9.6 6.7 17.8 0.3-0.5 0.6-1 0.9-1.5zm7.9 5c-1.8 0-3.2-1.4-3.2-3.2 0-1.7 1.4-3.2 3.2-3.2s3.2 1.5 3.2 3.2c0 1.8-1.4 3.2-3.2 3.2zm0 1.8h-1.1l1.2 1.7c13.1 0.1 23.7-2.9 23.7-6.7 0-3.7-10.6-6.9-23.7-7h-0.6c-0.4 0.6-0.8 1.2-1.3 1.8 0.6-0.1 1.2-0.1 1.9-0.1 11.8 0.1 21.4 2.5 21.4 5.3-0.1 2.8-9.7 5.1-21.5 5z"/>
</g>
</g>
</svg>